<?xml version="1.0" encoding="utf-8"?>
<!-- Generator: Adobe Illustrator 21.0.0, SVG Export Plug-In . SVG Version: 6.00 Build 0)  -->
<svg version="1.1" id="Capa_1" xmlns="http://www.w3.org/2000/svg" xmlns:xlink="http://www.w3.org/1999/xlink" x="0px" y="0px"
	 viewBox="0 0 160 160" style="enable-background:new 0 0 160 160;" xml:space="preserve">
<style type="text/css">
	.st0{fill:#FFFFFF;}
	.st1{opacity:0.19;enable-background:new    ;}
	.st2{fill:#FF8400;}
	.st3{fill:#9D9D9C;}
</style>
<g id="mask0_236_591">
	<g>
		<path class="st0" d="M25.9,62.6l47.6-27.7l62.4,36L88.3,98.6L25.9,62.6z"/>
	</g>
</g>
<g class="st1">
	<path class="st2" d="M132.4,17.4H27.6c-5.7,0-10.2,4.6-10.3,10.3v104.7c0,5.7,4.6,10.2,10.3,10.3h104.7c5.7,0,10.2-4.6,10.3-10.3
		V27.6c0-5.6-4.5-10.2-10.1-10.3C132.5,17.4,132.4,17.4,132.4,17.4z"/>
</g>
<g>
	<path class="st0" d="M72.6,62.2l59.8,35l-44.5,27L27.6,88.9L72.6,62.2z"/>
	<path class="st3" d="M87.9,125.3c-0.2,0-0.4,0-0.5-0.1L27.1,89.8c-0.3-0.2-0.5-0.5-0.5-0.9s0.2-0.7,0.5-0.9l45-26.7
		c0.3-0.2,0.7-0.2,1.1,0l59.8,35c0.3,0.2,0.5,0.5,0.5,0.9c0,0.4-0.2,0.7-0.5,0.9l-44.5,27C88.3,125.2,88.1,125.3,87.9,125.3z
		 M29.7,88.9L87.9,123l42.4-25.7L72.6,63.4L29.7,88.9z"/>
</g>
<g>
	<path class="st0" d="M72.6,55.7l59.8,35l-44.5,27L27.6,82.4L72.6,55.7z"/>
	<path class="st3" d="M87.9,118.8c-0.2,0-0.4,0-0.5-0.1L27.1,83.3c-0.3-0.2-0.5-0.5-0.5-0.9s0.2-0.7,0.5-0.9l45-26.7
		c0.3-0.2,0.7-0.2,1.1,0l59.8,35c0.3,0.2,0.5,0.5,0.5,0.9c0,0.4-0.2,0.7-0.5,0.9l-44.5,27C88.3,118.7,88.1,118.8,87.9,118.8z
		 M29.7,82.4l58.2,34.1l42.4-25.7L72.6,56.9L29.7,82.4z"/>
</g>
<g>
	<path class="st0" d="M72.6,49.1l59.8,35l-44.5,27L27.6,75.7L72.6,49.1z"/>
	<path class="st3" d="M87.9,112.2c-0.2,0-0.4,0-0.5-0.1L27.1,76.6c-0.3-0.2-0.5-0.5-0.5-0.9c0-0.4,0.2-0.7,0.5-0.9l45-26.6
		c0.3-0.2,0.7-0.2,1.1,0l59.8,35c0.3,0.2,0.5,0.5,0.5,0.9c0,0.4-0.2,0.7-0.5,0.9l-44.5,27C88.3,112.1,88.1,112.2,87.9,112.2z
		 M29.7,75.7l58.2,34.2l42.4-25.7L72.6,50.3L29.7,75.7z"/>
</g>
<g>
	<path class="st0" d="M72.6,42.5l59.8,35l-44.5,27L27.6,69.2L72.6,42.5z"/>
	<path class="st3" d="M87.9,105.6c-0.2,0-0.4,0-0.5-0.1L27.1,70.1c-0.3-0.2-0.5-0.5-0.5-0.9c0-0.4,0.2-0.7,0.5-0.9l45-26.7
		c0.3-0.2,0.7-0.2,1.1,0l59.8,35c0.3,0.2,0.5,0.5,0.5,0.9c0,0.4-0.2,0.7-0.5,0.9l-44.5,27C88.3,105.5,88.1,105.6,87.9,105.6z
		 M29.7,69.2l58.2,34.1l42.4-25.7L72.6,43.7L29.7,69.2z"/>
</g>
<g>
	<path class="st0" d="M72.6,35.7l59.8,35.1l-44.5,27L27.6,62.5L72.6,35.7z"/>
	<path class="st2" d="M87.9,98.9c-0.2,0-0.4,0-0.5-0.1L27.1,63.4c-0.3-0.2-0.5-0.5-0.5-0.9c0-0.4,0.2-0.7,0.5-0.9l45-26.8
		c0.3-0.2,0.7-0.2,1.1,0l59.8,35.1c0.3,0.2,0.5,0.5,0.5,0.9c0,0.4-0.2,0.7-0.5,0.9l-44.5,27C88.3,98.8,88.1,98.9,87.9,98.9z
		 M29.7,62.5l58.2,34.1l42.4-25.7L72.6,36.9L29.7,62.5z"/>
</g>
<g>
	<g>
		<path class="st2" d="M48.2,64.1c-0.8-0.4-0.8-1.1,0-1.5s1.8-0.4,2.6,0s0.8,1.1,0,1.5C49.9,64.5,49,64.5,48.2,64.1z M52.4,61.6
			c-1.9-0.9-4-0.9-5.9,0c-1.7,0.9-1.7,2.5,0,3.4c1.3,0.7,2.7,0.9,4.1,0.6c0.3-0.4,0.7-0.7,1.2-1s1.1-0.5,1.7-0.6
			C53.9,63.2,53.5,62.3,52.4,61.6L52.4,61.6z"/>
	</g>
	<g>
		<path class="st2" d="M57.7,63.9c-0.2-0.1-0.4-0.2-0.7-0.2c-1.2-0.1-2.4,0-3.6,0.3c-0.6,0.2-1.1,0.4-1.7,0.7
			c-0.4,0.3-0.8,0.6-1.2,1C50,66.3,49.8,67,50,67.8c0.1,0.1,0.2,0.3,0.3,0.3c0.3,0.2,0.7,0.2,1,0.2c0.7-0.1,1.1-0.4,1-0.8
			c-0.2-0.7,0.2-1.3,1-1.9c1-0.5,2.1-0.7,3.2-0.5c0.7,0.1,1.2-0.2,1.3-0.6C58.1,64.3,57.9,64.1,57.7,63.9z"/>
	</g>
	<g>
		<path class="st2" d="M49.1,58.3l11.3,6.5L52,69.7l-11.2-6.5L49.1,58.3z M63.7,64.8l-14.6-8.4l-0.8,0.5l-10.8,6.3L52,71.7
			L63.7,64.8z"/>
	</g>
	<g>
		<path class="st2" d="M95.2,53.5c-0.5-0.3-1.1-0.3-1.7,0L58.1,74.2c-0.5,0.3-0.4,0.7,0,1c0.5,0.3,1.1,0.3,1.7,0l35.4-20.6
			C95.6,54.2,95.6,53.8,95.2,53.5z"/>
	</g>
	<g>
		<path class="st2" d="M102,57.4c-0.5-0.3-1.1-0.3-1.7,0L64.9,78.1c-0.5,0.3-0.4,0.7,0,1c0.5,0.3,1.1,0.3,1.7,0L102,58.4
			C102.5,58.2,102.5,57.8,102,57.4z"/>
	</g>
	<g>
		<path class="st2" d="M108.9,61.4c-0.5-0.3-1.1-0.3-1.7,0L71.8,82c-0.5,0.3-0.4,0.7,0,1c0.5,0.3,1.1,0.3,1.7,0L109,62.4
			C109.4,62.1,109.4,61.7,108.9,61.4z"/>
	</g>
	<g>
		<path class="st2" d="M115.8,65.4c-0.5-0.3-1.1-0.3-1.7,0L78.6,86c-0.5,0.3-0.4,0.7,0,1c0.5,0.3,1.1,0.3,1.7,0l35.5-20.7
			c0.3-0.1,0.4-0.4,0.3-0.6C116,65.5,115.9,65.4,115.8,65.4z"/>
	</g>
	<g>
		<path class="st2" d="M122.5,69.3c-0.5-0.3-1.1-0.3-1.7,0L85.4,89.9c-0.5,0.3-0.4,0.7,0,1c0.5,0.3,1.1,0.3,1.7,0l35.5-20.6
			C123,70,123,69.6,122.5,69.3z"/>
	</g>
	<g>
		<path class="st2" d="M61.7,52.4c-0.5-0.3-1.1-0.3-1.7,0l-5.9,3.4c-0.5,0.3-0.4,0.7,0,1c0.5,0.3,1.1,0.3,1.7,0l5.9-3.4
			C62.2,53,62.2,52.6,61.7,52.4z"/>
	</g>
	<g>
		<path class="st2" d="M70.8,47.1c-0.5-0.3-1.1-0.3-1.7,0l-5.9,3.4c-0.5,0.3-0.4,0.7,0,1c0.5,0.3,1.1,0.3,1.7,0l5.9-3.4
			c0.3-0.1,0.4-0.4,0.4-0.6C71.1,47.3,70.9,47.1,70.8,47.1z"/>
	</g>
	<g>
		<path class="st2" d="M64.1,56.2c-0.5-0.3-1.1-0.3-1.7,0l-3.7,2.2c-0.5,0.3-0.4,0.7,0,1c0.5,0.3,1.1,0.3,1.7,0l3.7-2.2
			C64.6,56.8,64.6,56.4,64.1,56.2z"/>
	</g>
	<g>
		<path class="st2" d="M81.5,51.3c-0.5-0.3-1.1-0.3-1.7,0l-3.7,2.2c-0.5,0.3-0.4,0.7,0,1c0.5,0.3,1.1,0.3,1.7,0l3.7-2.2
			C81.9,52,81.9,51.5,81.5,51.3z"/>
	</g>
	<g>
		<path class="st2" d="M74.1,50.4c-0.5-0.3-1.1-0.3-1.7,0l-6,3.5c-0.5,0.3-0.4,0.7,0,1c0.5,0.3,1.1,0.3,1.7,0l6-3.5
			c0.3-0.1,0.4-0.5,0.3-0.7S74.2,50.4,74.1,50.4z"/>
	</g>
	<g>
		<path class="st2" d="M72.4,56.6c-0.5-0.3-1.1-0.3-1.7,0L63.2,61c-0.5,0.3-0.4,0.7,0,1c0.5,0.3,1.1,0.3,1.7,0l7.5-4.4
			C72.8,57.3,72.8,56.8,72.4,56.6z"/>
	</g>
</g>
</svg>
