<svg width="160" height="160" viewBox="0 0 160 160" fill="none" xmlns="http://www.w3.org/2000/svg">
<path opacity="0.19" d="M143.629 111.532V48.4678C143.629 45.242 141.935 42.2582 139.113 40.6453L84.5161 9.113C81.6936 7.50009 78.3065 7.50009 75.4839 9.113L20.8871 40.6453C18.0645 42.2582 16.371 45.242 16.371 48.4678V111.532C16.371 114.758 18.0645 117.742 20.8871 119.355L75.4839 150.887C78.3065 152.5 81.6936 152.5 84.5161 150.887L139.113 119.355C141.935 117.742 143.629 114.758 143.629 111.532Z" fill="#FF8400"/>
<path d="M30.8871 40.0808L18.3871 47.3388C16.4516 48.4679 14.9193 51.1292 14.9193 53.3066L15 86.2098C15 87.7421 16.6935 88.7098 17.9838 87.9034C17.9838 87.9034 17.9838 87.9034 18.0645 87.9034L61.3709 62.9034C62.4193 62.2582 63.3064 60.8066 63.3064 59.5969L63.2258 32.0163C63.2258 30.1614 61.9354 29.4356 60.3225 30.3227L37.3387 43.5485C36.6935 43.8711 36.2096 43.8711 35.8871 43.3872L34.1129 40.484C33.4677 39.4356 32.258 39.2743 30.8871 40.0808Z" fill="white" stroke="#FF8400" stroke-width="2.0586" stroke-miterlimit="10" stroke-linecap="round" stroke-linejoin="round"/>
<mask id="mask0_236_623" style="mask-type:luminance" maskUnits="userSpaceOnUse" x="19" y="34" width="40" height="49">
<path d="M19.4354 82.5806L19.3547 56.7742L57.9838 34.5161L58.0644 60.3226L19.4354 82.5806Z" fill="white"/>
</mask>
<g mask="url(#mask0_236_623)">
<path d="M56.7741 36.5322L20.5645 57.4193L20.6451 80.5645L56.8548 59.5967L56.7741 36.5322Z" fill="white"/>
<path d="M20.6451 80.5645L20.5644 57.4193L56.7741 36.5322L56.8547 59.6774L20.6451 80.5645ZM57.9838 34.5161L19.3547 56.7742L19.4354 82.5806L58.0644 60.3226L57.9838 34.5161Z" fill="#9D9D9C"/>
</g>
<mask id="mask1_236_623" style="mask-type:luminance" maskUnits="userSpaceOnUse" x="21" y="35" width="39" height="49">
<path d="M21.3708 83.7903L21.2902 57.9839L59.8385 35.7258L59.9192 61.5323L21.3708 83.7903Z" fill="white"/>
</mask>
<g mask="url(#mask1_236_623)">
<path d="M58.7096 37.7419L22.4999 58.629V81.7742L58.7902 60.8871L58.7096 37.7419Z" fill="white"/>
<path d="M22.4998 81.7742L22.4192 58.6291L58.6289 37.742L58.7095 60.8871L22.4998 81.7742ZM59.8385 35.7258L21.2902 57.9839L21.3708 83.7903L59.9192 61.5323L59.8385 35.7258Z" fill="#9D9D9C"/>
</g>
<mask id="mask2_236_623" style="mask-type:luminance" maskUnits="userSpaceOnUse" x="23" y="36" width="39" height="49">
<path d="M23.2257 85.0001L23.145 59.1936L61.7741 36.9355L61.8547 62.742L23.2257 85.0001Z" fill="white"/>
</mask>
<g mask="url(#mask2_236_623)">
<path d="M60.5644 38.9517L24.3547 59.9194L24.4354 82.9839L60.6451 62.0968L60.5644 38.9517Z" fill="white"/>
<path d="M24.4353 82.9839L24.3547 59.8388L60.5644 38.9517L60.645 62.0968L24.4353 82.9839ZM61.7741 36.9355L23.145 59.1936L23.2257 85.0001L61.7741 62.742V36.9355Z" fill="#9D9D9C"/>
</g>
<path d="M74.6773 44.2744L36.5322 66.2905C34.5967 67.4195 32.258 69.355 31.2902 70.6453L18.7096 87.5002L63.2257 61.7744L76.0483 44.5969C76.9354 43.4679 76.2902 43.3066 74.6773 44.2744Z" fill="#FF8400" stroke="#FF8400" stroke-width="2.0586" stroke-miterlimit="10" stroke-linecap="round" stroke-linejoin="round"/>
<mask id="mask3_236_623" style="mask-type:luminance" maskUnits="userSpaceOnUse" x="33" y="25" width="19" height="39">
<path d="M33.387 63.7097L33.3064 36.2903L51.6128 25.7258L51.6935 53.1452L33.387 63.7097Z" fill="white"/>
</mask>
<g mask="url(#mask3_236_623)">
<path d="M42.5 48.5483C39.1129 50.4838 36.371 48.9515 36.371 45.0806C36.371 41.2096 39.1129 36.4515 42.5 34.5161C45.8871 32.5806 48.629 34.1128 48.629 37.9838C48.629 41.9354 45.8871 46.6128 42.5 48.5483ZM42.5 31.0483C37.4193 33.9515 33.3871 41.0483 33.3871 46.8548C33.3871 48.9515 33.9516 50.5644 34.8387 51.6128L40.2419 58.3064C40.7258 58.9515 41.6129 59.0322 42.5806 58.4677C43.5484 57.9032 44.4355 56.7741 44.9193 55.6451L50.2419 42.7419C51.129 40.5644 51.6129 38.387 51.6129 36.2903C51.6129 30.4838 47.5 28.1451 42.5 31.0483Z" fill="#96A4EA"/>
<path d="M40.4839 40.887V39.6773L43.1452 37.0967L43.3065 37.016V44.2741L41.9355 45.0805V39.516L40.4839 40.887ZM42.5 34.516C39.1129 36.4515 36.371 41.2096 36.371 45.0805C36.371 48.9515 39.1129 50.5644 42.5 48.5483C45.8871 46.6128 48.629 41.8547 48.629 37.9838C48.629 34.1128 45.8871 32.5805 42.5 34.516Z" fill="white"/>
<path d="M43.2258 37.0161L43.0645 37.0968L40.4839 39.6774V40.8871L41.9355 39.5161V45.0806L43.2258 44.3548V37.0161Z" fill="#96A4EA"/>
</g>
<path d="M68.7097 61.9355L56.2097 69.1936C54.2742 70.3226 52.7419 72.9839 52.7419 75.1613L52.8226 108.065C52.8226 109.597 54.5161 110.565 55.8065 109.758C55.8065 109.758 55.8065 109.758 55.8871 109.758L99.1936 84.7581C100.242 84.1129 101.129 82.6613 101.129 81.4516L101.048 53.871C101.048 52.0162 99.7581 51.2904 98.1452 52.1775L75.1613 65.3226C74.5161 65.6452 74.0323 65.6452 73.7097 65.1613L71.9355 62.2581C71.371 61.2904 70.0807 61.1291 68.7097 61.9355Z" fill="white" stroke="#FF8400" stroke-width="2.0586" stroke-miterlimit="10" stroke-linecap="round" stroke-linejoin="round"/>
<mask id="mask4_236_623" style="mask-type:luminance" maskUnits="userSpaceOnUse" x="57" y="56" width="39" height="49">
<path d="M57.258 104.435L57.1774 78.629L95.8064 56.2903L95.887 82.1774L57.258 104.435Z" fill="white"/>
</mask>
<g mask="url(#mask4_236_623)">
<path d="M94.5968 58.387L58.3871 79.2741L58.4677 102.419L94.6774 81.4515L94.5968 58.387Z" fill="white"/>
<path d="M58.4677 102.419L58.387 79.2742L94.5967 58.3871L94.6774 81.5322L58.4677 102.419ZM95.8064 56.2903L57.1774 78.629L57.258 104.435L95.8064 82.1774V56.2903Z" fill="#9D9D9C"/>
</g>
<mask id="mask5_236_623" style="mask-type:luminance" maskUnits="userSpaceOnUse" x="59" y="57" width="39" height="49">
<path d="M59.1934 105.645L59.1128 79.8386L97.6612 57.5806L97.7418 83.387L59.1934 105.645Z" fill="white"/>
</mask>
<g mask="url(#mask5_236_623)">
<path d="M96.5322 59.5967L60.3225 80.4838L60.4032 103.629L96.6128 82.7418L96.5322 59.5967Z" fill="white"/>
<path d="M60.4031 103.629L60.3225 80.4838L96.5321 59.5967L96.6128 82.7419L60.4031 103.629ZM97.6612 57.5806L59.1128 79.8386L59.1934 105.645L97.7418 83.387L97.6612 57.5806Z" fill="#9D9D9C"/>
</g>
<mask id="mask6_236_623" style="mask-type:luminance" maskUnits="userSpaceOnUse" x="61" y="58" width="39" height="49">
<path d="M61.129 106.855L61.0483 81.0483L99.5967 58.7903L99.6774 84.5967L61.129 106.855Z" fill="white"/>
</mask>
<g mask="url(#mask6_236_623)">
<path d="M98.4677 60.8064L62.1774 81.7741L62.258 104.839L98.4677 83.9516V60.8064Z" fill="white"/>
<path d="M62.258 104.839L62.1774 81.6935L98.3871 60.8064L98.4677 83.9516L62.258 104.839ZM99.5967 58.7903L61.0483 81.0483L61.129 106.855L99.6774 84.5967L99.5967 58.7903Z" fill="#9D9D9C"/>
</g>
<path d="M112.5 66.1291L74.3548 88.1452C72.4193 89.2743 70.0806 91.2097 69.1129 92.5001L56.5322 109.355L101.048 83.6291L113.871 66.4517C114.758 65.3226 114.113 65.1613 112.5 66.1291Z" fill="#FF8400" stroke="#FF8400" stroke-width="2.0586" stroke-miterlimit="10" stroke-linecap="round" stroke-linejoin="round"/>
<mask id="mask7_236_623" style="mask-type:luminance" maskUnits="userSpaceOnUse" x="71" y="47" width="19" height="39">
<path d="M71.2097 85.5644L71.129 58.1451L89.4355 47.5806L89.5161 74.9999L71.2097 85.5644Z" fill="white"/>
</mask>
<g mask="url(#mask7_236_623)">
<path d="M80.3226 70.4031C76.9355 72.3385 74.1936 70.8063 74.1936 66.9353C74.1936 63.0643 76.9355 58.3063 80.3226 56.3708C83.7097 54.4353 86.4516 55.9676 86.4516 59.8385C86.4516 63.7095 83.7097 68.4676 80.3226 70.4031ZM80.3226 52.9031C75.242 55.8063 71.2097 62.9031 71.2097 68.7095C71.2097 70.8063 71.7742 72.4192 72.6613 73.4676L78.0646 80.1611C78.5484 80.8063 79.4355 80.8869 80.4033 80.3224C81.371 79.7579 82.2581 78.6289 82.742 77.4998L88.0646 64.5966C88.9516 62.4998 89.4355 60.2418 89.4355 58.145C89.4355 52.3385 85.4033 49.9998 80.3226 52.9031Z" fill="#96A4EA"/>
<path d="M77.9033 62.9837C77.9033 62.4998 77.9839 62.0966 78.1452 61.6127C78.3065 61.1288 78.5484 60.7256 78.9517 60.3224C79.2743 59.9192 79.6775 59.5966 80.0807 59.3546C80.7259 58.9514 81.2097 58.8708 81.613 59.0321C82.0162 59.1933 82.1775 59.5966 82.1775 60.2417C82.1775 60.5643 82.0968 61.0482 81.9355 61.4514C81.7742 61.9353 81.5323 62.4998 81.1291 63.2256L79.6775 65.8062L82.4194 64.274V65.403L78.0646 67.903V66.9353L80.0807 63.2256C80.3226 62.7417 80.5646 62.2579 80.7259 61.9353C80.8872 61.6127 80.9678 61.2901 80.9678 61.0482C80.9678 60.7256 80.8872 60.4837 80.7259 60.403C80.5646 60.3224 80.4033 60.3224 80.0807 60.4837C79.7581 60.645 79.5968 60.8869 79.4355 61.2095C79.2742 61.5321 79.1936 61.8546 79.1936 62.2579L77.9033 62.9837ZM80.3226 56.3708C76.9355 58.3062 74.1936 63.0643 74.1936 66.9353C74.1936 70.8062 76.9355 72.4192 80.3226 70.403C83.7097 68.4675 86.4517 63.7095 86.4517 59.8385C86.4517 55.9675 83.7097 54.4353 80.3226 56.3708Z" fill="white"/>
<path d="M80.0807 59.3546C79.6775 59.5965 79.2743 59.9191 78.9517 60.3223C78.6291 60.7255 78.3872 61.1288 78.1453 61.6126C77.984 62.0965 77.9033 62.5804 77.9033 62.9836L79.1936 62.2578C79.1936 61.8546 79.2743 61.532 79.4356 61.2094C79.5969 60.8868 79.8388 60.6449 80.0807 60.4836C80.3227 60.3223 80.5646 60.3223 80.7259 60.403C80.8872 60.4836 80.9678 60.7255 80.9678 61.0481C80.9678 61.29 80.8872 61.6126 80.7259 61.9352C80.5646 62.2578 80.4033 62.7417 80.0807 63.2255L77.984 66.9352V67.903L82.3388 65.403V64.2739L79.5969 65.8062L81.0485 63.2255C81.4517 62.4997 81.6936 61.9352 81.8549 61.4513C82.0162 60.9675 82.0969 60.5642 82.0969 60.2417C82.0969 59.5965 81.9356 59.1933 81.5324 59.032C81.2098 58.8707 80.7259 58.9513 80.0807 59.3546Z" fill="#96A4EA"/>
</g>
<path d="M106.613 83.7905L94.1129 91.0486C92.1774 92.1776 90.6451 94.8389 90.6451 97.0163L90.7258 129.92C90.7258 131.452 92.4193 132.42 93.7097 131.613C93.7097 131.613 93.7097 131.613 93.7903 131.613L137.097 106.613C138.145 105.968 139.032 104.516 139.032 103.307L138.952 75.726C138.952 73.8711 137.661 73.1453 136.048 74.0324L113.145 87.2582C112.5 87.5808 112.016 87.5808 111.694 87.0969L109.919 84.1937C109.194 83.1453 107.984 82.984 106.613 83.7905Z" fill="white" stroke="#FF8400" stroke-width="2.0586" stroke-miterlimit="10" stroke-linecap="round" stroke-linejoin="round"/>
<mask id="mask8_236_623" style="mask-type:luminance" maskUnits="userSpaceOnUse" x="95" y="78" width="39" height="49">
<path d="M95.1613 126.29L95.0807 100.484L133.629 78.1453L133.71 103.952L95.1613 126.29Z" fill="white"/>
</mask>
<g mask="url(#mask8_236_623)">
<path d="M132.419 80.2419L96.2097 101.129L96.2904 124.194L132.5 103.306L132.419 80.2419Z" fill="white"/>
<path d="M96.2904 124.194L96.2097 101.048L132.419 80.1614L132.5 103.307L96.2904 124.194ZM133.629 78.1453L95.0807 100.403L95.1613 126.21L133.71 103.952L133.629 78.1453Z" fill="#9D9D9C"/>
</g>
<mask id="mask9_236_623" style="mask-type:luminance" maskUnits="userSpaceOnUse" x="96" y="79" width="40" height="49">
<path d="M97.0162 127.5L96.9355 101.694L135.565 79.4355L135.645 105.242L97.0162 127.5Z" fill="white"/>
</mask>
<g mask="url(#mask9_236_623)">
<path d="M134.355 81.4517L98.1453 102.339L98.2259 125.484L134.436 104.516L134.355 81.4517Z" fill="white"/>
<path d="M98.2259 125.484L98.1453 102.339L134.355 81.4517L134.436 104.597L98.2259 125.484ZM135.565 79.4355L97.0162 101.694L97.0969 127.5L135.645 105.242L135.565 79.4355Z" fill="#9D9D9C"/>
</g>
<mask id="mask10_236_623" style="mask-type:luminance" maskUnits="userSpaceOnUse" x="98" y="80" width="40" height="49">
<path d="M98.9516 128.71L98.871 102.903L137.419 80.6453L137.5 106.452L98.9516 128.71Z" fill="white"/>
</mask>
<g mask="url(#mask10_236_623)">
<path d="M136.29 82.6614L100.081 103.548V126.694L136.371 105.807L136.29 82.6614Z" fill="white"/>
<path d="M100.081 126.694L100 103.548L136.21 82.6614L136.29 105.807L100.081 126.694ZM137.419 80.6453L98.871 102.903L98.9516 128.71L137.5 106.452L137.419 80.6453Z" fill="#9D9D9C"/>
</g>
<path d="M150.323 87.9841L112.177 110C110.242 111.129 107.903 113.065 106.936 114.355L94.3549 131.21L138.871 105.484L151.694 88.3067C152.581 87.1776 151.935 87.0163 150.323 87.9841Z" fill="#FF8400" stroke="#FF8400" stroke-width="2.0586" stroke-miterlimit="10" stroke-linecap="round" stroke-linejoin="round"/>
<mask id="mask11_236_623" style="mask-type:luminance" maskUnits="userSpaceOnUse" x="109" y="69" width="19" height="39">
<path d="M109.113 107.419L109.032 80.0001L127.258 69.4355L127.339 96.8549L109.113 107.419Z" fill="white"/>
</mask>
<g mask="url(#mask11_236_623)">
<path d="M118.226 92.258C114.839 94.1935 112.097 92.6613 112.097 88.7903C112.097 84.9193 114.839 80.1613 118.226 78.2258C121.613 76.2903 124.355 77.8226 124.355 81.6935C124.274 85.5645 121.613 90.3226 118.226 92.258ZM118.145 74.758C113.064 77.6613 109.032 84.758 109.032 90.5645C109.032 92.6613 109.597 94.2742 110.484 95.3226L115.887 102.016C116.371 102.661 117.258 102.742 118.226 102.177C119.194 101.613 120.081 100.484 120.564 99.3548L125.887 86.4516C126.774 84.3548 127.258 82.0967 127.258 80C127.339 74.1935 123.226 71.8548 118.145 74.758Z" fill="#96A4EA"/>
<path d="M115.726 84.4354C115.726 84.0322 115.806 83.629 115.968 83.2257C116.129 82.8225 116.371 82.4193 116.694 82.0967C117.016 81.7741 117.339 81.4515 117.742 81.2096C118.387 80.8064 118.952 80.7257 119.355 80.887C119.758 81.0483 119.919 81.4516 119.919 82.0967C119.919 82.4193 119.839 82.8225 119.677 83.1451C119.516 83.5483 119.274 83.8709 118.952 84.1935C119.274 84.1128 119.597 84.1935 119.758 84.3548C119.919 84.5161 120 84.8386 120 85.2419C120 85.887 119.758 86.5322 119.355 87.1774C118.952 87.8225 118.387 88.3064 117.742 88.7096C117.097 89.1128 116.613 89.1935 116.21 89.0322C115.806 88.8709 115.565 88.4677 115.565 87.8225L116.855 87.0967C116.855 87.3386 116.935 87.5806 117.097 87.5806C117.258 87.6612 117.5 87.5806 117.742 87.4999C118.065 87.3386 118.306 87.0967 118.468 86.8548C118.629 86.6128 118.71 86.2903 118.71 85.9677C118.71 85.2419 118.387 85.0806 117.661 85.4838L117.016 85.887V84.758L117.661 84.3548C117.984 84.1935 118.226 83.9516 118.387 83.7096C118.548 83.4677 118.629 83.1451 118.629 82.8225C118.629 82.4999 118.548 82.3386 118.387 82.258C118.226 82.1774 117.984 82.258 117.742 82.3386C117.5 82.4999 117.339 82.6612 117.097 82.9032C116.935 83.1451 116.855 83.387 116.855 83.629L115.726 84.4354ZM118.145 78.2257C114.758 80.1612 112.016 84.9193 112.016 88.7903C112.016 92.6612 114.758 94.1935 118.145 92.258C121.532 90.3225 124.274 85.5645 124.274 81.6935C124.274 77.8225 121.532 76.2903 118.145 78.2257Z" fill="white"/>
<path d="M117.823 81.2097C117.419 81.4517 117.097 81.6936 116.774 82.0968C116.452 82.4194 116.21 82.8226 116.048 83.2259C115.887 83.6291 115.806 84.0323 115.806 84.4355L117.097 83.7097C117.097 83.4678 117.177 83.2259 117.339 82.9839C117.5 82.742 117.742 82.5807 117.984 82.4194C118.226 82.2581 118.468 82.2581 118.629 82.3388C118.79 82.4194 118.871 82.5807 118.871 82.9033C118.871 83.2259 118.79 83.4678 118.629 83.7904C118.468 84.0323 118.226 84.2743 117.903 84.4355L117.258 84.8388V85.9678L117.903 85.5646C118.629 85.1614 118.952 85.3226 118.952 86.0484C118.952 86.371 118.871 86.613 118.71 86.9356C118.548 87.1775 118.306 87.4194 117.984 87.5807C117.742 87.742 117.5 87.742 117.339 87.6614C117.177 87.5807 117.097 87.4194 117.097 87.1775L115.806 87.9033C115.806 88.5485 116.048 88.9517 116.452 89.113C116.855 89.2743 117.339 89.1936 117.984 88.7904C118.629 88.3872 119.193 87.9033 119.597 87.2581C120 86.613 120.242 85.9678 120.242 85.3226C120.242 84.9194 120.161 84.5968 120 84.4355C119.839 84.2743 119.516 84.1936 119.193 84.2743C119.516 83.9517 119.677 83.6291 119.919 83.2259C120.081 82.8226 120.161 82.5001 120.161 82.1775C120.161 81.5323 120 81.1291 119.597 80.9678C119.032 80.7259 118.468 80.8872 117.823 81.2097Z" fill="#96A4EA"/>
</g>
</svg>
