<svg width="160" height="160" viewBox="0 0 160 160" fill="none" xmlns="http://www.w3.org/2000/svg">
<path opacity="0.19" d="M80 151.855C119.684 151.855 151.855 119.684 151.855 80.0001C151.855 40.3158 119.684 8.14526 80 8.14526C40.3157 8.14526 8.14514 40.3158 8.14514 80.0001C8.14514 119.684 40.3157 151.855 80 151.855Z" fill="#FF8400"/>
<path d="M140 103.887L47.2579 115.984V118.161L140 106.145V103.887Z" fill="#96A4EA"/>
<path d="M139.758 106.548L83.9515 138.806C83.5482 139.048 82.9837 139.048 82.6611 138.806L47.5805 118.564C47.1773 118.323 47.1773 118 47.5805 117.839L103.387 85.5806C103.79 85.3387 104.355 85.3387 104.677 85.5806L139.758 105.823C140.08 105.984 140.08 106.306 139.758 106.548Z" fill="#96A4EA"/>
<path d="M139.758 104.29L83.9515 136.548C83.5482 136.79 82.9837 136.79 82.6611 136.548L47.5805 116.306C47.1773 116.064 47.1773 115.742 47.5805 115.581L103.387 83.3226C103.79 83.0806 104.355 83.0806 104.677 83.3226L139.758 103.564C140.08 103.806 140.08 104.129 139.758 104.29Z" fill="white" stroke="#96A4EA" stroke-width="1.0906" stroke-miterlimit="10"/>
<path d="M56.6128 113.564L53.2257 115.581L56.5322 117.435L59.9193 115.5L56.6128 113.564Z" fill="#FF8400"/>
<path d="M60.5645 111.387L57.1774 113.322L60.4032 115.177L63.7903 113.242L60.5645 111.387Z" fill="#FF8400"/>
<path d="M64.2741 112.919L67.6612 110.984L64.4354 109.129L61.0483 111.064L64.2741 112.919Z" fill="#FF8400"/>
<path d="M68.3064 106.871L64.9193 108.806L68.2258 110.742L71.6129 108.726L68.3064 106.871Z" fill="#FF8400"/>
<path d="M72.1774 104.613L68.7903 106.548L72.0967 108.484L75.4838 106.468L72.1774 104.613Z" fill="#FF8400"/>
<path d="M76.1289 102.355L72.7418 104.29L75.9676 106.226L79.3547 104.29L76.1289 102.355Z" fill="#FF8400"/>
<path d="M79.9999 100.097L76.6128 102.113L79.8386 103.968L83.3063 102.032L79.9999 100.097Z" fill="#FF8400"/>
<path d="M83.8709 97.8386L80.4838 99.8548L83.7902 101.71L87.1773 99.7741L83.8709 97.8386Z" fill="#FF8400"/>
<path d="M87.6612 99.4515L91.0483 97.516L87.8225 95.5806L84.3547 97.5967L87.6612 99.4515Z" fill="#FF8400"/>
<path d="M91.5322 97.1934L94.9193 95.2579L91.6935 93.4031L88.3064 95.3386L91.5322 97.1934Z" fill="#FF8400"/>
<path d="M95.4838 94.9353L98.8709 92.9999L95.5645 91.145L92.1774 93.0805L95.4838 94.9353Z" fill="#FF8400"/>
<path d="M96.0483 90.8225L99.3548 92.7579L106.613 88.4837L103.387 86.6289L96.0483 90.8225Z" fill="#FF8400"/>
<path d="M60.4031 115.742L57.016 117.758L60.3224 119.613L63.7095 117.677L60.4031 115.742Z" fill="#FF8400"/>
<path d="M64.2741 113.564L60.887 115.5L64.1934 117.355L67.5805 115.419L64.2741 113.564Z" fill="#FF8400"/>
<path d="M68.0644 115.097L71.4515 113.161L68.2257 111.306L64.8386 113.242L68.0644 115.097Z" fill="#FF8400"/>
<path d="M72.0967 109.048L68.7096 110.984L71.9354 112.919L75.4031 110.903L72.0967 109.048Z" fill="#FF8400"/>
<path d="M75.9677 106.79L72.5806 108.726L75.887 110.661L79.2741 108.645L75.9677 106.79Z" fill="#FF8400"/>
<path d="M79.8386 104.532L76.4515 106.468L79.758 108.403L83.1451 106.468L79.8386 104.532Z" fill="#FF8400"/>
<path d="M83.7902 102.274L80.4031 104.29L83.6289 106.145L87.016 104.21L83.7902 102.274Z" fill="#FF8400"/>
<path d="M87.6611 100.016L84.274 102.032L87.5805 103.887L90.9676 101.952L87.6611 100.016Z" fill="#FF8400"/>
<path d="M91.4515 101.629L94.8386 99.6935L91.5321 97.7581L88.145 99.7742L91.4515 101.629Z" fill="#FF8400"/>
<path d="M95.3224 99.3709L98.7095 97.4354L95.4837 95.5806L92.016 97.516L95.3224 99.3709Z" fill="#FF8400"/>
<path d="M99.1935 97.1128L102.581 95.1774L99.3547 93.3225L95.9677 95.258L99.1935 97.1128Z" fill="#FF8400"/>
<path d="M103.226 91.0645L99.8386 92.9999L103.145 94.9354L106.532 92.9193L103.226 91.0645Z" fill="#FF8400"/>
<path d="M107.016 92.6774L110.403 90.6612L107.097 88.8064L103.71 90.7419L107.016 92.6774Z" fill="#FF8400"/>
<path d="M64.1935 117.919L60.8064 119.935L64.0322 121.79L67.4193 119.855L64.1935 117.919Z" fill="#FF8400"/>
<path d="M68.0645 115.742L64.6774 117.677L67.9838 119.532L71.3709 117.597L68.0645 115.742Z" fill="#FF8400"/>
<path d="M71.8548 117.274L75.2419 115.338L71.9354 113.484L68.5483 115.419L71.8548 117.274Z" fill="#FF8400"/>
<path d="M75.887 111.226L72.4999 113.161L75.7257 115.097L79.1128 113.08L75.887 111.226Z" fill="#FF8400"/>
<path d="M79.758 108.968L76.3708 110.903L79.5967 112.838L83.0644 110.822L79.758 108.968Z" fill="#FF8400"/>
<path d="M83.6289 106.709L80.2418 108.645L83.5483 110.58L86.9354 108.564L83.6289 106.709Z" fill="#FF8400"/>
<path d="M87.5805 104.451L84.1128 106.468L87.4192 108.322L90.8063 106.387L87.5805 104.451Z" fill="#FF8400"/>
<path d="M91.4516 102.193L88.0645 104.209L91.2903 106.064L94.6774 104.129L91.4516 102.193Z" fill="#FF8400"/>
<path d="M95.2419 103.806L98.629 101.871L95.3225 99.9353L91.9354 101.951L95.2419 103.806Z" fill="#FF8400"/>
<path d="M99.1128 101.548L102.5 99.6129L99.1935 97.7581L95.8064 99.6935L99.1128 101.548Z" fill="#FF8400"/>
<path d="M102.984 99.2901L106.371 97.3546L103.145 95.4998L99.6774 97.4352L102.984 99.2901Z" fill="#FF8400"/>
<path d="M107.016 93.2417L103.629 95.1772L106.855 97.1127L110.242 95.0965L107.016 93.2417Z" fill="#FF8400"/>
<path d="M111.29 95.0965L107.419 97.3546L110.726 99.2095C114.274 97.1933 117.984 95.0159 117.984 95.0159C117.984 95.0159 117.581 94.774 110.968 90.9836L107.581 92.9191L111.29 95.0965Z" fill="#FF8400"/>
<path d="M71.8547 117.919L64.516 122.113L67.8224 123.968L75.0805 119.774L71.8547 117.919Z" fill="#FF8400"/>
<path d="M75.6451 119.451L79.0322 117.516L75.7257 115.661L72.3386 117.597L75.6451 119.451Z" fill="#FF8400"/>
<path d="M79.5967 113.403L76.2096 115.339L79.516 117.274L82.9031 115.258L79.5967 113.403Z" fill="#FF8400"/>
<path d="M83.5482 111.145L80.1611 113.081L83.3869 115.016L86.774 113L83.5482 111.145Z" fill="#FF8400"/>
<path d="M87.4192 108.887L84.0321 110.822L87.2579 112.758L90.7257 110.742L87.4192 108.887Z" fill="#FF8400"/>
<path d="M91.2902 106.629L87.9031 108.564L91.2095 110.5L94.5966 108.564L91.2902 106.629Z" fill="#FF8400"/>
<path d="M95.2418 104.371L91.774 106.387L95.0805 108.242L98.4676 106.306L95.2418 104.371Z" fill="#FF8400"/>
<path d="M98.9515 105.984L102.339 104.048L99.1128 102.113L95.7257 104.129L98.9515 105.984Z" fill="#FF8400"/>
<path d="M102.903 103.726L106.29 101.79L102.984 99.9353L99.5967 101.871L102.903 103.726Z" fill="#FF8400"/>
<path d="M106.774 101.468L110.161 99.5321L106.855 97.6772L103.468 99.6127L106.774 101.468Z" fill="#FF8400"/>
<path d="M76.7741 123.161L78.8709 121.952L75.6451 120.097L68.3064 124.29L71.6129 126.145L75.4838 123.887L76.7741 123.161Z" fill="#FF8400"/>
<path d="M79.3547 121.629L82.7418 119.693L79.516 117.839L76.1289 119.774L79.3547 121.629Z" fill="#FF8400"/>
<path d="M83.387 115.581L79.9999 117.516L83.3063 119.452L86.6934 117.435L83.387 115.581Z" fill="#FF8400"/>
<path d="M87.2579 113.323L83.8708 115.258L87.1773 117.193L90.5644 115.177L87.2579 113.323Z" fill="#FF8400"/>
<path d="M91.2096 111.064L87.8225 113L91.0483 114.935L94.4354 112.919L91.2096 111.064Z" fill="#FF8400"/>
<path d="M95.0806 108.806L91.6935 110.742L94.9193 112.677L98.387 110.742L95.0806 108.806Z" fill="#FF8400"/>
<path d="M98.9515 106.548L95.5645 108.564L98.8709 110.419L102.258 108.484L98.9515 106.548Z" fill="#FF8400"/>
<path d="M102.742 108.161L106.129 106.226L102.903 104.29L99.4354 106.306L102.742 108.161Z" fill="#FF8400"/>
<path d="M106.613 105.903L110 103.968L106.774 102.113L103.387 104.048L106.613 105.903Z" fill="#FF8400"/>
<path d="M110.564 103.645L113.951 101.71L110.645 99.8547L107.258 101.79L110.564 103.645Z" fill="#FF8400"/>
<path d="M114.435 101.468L121.693 97.1935L118.468 95.3386L111.129 99.5322L114.435 101.468Z" fill="#FF8400"/>
<path d="M75.4031 128.322L78.7902 126.387L75.4838 124.451L72.0967 126.468L75.4031 128.322Z" fill="#FF8400"/>
<path d="M79.8386 121.952L75.9677 124.21L79.2741 126.065L83.1451 123.806L84.3547 123.081L86.5322 121.871L83.3064 120.016L81.1289 121.226L79.8386 121.952Z" fill="#FF8400"/>
<path d="M87.016 121.629C91.8548 118.806 99.1935 114.613 109.919 108.403L106.613 106.548C95.8064 112.758 88.5483 116.952 83.7096 119.774L87.016 121.629Z" fill="#FF8400"/>
<path d="M110.403 108.081L113.79 106.145L110.564 104.29L107.097 106.226L110.403 108.081Z" fill="#FF8400"/>
<path d="M114.274 105.823L117.661 103.887L114.435 102.032L111.048 103.968L114.274 105.823Z" fill="#FF8400"/>
<path d="M118.226 103.645L121.613 101.629L118.306 99.7742L114.919 101.71L118.226 103.645Z" fill="#FF8400"/>
<path d="M122.097 101.387L125.484 99.371L122.177 97.5161L118.79 99.4516L122.097 101.387Z" fill="#FF8400"/>
<path d="M112.984 114.048L109.032 111.79C108.629 111.548 108.064 111.548 107.742 111.79L96.8547 118.081C96.4514 118.323 96.4514 118.645 96.8547 118.806L100.806 121.065L112.984 114.048Z" fill="#FF8400"/>
<path d="M101.129 121.306L102.661 122.193C103.064 122.435 103.629 122.435 103.951 122.193L109.193 119.129L107.016 117.839L101.129 121.306Z" fill="#FF8400"/>
<path d="M107.419 117.677L109.597 118.968L114.839 115.903C115.242 115.661 115.242 115.339 114.839 115.177L113.306 114.29L107.419 117.677Z" fill="#FF8400"/>
<path d="M91.6128 36.7903L90.887 36.5483C90.7257 36.5483 90.4838 36.5483 90.4031 36.629L33.9515 69.2903C33.6289 69.4516 33.4677 70.0161 33.6289 70.6612L44.9193 114.129C45.1612 115.177 46.6128 116.064 47.4999 115.742L47.8225 115.581L39.1128 78.7258L92.8225 47.6774L92.1773 43.887L101.855 81.1451C102.097 82.0322 102.823 82.8387 103.468 82.9193L103.79 82.3548L91.6128 36.7903Z" fill="#96A4EA"/>
<path d="M92.0967 37.3547L103.79 82.3547C103.871 82.7579 103.71 83.1611 103.387 83.3224L47.4193 115.661C47.1774 115.822 46.9354 115.661 46.8548 115.419L35.0806 69.9353C34.9999 69.5321 35.1612 69.0482 35.5645 68.8869L90.887 36.8708C91.3709 36.5482 91.9354 36.8708 92.0967 37.3547Z" fill="white" stroke="#96A4EA" stroke-width="1.0906" stroke-miterlimit="10"/>
<path d="M101.29 81.871L48.4676 112.435L48.3063 111.871L37.4999 70.3387L89.9192 40.0968L90.3225 39.7742L101.29 81.871Z" fill="white"/>
<path d="M100.726 81.5483L48.3063 111.871L37.4999 70.3386L89.9192 40.0967L100.726 81.5483Z" fill="#3C3C3B"/>
<path d="M88.3064 54.3708L47.3386 77.9192L47.0967 76.9515L88.0644 53.4031L88.3064 54.3708Z" fill="#96A4EA"/>
<path d="M75.2418 64.5322L47.9031 80.258L47.6611 79.2096L74.9998 63.5645L75.2418 64.5322Z" fill="#96A4EA"/>
<path d="M79.4354 64.6933L48.4676 82.5159L48.2257 81.5482L79.1934 63.7256L79.4354 64.6933Z" fill="#96A4EA"/>
<path d="M90.0806 61.2256L49.0322 84.7739L48.7903 83.8062L89.8387 60.2578L90.0806 61.2256Z" fill="#96A4EA"/>
<path d="M77.1773 71.3064L49.5967 87.1128L49.3547 86.1451L76.9354 70.3386L77.1773 71.3064Z" fill="#96A4EA"/>
<path d="M91.7741 68.0805L50.8064 91.7096L50.5645 90.7418L91.5322 67.1128L91.7741 68.0805Z" fill="#96A4EA"/>
<path d="M85.8063 74.2095L51.3708 93.9676L51.1289 92.9998L85.5644 73.1611L85.8063 74.2095Z" fill="#96A4EA"/>
<path d="M84.3548 77.6772L51.9354 96.3062L51.6935 95.3385L84.1128 76.7095L84.3548 77.6772Z" fill="#96A4EA"/>
<path d="M89.3547 77.4353L52.4999 98.5643L52.2579 97.5966L89.1128 76.4675L89.3547 77.4353Z" fill="#96A4EA"/>
<mask id="mask0_236_797" style="mask-type:luminance" maskUnits="userSpaceOnUse" x="89" y="36" width="38" height="55">
<path d="M98.1452 90.0968L89.1129 53.5646L117.903 36.9517L126.935 73.4839L98.1452 90.0968Z" fill="white"/>
</mask>
<g mask="url(#mask0_236_797)">
<path opacity="0.8" d="M112.016 56.7903L102.016 62.5161L102.903 64.8549L107.903 61.9516L103.79 67.2742L104.516 69.6936L111.371 65.742L112.016 68.9678L109.919 71.2258L107.5 71.7097L106.936 69.8549L105 70.9839L106.21 74.6129L110.565 73.8065L114.274 70.0161L112.903 61.9516L108.307 64.6129L112.5 59.2903L112.016 56.7903ZM113.952 50.9032L117.581 72.2742L111.694 78.1613L104.677 79.6936L98.1452 59.9355L106.048 55.4194L113.952 50.9032ZM100.887 56.3871L100.726 55.6613L100.565 55.0161L100.323 53.8871L100 52.5968L101.048 52.0323L102.419 51.2258L102.742 52.5161L101.371 53.3226L101.613 54.4516L102.984 53.6452L103.307 54.9355L100.887 56.3871ZM104.436 54.371L104.113 53.0807L105 52.5968L103.871 51.9516L103.548 50.6613L105.968 49.2903L106.29 50.5807L105.403 51.0645L106.532 51.7097L106.855 53L104.436 54.371ZM107.903 52.3549L107.581 51.0645L108.468 50.5807L107.339 49.9355L107.016 48.6452L109.436 47.2742L109.758 48.5645L108.871 49.0484L110 49.6936L110.323 50.9839L107.903 52.3549ZM115.807 38.1613L91.1291 52.3549C90.0001 53 89.3549 54.6936 89.7581 56.0645L97.5001 87.4355C97.8226 88.8871 99.0323 89.4516 100.161 88.8065L124.839 74.5323C125.968 73.8871 126.613 72.1936 126.21 70.8226L118.468 39.4516C118.145 38.1613 116.936 37.5161 115.807 38.1613Z" fill="#379AD6"/>
<path d="M105.887 49.2903L103.468 50.6612L103.79 51.9516L104.919 52.5967L104.113 53.0806L104.436 54.3709L106.855 53L106.532 51.7096L105.403 51.0645L106.21 50.5806L105.887 49.2903Z" fill="white"/>
<path d="M102.419 51.3064L101.049 52.0322L100 52.6774L100.323 53.9677L100.565 55.0967L100.726 55.7419L100.887 56.387L103.307 55.0161L102.984 53.7258L101.613 54.5322L101.371 53.4032L102.742 52.5967L102.419 51.3064Z" fill="white"/>
<path d="M109.355 47.2742L107.016 48.6451L107.339 49.9355L108.468 50.5806L107.581 51.0645L107.903 52.3548L110.323 50.9838L110 49.6935L108.871 49.0484L109.678 48.5645L109.355 47.2742Z" fill="white"/>
<path d="M102.984 64.8549L102.097 62.5162L112.097 56.7904L112.581 59.4517L108.387 64.7743L112.984 62.113L114.355 70.1775L110.645 73.9678L106.29 74.7743L105.081 71.1453L107.016 70.0162L107.581 71.8711L110 71.3872L112.097 69.1291L111.452 65.9033L104.597 69.8549L103.871 67.4356L107.984 62.113L102.984 64.8549ZM113.952 50.9033L106.048 55.4194L98.1453 59.9356L104.678 79.6936L111.694 78.1614L117.581 72.2743L113.952 50.9033Z" fill="white"/>
</g>
<mask id="mask1_236_797" style="mask-type:luminance" maskUnits="userSpaceOnUse" x="28" y="87" width="35" height="49">
<path d="M36.6935 135.177L28.629 102.435L54.3548 87.5161L62.4194 120.258L36.6935 135.177Z" fill="white"/>
</mask>
<g mask="url(#mask1_236_797)">
<path opacity="0.8" d="M47.9032 115.822C47.5 116.064 47.1774 116.306 46.7742 116.548C46.371 116.79 45.9677 116.952 45.6451 117.193C46.2097 117.597 46.6935 118 47.258 118.323C47.5 117.435 47.7419 116.629 47.9032 115.822ZM51.5322 113C50.8064 113.726 49.9193 114.371 49.0322 115.016C48.7097 116.306 48.3871 117.516 47.9839 118.645C48.3064 118.806 48.7097 118.968 49.0322 119.129C50.2419 119.613 51.2903 119.613 51.9355 119.21C52.1774 119.048 52.3387 118.887 52.5 118.726C53.1451 117.677 52.7419 115.5 51.5322 113ZM41.6935 118.645C41.6935 119.129 41.7742 119.613 41.7742 120.097C42.0161 122.355 42.6613 123.726 43.3871 123.887C43.5484 123.887 43.7903 123.887 44.0322 123.726C44.6774 123.322 45.4032 122.274 46.2097 120.742C46.3709 120.339 46.6129 119.855 46.7742 119.371C45.9677 118.887 45.2419 118.323 44.4355 117.677C43.5484 118.081 42.5806 118.403 41.6935 118.645ZM41.7742 115.016C41.6935 115.903 41.6935 116.71 41.6935 117.516C42.258 117.355 42.9032 117.113 43.5484 116.871C43.2258 116.548 42.9032 116.306 42.6613 115.984C42.3387 115.661 42.0968 115.339 41.7742 115.016ZM49.9193 110.339C49.8387 110.903 49.758 111.387 49.6774 111.952C49.5968 112.516 49.5161 113 49.3548 113.564C49.9193 113.081 50.4839 112.597 51.0484 112.113C50.7258 111.468 50.3226 110.903 49.9193 110.339ZM39.2742 111.387C37.258 113.484 36.2903 115.419 36.5322 116.548C36.7742 117.677 38.4677 118.161 40.8064 117.677C40.8064 116.548 40.8871 115.258 40.9677 113.968C40.3226 113.161 39.758 112.274 39.2742 111.387ZM50.2419 105.016C50.2419 106.145 50.1613 107.435 50.0806 108.726C50.7258 109.613 51.2903 110.5 51.8548 111.306C53.871 109.21 54.8387 107.274 54.5968 106.145C54.2742 105.016 52.6613 104.532 50.2419 105.016ZM41.6935 109.21C41.0484 109.693 40.5645 110.177 40 110.661C40.3226 111.226 40.7258 111.871 41.129 112.435C41.2097 111.871 41.2903 111.387 41.3709 110.822C41.4516 110.258 41.5322 109.774 41.6935 109.21ZM47.5 105.903C47.8226 106.226 48.1451 106.468 48.3871 106.79C48.7097 107.113 48.9516 107.435 49.2742 107.758C49.3548 106.871 49.3548 106.064 49.3548 105.258C48.7097 105.419 48.1451 105.581 47.5 105.903ZM46.0484 113.564C45.0806 114.129 44.0322 113.564 43.7097 112.355C43.3871 111.145 43.9516 109.693 44.9193 109.129C45.8871 108.564 46.9355 109.129 47.258 110.339C47.5806 111.548 47.0161 113 46.0484 113.564ZM44.5161 107.274C43.8709 107.597 43.3064 108 42.7419 108.403C42.5806 109.21 42.4193 110.016 42.258 110.903C42.0968 111.79 42.0161 112.597 41.9355 113.403C42.3387 113.968 42.8226 114.452 43.3064 114.935C43.7903 115.419 44.2742 115.903 44.758 116.306C45.3226 116.064 45.9677 115.742 46.5322 115.339C47.1774 115.016 47.7419 114.613 48.3064 114.21C48.4677 113.403 48.629 112.597 48.7903 111.71C48.9516 110.823 49.0322 110.016 49.1129 109.21C48.7097 108.726 48.2258 108.161 47.7419 107.677C47.258 107.193 46.7742 106.71 46.2903 106.306C45.7258 106.629 45.1613 106.952 44.5161 107.274ZM43.7903 104.532C43.5484 105.258 43.3064 106.064 43.0645 106.952C43.4677 106.71 43.7903 106.468 44.1935 106.226C44.5968 105.984 45 105.822 45.3226 105.581C44.8387 105.177 44.3548 104.774 43.7903 104.532ZM39.1129 103.484C38.8709 103.645 38.7097 103.806 38.5484 103.968C37.9839 104.855 38.1451 106.468 38.9516 108.403C39.1129 108.806 39.2742 109.21 39.5161 109.613C40.2419 108.887 41.129 108.242 42.0161 107.597C42.3387 106.306 42.6613 105.097 43.0645 103.968C42.7419 103.806 42.3387 103.645 42.0161 103.484C40.7258 103.161 39.758 103.161 39.1129 103.484ZM46.9355 98.9677C46.2903 99.3709 45.5645 100.419 44.758 101.952C44.5968 102.355 44.3548 102.839 44.1935 103.323C44.9193 103.806 45.7258 104.371 46.5322 105.016C47.5 104.613 48.3871 104.29 49.2742 104.048C49.1129 100.903 48.4677 98.9677 47.5 98.8064C47.3387 98.8064 47.1774 98.887 46.9355 98.9677ZM43.4677 102.919C43.629 102.435 43.8709 101.871 44.1129 101.468C45 99.6128 45.8871 98.4031 46.7742 97.9193C47.1774 97.6773 47.5 97.5967 47.8226 97.6773C49.2742 97.8386 50.0806 100.258 50.2419 103.887C52.9839 103.322 55 103.968 55.4032 105.742C55.8064 107.516 54.5968 109.935 52.3387 112.355C53.7903 115.258 54.1935 117.919 53.2258 119.452C52.9839 119.855 52.6613 120.177 52.3387 120.339C51.4516 120.823 50.2419 120.823 48.7903 120.339C48.4677 120.177 48.0645 120.016 47.6613 119.855C47.5 120.339 47.258 120.903 47.0161 121.306C46.129 123.161 45.2419 124.371 44.3548 124.855C43.9516 125.097 43.629 125.177 43.3064 125.097C42.0968 124.935 41.2903 123.322 40.9677 120.5C40.8871 120.016 40.8871 119.452 40.8871 118.887C38.1451 119.452 36.129 118.806 35.7258 117.032C35.3226 115.258 36.5322 112.839 38.7903 110.419C38.5484 110.016 38.3871 109.532 38.2258 109.129C37.258 106.71 37.1774 104.613 37.9839 103.323C38.2258 102.919 38.5484 102.597 38.871 102.435C39.758 101.952 40.9677 101.952 42.4193 102.435C42.6613 102.597 43.0645 102.758 43.4677 102.919ZM52.9032 88.4031L30.0806 101.548C29.2742 102.032 28.7903 103.242 29.1129 104.29L36.2903 133.323C36.5322 134.371 37.4193 134.855 38.2258 134.371L61.0484 121.226C61.8548 120.742 62.3387 119.532 62.0968 118.484L54.9193 89.4515C54.5161 88.4031 53.7097 87.9193 52.9032 88.4031Z" fill="#61DAFB"/>
<path d="M48.3065 114.29C47.742 114.694 47.1774 115.016 46.5323 115.419C45.8871 115.742 45.3226 116.064 44.7581 116.387C45.0807 116.629 45.4033 116.952 45.7258 117.194C46.1291 117.032 46.5323 116.79 46.8549 116.548C47.2581 116.306 47.6613 116.064 47.9839 115.823C48.0645 115.339 48.1452 114.774 48.3065 114.29ZM51.0484 112.113C50.5645 112.597 50 113.081 49.3549 113.564C49.2742 114.129 49.1129 114.613 49.0323 115.097C49.9194 114.452 50.8065 113.726 51.5323 113.081C51.371 112.677 51.2097 112.435 51.0484 112.113ZM41.6936 117.516C41.6936 117.919 41.6936 118.323 41.6936 118.726C42.5807 118.484 43.4678 118.161 44.4355 117.758C44.1129 117.516 43.7903 117.194 43.5484 116.952C42.9033 117.113 42.2581 117.355 41.6936 117.516ZM38.7097 110.5C36.4516 112.839 35.1613 115.339 35.6452 117.113C36.0484 118.887 38.0645 119.452 40.8065 118.968C40.8065 118.564 40.8065 118.161 40.8065 117.758C38.3871 118.242 36.7742 117.758 36.5323 116.629C36.2903 115.5 37.2581 113.484 39.2742 111.468C39.0323 111.064 38.871 110.742 38.7097 110.5ZM50.242 103.806C50.242 104.21 50.242 104.613 50.242 105.016C52.6613 104.532 54.2742 105.016 54.5162 106.145C54.8387 107.274 53.7903 109.29 51.7742 111.306C51.9355 111.629 52.0968 111.952 52.2581 112.194C54.5162 109.774 55.8065 107.355 55.3226 105.581C54.9194 103.887 52.9839 103.323 50.242 103.806ZM42.0162 107.677C41.1291 108.323 40.242 109.048 39.5162 109.694C39.6774 110.016 39.8387 110.339 40 110.581C40.4839 110.097 41.0484 109.613 41.6936 109.129C41.7742 108.645 41.8549 108.161 42.0162 107.677ZM46.5323 105.016C46.8549 105.258 47.1774 105.581 47.4194 105.823C48.0645 105.581 48.7097 105.339 49.2742 105.177C49.2742 104.774 49.2742 104.371 49.2742 103.968C48.4678 104.29 47.5 104.613 46.5323 105.016ZM44.2742 106.226C43.871 106.468 43.4678 106.71 43.1452 106.952C42.9839 107.435 42.9033 107.919 42.8226 108.484C43.3871 108.081 43.9516 107.758 44.5968 107.355C45.242 107.032 45.8065 106.71 46.371 106.387C46.0484 106.145 45.7258 105.823 45.4033 105.581C45 105.823 44.5968 105.984 44.2742 106.226Z" fill="white"/>
<path d="M41.9355 113.403C41.8549 113.968 41.8549 114.452 41.7742 114.935C42.0161 115.258 42.3387 115.581 42.6613 115.903C42.9839 116.226 43.2258 116.548 43.5484 116.79C43.871 117.113 44.1936 117.355 44.4355 117.597C45.242 118.242 45.9678 118.806 46.7742 119.29C46.9355 118.887 47.0162 118.564 47.1774 118.161C46.6936 117.839 46.1291 117.516 45.5645 117.032C45.242 116.79 44.9194 116.548 44.5968 116.226C44.1129 115.823 43.6291 115.339 43.1452 114.855C42.8226 114.452 42.3387 113.968 41.9355 113.403ZM50.0807 108.726C50 109.21 50 109.774 49.9194 110.258C50.3226 110.823 50.7258 111.468 51.0484 112.032C51.2097 112.355 51.371 112.677 51.5323 112.919C52.8226 115.419 53.1452 117.597 52.5 118.564C52.3387 118.806 52.1774 118.968 51.9355 119.048C51.2903 119.452 50.242 119.371 49.0323 118.968C48.7097 118.806 48.3871 118.726 47.9839 118.484C47.8226 118.887 47.742 119.21 47.5807 119.613C47.9839 119.774 48.3065 119.935 48.7097 120.097C50.1613 120.661 51.371 120.661 52.2581 120.097C52.6613 119.855 52.9032 119.613 53.1452 119.21C54.1129 117.677 53.7097 114.935 52.2581 112.113C52.0968 111.79 51.9355 111.468 51.7742 111.226C51.2903 110.5 50.7258 109.613 50.0807 108.726ZM44.1936 103.403C44.0323 103.726 43.9516 104.129 43.7903 104.532C44.2742 104.855 44.8387 105.177 45.4032 105.661C45.7258 105.903 46.0484 106.145 46.371 106.468C46.8549 106.871 47.3387 107.355 47.8226 107.839C48.3065 108.323 48.7097 108.887 49.1936 109.371C49.2742 108.806 49.2742 108.323 49.3549 107.839C49.1129 107.516 48.7903 107.194 48.4678 106.871C48.1452 106.548 47.9032 106.226 47.5807 105.984C47.2581 105.661 46.9355 105.419 46.6936 105.177C45.8065 104.371 45 103.806 44.1936 103.403ZM38.7903 102.435C38.3871 102.677 38.1452 102.919 37.9032 103.323C37.0968 104.613 37.1774 106.71 38.1452 109.129C38.3065 109.532 38.5484 110.016 38.7097 110.419C38.871 110.742 39.0323 111.064 39.1936 111.306C39.6774 112.194 40.242 113.081 40.9678 113.887C41.0484 113.403 41.0484 112.839 41.1291 112.355C40.7258 111.79 40.3226 111.145 40 110.581C39.8387 110.258 39.6774 109.935 39.5162 109.694C39.2742 109.29 39.1129 108.887 38.9516 108.484C38.1452 106.548 37.9839 104.855 38.5484 104.048C38.7097 103.806 38.871 103.645 39.1129 103.564C39.7581 103.161 40.8065 103.242 42.0161 103.645C42.3387 103.806 42.6613 103.887 43.0645 104.129C43.2258 103.726 43.3065 103.403 43.4678 103C43.0645 102.839 42.742 102.677 42.3387 102.516C40.8871 101.952 39.6774 101.952 38.7903 102.435Z" fill="white"/>
<path d="M44.1936 103.403C44.3549 102.919 44.5968 102.436 44.7581 102.032C45.4839 100.419 46.2097 99.371 46.9355 99.0484C47.1774 98.8871 47.3387 98.8871 47.5807 98.8871C48.4678 99.0484 49.1936 100.984 49.3549 104.129C49.3549 104.532 49.3549 104.936 49.3549 105.339C49.3549 106.145 49.3549 106.952 49.2742 107.839C49.2742 108.323 49.1936 108.887 49.1129 109.371C49.0323 110.177 48.9516 110.984 48.7903 111.871C48.6291 112.758 48.4678 113.565 48.3065 114.371C48.2258 114.855 48.0645 115.419 47.9839 115.903C47.742 116.79 47.5 117.597 47.2581 118.323C47.0968 118.726 47.0162 119.129 46.8549 119.452C46.6936 119.936 46.4516 120.419 46.2903 120.823C45.5645 122.436 44.8387 123.484 44.1129 123.806C43.871 123.968 43.7097 123.968 43.4678 123.968C42.6613 123.887 42.0968 122.516 41.8549 120.177C41.7742 119.694 41.7742 119.21 41.7742 118.726C41.7742 118.323 41.7742 117.919 41.7742 117.516C41.7742 116.71 41.7742 115.903 41.8549 115.016C41.8549 114.532 41.9355 113.968 42.0162 113.484C42.0968 112.677 42.2581 111.79 42.3387 110.984C42.5 110.097 42.6613 109.29 42.8226 108.484C42.9032 108 43.0645 107.436 43.1452 106.952C43.3871 106.065 43.6291 105.258 43.871 104.532C43.9516 104.129 44.1129 103.726 44.1936 103.403ZM46.6936 97.9194C45.8065 98.4033 44.9194 99.6129 44.0323 101.468C43.7903 101.952 43.6291 102.436 43.3871 102.919C43.2258 103.242 43.1452 103.645 42.9839 104.048C42.5807 105.177 42.2581 106.387 41.9355 107.677C41.8549 108.161 41.6936 108.726 41.6129 109.21C41.5323 109.774 41.4516 110.258 41.2903 110.823C41.2097 111.387 41.1291 111.871 41.0484 112.436C40.9678 113 40.8871 113.484 40.8871 113.968C40.7258 115.258 40.7258 116.548 40.7258 117.677C40.7258 118.081 40.7258 118.484 40.7258 118.887C40.7258 119.452 40.8065 119.936 40.8065 120.5C41.1291 123.323 41.9355 124.936 43.1452 125.097C43.4678 125.177 43.871 125.097 44.1936 124.855C45.0807 124.371 45.9678 123.161 46.8549 121.306C47.0968 120.823 47.2581 120.339 47.5 119.855C47.6613 119.452 47.742 119.129 47.9033 118.726C48.3065 117.597 48.6291 116.387 48.9516 115.097C49.0323 114.613 49.1936 114.048 49.2742 113.565C49.3549 113.081 49.4355 112.516 49.5968 111.952C49.6774 111.387 49.7581 110.903 49.8387 110.339C49.9194 109.774 50 109.29 50 108.806C50.1613 107.516 50.1613 106.226 50.1613 105.097C50.1613 104.694 50.1613 104.29 50.1613 103.887C50 100.258 49.1129 97.8387 47.742 97.6775C47.4194 97.5968 47.0162 97.6775 46.6936 97.9194Z" fill="white"/>
<path d="M45 109.129C44.0323 109.693 43.4678 111.145 43.7903 112.355C44.1129 113.564 45.1613 114.129 46.1291 113.564C47.0968 113 47.6613 111.548 47.3387 110.339C46.9355 109.129 45.9678 108.564 45 109.129Z" fill="white"/>
</g>
<mask id="mask2_236_797" style="mask-type:luminance" maskUnits="userSpaceOnUse" x="14" y="43" width="29" height="41">
<path d="M20.8064 83.6453L14.0322 56.3066L35.5645 43.8872L42.3387 71.2259L20.8064 83.6453Z" fill="white"/>
</mask>
<g mask="url(#mask2_236_797)">
<path opacity="0.8" d="M28.0645 74.6131C26.6936 75.4196 25.2419 74.6131 24.8387 72.9196C24.4355 71.1454 25.1613 69.1293 26.5323 68.3228L29.0323 66.8712L29.8387 70.0163C30.1613 71.7905 29.4355 73.8067 28.0645 74.6131ZM26.5323 68.3228C25.1613 69.1293 23.7097 68.3228 23.3065 66.6293C22.9032 64.8551 23.629 62.8389 25 62.0325L27.5 60.5809L29.0323 66.8712L26.5323 68.3228ZM24.9194 62.0325C23.5484 62.8389 22.0968 62.0325 21.6936 60.3389C21.2903 58.5647 22.0161 56.5486 23.3871 55.7422L25.8871 54.2905L27.4194 60.5809L24.9194 62.0325ZM27.4194 60.5809L25.8871 54.2905L28.3871 52.8389C29.7581 52.0325 31.2097 52.8389 31.6129 54.5325C32.0161 56.3067 31.2903 58.3228 29.9194 59.1293C31.2903 58.3228 32.7419 59.1293 33.1452 60.8228C33.5484 62.597 32.8226 64.6131 31.4516 65.4196C30.0807 66.226 28.629 65.4196 28.2258 63.726C27.8226 61.9518 28.5484 59.9357 29.9194 59.1293L27.4194 60.5809ZM33.4677 45.097L16.2097 55.0163C15 55.6615 14.3548 57.4357 14.7581 58.968L20.1613 80.9034C20.5645 82.3551 21.7742 83.0809 22.9839 82.3551L40.2419 72.4357C41.4516 71.7905 42.0968 70.0163 41.6936 68.4841L36.2097 46.5486C35.8871 45.097 34.5968 44.3712 33.4677 45.097Z" fill="#1D1D1B"/>
<path d="M28.9516 66.8711L26.5323 68.3227C25.1613 69.1292 24.4355 71.1453 24.8387 72.9195C25.2419 74.6937 26.6936 75.4195 28.0645 74.613C29.4355 73.8066 30.1613 71.7905 29.7581 70.0163L28.9516 66.8711Z" fill="#0ACF83"/>
<path d="M27.4194 60.5808L24.9194 62.0324C23.5484 62.8389 22.8226 64.855 23.2258 66.6292C23.629 68.4034 25.0806 69.1292 26.4516 68.3227L28.9516 66.8711L27.4194 60.5808Z" fill="#A259FF"/>
<path d="M25.8871 54.2905L23.3871 55.7421C22.0162 56.5486 21.2903 58.5647 21.6936 60.3389C22.0968 62.1131 23.5484 62.8389 24.9194 62.0325L27.4194 60.5809L25.8871 54.2905Z" fill="#F24E1E"/>
<path d="M28.3064 52.8388L25.8064 54.2905L27.3387 60.5808L29.8387 59.1292C31.2096 58.3227 31.9354 56.3066 31.5322 54.5324C31.129 52.8388 29.6774 52.113 28.3064 52.8388Z" fill="#FF7262"/>
<path d="M29.9193 59.1291C28.5484 59.9356 27.8226 61.9517 28.2258 63.7259C28.629 65.5001 30.0806 66.2259 31.4516 65.4195C32.8226 64.613 33.5484 62.5969 33.1452 60.8227C32.7419 59.1291 31.2903 58.4033 29.9193 59.1291Z" fill="#1ABCFE"/>
</g>
<mask id="mask3_236_797" style="mask-type:luminance" maskUnits="userSpaceOnUse" x="57" y="13" width="38" height="53">
<path d="M66.6935 65.0161L57.9032 29.2097L85.9677 13L94.8387 48.7258L66.6935 65.0161Z" fill="white"/>
</mask>
<g mask="url(#mask3_236_797)">
<path opacity="0.902" d="M77.1774 52.1935C77.5806 51.9515 77.8225 51.629 77.9838 51.1451C78.1451 50.6612 78.1451 50.0967 77.9838 49.5322L75.8064 40.8225L77.8226 39.6128L80 48.3225C80.1613 49.129 80.2419 49.9354 80.0806 50.6612C79.9193 51.4677 79.6774 52.1128 79.2742 52.758C78.8709 53.4031 78.3064 53.887 77.6613 54.2096C76.6935 54.8548 75.8064 54.9354 75 54.6128C74.2742 54.2902 73.7096 53.4838 73.3871 52.2741L75.4032 51.0644C75.5645 51.7096 75.8064 52.1128 76.0484 52.2741C76.3709 52.4354 76.7742 52.4354 77.1774 52.1935ZM85.8064 47.1935C86.2903 46.9515 86.6129 46.5483 86.8548 46.1451C87.0967 45.7419 87.0967 45.3386 87.0161 44.8548C86.9355 44.3709 86.6935 44.0483 86.3709 43.9677C86.0484 43.887 85.4838 43.887 84.6774 43.9677C83.8709 44.0483 83.3064 44.129 82.8225 44.0483C81.5322 43.9677 80.7258 43.2419 80.4032 41.8709C80.2419 41.2257 80.2419 40.4999 80.4032 39.7741C80.5645 39.0483 80.8871 38.4031 81.3709 37.758C81.8548 37.1128 82.4193 36.629 83.1451 36.2257C83.8709 35.8225 84.5161 35.5806 85.1613 35.6612C85.8064 35.6612 86.3709 35.9031 86.7742 36.3064C87.258 36.7096 87.5806 37.2741 87.7419 38.0806L85.7258 39.2902C85.5645 38.7257 85.3226 38.3225 85 38.1612C84.6774 37.9999 84.1935 38.0806 83.7097 38.4031C83.2258 38.7257 82.8226 39.0483 82.6613 39.4515C82.4193 39.8548 82.4193 40.3386 82.5 40.7419C82.5806 41.1451 82.8225 41.387 83.2258 41.4677C83.629 41.5483 84.1935 41.5483 84.8387 41.387C86.129 41.1451 87.0967 41.2257 87.7419 41.5483C88.4677 41.8709 88.8709 42.5967 89.1129 43.5644C89.3548 44.6128 89.2742 45.6612 88.7903 46.7096C88.3064 47.6773 87.5 48.4838 86.4516 49.129C85.7258 49.5322 84.9193 49.7741 84.2742 49.7741C83.5484 49.7741 82.9838 49.5322 82.5 49.129C82.0161 48.7257 81.6935 48.0806 81.4516 47.2741L83.4677 46.0644C83.7097 47.6773 84.5161 47.9193 85.8064 47.1935ZM84.1935 14.0483L59.6774 28.1612C58.7096 28.7257 58.1451 30.258 58.4677 31.4677L66.129 62.6773C66.4516 63.9677 67.5 64.5322 68.4677 63.9677L93.0645 49.7741C94.0322 49.2096 94.5967 47.6773 94.2742 46.4677L86.5322 15.258C86.2097 14.0483 85.1613 13.4838 84.1935 14.0483Z" fill="#FCEA10"/>
<path d="M77.9032 39.6128L75.8871 40.8225L78.0645 49.5321C78.2258 50.1773 78.2258 50.7418 78.0645 51.1451C77.9032 51.6289 77.6612 51.9515 77.258 52.1934C76.8548 52.4354 76.4516 52.516 76.2096 52.2741C75.9677 52.1128 75.7258 51.7096 75.5645 51.0644L73.5483 52.2741C73.8709 53.4838 74.3548 54.2902 75.1612 54.6128C75.887 54.9354 76.7741 54.7741 77.8225 54.2096C78.4677 53.8063 79.0322 53.3225 79.4354 52.758C79.8387 52.1128 80.1612 51.4676 80.2419 50.6612C80.4032 49.8547 80.3225 49.1289 80.1612 48.3225L77.9032 39.6128Z" fill="black"/>
<path d="M83.1451 36.387C82.4193 36.7902 81.8548 37.2741 81.3709 37.9192C80.8871 38.5644 80.5645 39.2095 80.4032 39.9353C80.2419 40.6612 80.2419 41.3063 80.4032 42.0321C80.7258 43.3224 81.5322 44.0482 82.8225 44.2095C83.3064 44.2902 83.9516 44.2095 84.6774 44.1289C85.4838 44.0483 86.0484 44.0483 86.3709 44.1289C86.6935 44.2095 86.9355 44.5321 87.0161 45.016C87.0967 45.4999 87.0967 45.9031 86.8548 46.3063C86.6129 46.7095 86.2903 47.0321 85.8064 47.3547C84.5161 48.0805 83.7097 47.7579 83.3064 46.387L81.2903 47.5966C81.4516 48.4031 81.8548 49.0482 82.3387 49.4515C82.8226 49.8547 83.3871 50.0966 84.1129 50.0966C84.8387 50.0966 85.5645 49.8547 86.2903 49.4515C87.4193 48.8063 88.1451 47.9999 88.629 47.0321C89.1129 46.0644 89.2742 45.016 88.9516 43.887C88.7097 42.9192 88.2258 42.2741 87.5806 41.8708C86.8548 41.5483 85.8871 41.4676 84.6774 41.7095C83.9516 41.8708 83.4677 41.8708 83.0645 41.7902C82.6613 41.7095 82.4193 41.4676 82.3387 41.0644C82.258 40.6612 82.258 40.1773 82.5 39.7741C82.7419 39.3708 83.0645 38.9676 83.5484 38.7257C84.0322 38.4031 84.5161 38.3224 84.8387 38.4837C85.1613 38.645 85.4838 38.9676 85.5645 39.6128L87.5806 38.4031C87.4193 37.6773 87.0967 37.0321 86.6129 36.6289C86.129 36.2257 85.6451 35.9837 85 35.9837C84.5161 35.7418 83.7903 35.9837 83.1451 36.387Z" fill="black"/>
</g>
<mask id="mask4_236_797" style="mask-type:luminance" maskUnits="userSpaceOnUse" x="50" y="54" width="24" height="34">
<path d="M55.6451 87.4355L50.1613 65.0968L67.7419 54.9355L73.2258 77.3549L55.6451 87.4355Z" fill="white"/>
</mask>
<g mask="url(#mask4_236_797)">
<path opacity="0.8" d="M60.2419 66.7098L58.2257 65.6614L59.0322 63.4033C59.1128 63.0807 59.3548 62.8388 59.5967 62.7582C59.8386 62.5969 60.0806 62.5969 60.2419 62.7582L67.8225 66.7904C68.2257 67.0324 68.387 67.6775 68.2257 68.3227L64.2741 78.9678C64.1935 79.2904 63.9515 79.5324 63.7096 79.613C63.4677 79.7743 63.2257 79.7743 63.0644 79.613L55.4838 75.5807C55.0806 75.3388 54.8386 74.6936 55.0806 74.0485L57.8225 66.7098L59.758 67.7582C59.6773 68.5646 60.1612 69.1291 60.7257 69.1291L61.8548 73.7259C61.7741 73.8872 61.6935 74.0485 61.6128 74.2098C61.3709 74.9356 61.5322 75.742 62.0967 76.0646C62.3386 76.2259 62.6612 76.1453 62.9031 76.0646C63.1451 75.9033 63.387 75.6614 63.5483 75.2582C63.629 75.0969 63.629 74.9356 63.629 74.7743C63.7096 73.9678 63.3064 73.3227 62.7419 73.3227L61.6128 68.7259L63.387 69.6936C63.387 70.2582 63.5483 70.742 63.9515 70.984C64.1935 71.1453 64.5161 71.0646 64.758 70.984C64.9999 70.8227 65.2419 70.5807 65.4031 70.1775C65.6451 69.4517 65.4838 68.6453 64.9193 68.3227C64.6773 68.1614 64.3548 68.242 64.1128 68.3227C64.0322 68.4033 63.8709 68.484 63.7902 68.5646L61.8548 67.5162C61.8548 66.9517 61.6128 66.5485 61.2902 66.3065C61.0483 66.1453 60.7257 66.2259 60.4838 66.3065C60.4838 66.5485 60.4031 66.6291 60.2419 66.7098ZM65.9677 55.984L51.8548 64.1291C50.887 64.6936 50.3225 66.1453 50.6451 67.3549L55.1612 85.2582C55.4838 86.4678 56.4515 87.0324 57.4193 86.4678L71.5322 78.3227C72.4999 77.7582 72.9838 76.3066 72.7419 75.0969L68.3064 57.113C67.9838 55.9033 66.9354 55.4195 65.9677 55.984Z" fill="#F03C2E"/>
<path d="M59.5967 62.7582C59.3547 62.9195 59.1935 63.0808 59.0322 63.4034L58.2257 65.6615L60.2418 66.7099C60.3225 66.6292 60.4031 66.5486 60.5644 66.4679C60.8064 66.3066 61.1289 66.3066 61.3709 66.4679C61.6935 66.6292 61.9354 67.1131 61.9354 67.6776L63.8709 68.726C63.9515 68.6453 64.0322 68.5647 64.1935 68.484C64.4354 68.3228 64.758 68.3228 64.9999 68.484C65.4838 68.726 65.7257 69.6131 65.4838 70.3389C65.3225 70.7421 65.0806 70.984 64.8386 71.1453C64.5967 71.3066 64.2741 71.3066 64.0322 71.1453C63.6289 70.9034 63.4676 70.4195 63.4676 69.855L61.6935 68.8873L62.8225 73.484C63.387 73.484 63.7902 74.1292 63.7096 74.9357C63.7096 75.0969 63.6289 75.2582 63.6289 75.4195C63.4677 75.8228 63.2257 76.0647 62.9838 76.226C62.7418 76.3873 62.4193 76.3873 62.1773 76.226C61.6935 75.984 61.4515 75.0969 61.6935 74.3711C61.7741 74.2099 61.8548 74.0486 61.9354 73.8873L60.8064 69.2905C60.2418 69.2905 59.758 68.726 59.8386 67.9195L57.9031 66.8711L55.1612 74.2099C54.9193 74.855 55.0806 75.5002 55.5644 75.7421L63.1451 79.7744C63.387 79.855 63.6289 79.855 63.7902 79.7744C64.0322 79.6131 64.1935 79.4518 64.3548 79.1292L68.3064 68.3228C68.5483 67.6776 68.387 67.0324 67.9031 66.7905L60.3225 62.7582C60.0806 62.6776 59.8386 62.6776 59.5967 62.7582Z" fill="white"/>
</g>
</svg>
