<svg width="136" height="120" viewBox="0 0 136 120" fill="none" xmlns="http://www.w3.org/2000/svg">
<path opacity="0.19" d="M76.3871 114.677L133.887 15.0806C137.597 8.62897 132.919 0.564453 125.5 0.564453H10.5C3.00002 0.564453 -1.59676 8.62897 2.11292 15.0806L59.6129 114.677C63.3226 121.129 72.6774 121.129 76.3871 114.677Z" fill="#FF8400"/>
<path d="M78.9678 92.9837C77.1936 92.9837 76.0646 91.6128 76.0646 89.4353V59.4353C76.0646 56.7741 77.9194 53.6289 80.1775 52.2579L107.758 36.2902C108.484 35.887 109.21 35.645 109.855 35.645C111.629 35.645 112.758 37.016 112.758 39.1934V69.1934C112.758 71.8547 110.903 74.9999 108.645 76.3708L81.0646 92.3386C80.3388 92.7418 79.613 92.9837 78.9678 92.9837ZM109.855 37.4192C109.532 37.4192 109.048 37.5805 108.645 37.8224L81.0646 53.7902C79.2904 54.8386 77.7581 57.4192 77.7581 59.516V89.516C77.7581 90.0805 77.8388 91.2902 78.9678 91.2902C79.2904 91.2902 79.7743 91.1289 80.1775 90.887L107.758 74.9192C109.532 73.8708 111.065 71.2902 111.065 69.1934V39.1934C111.065 38.6289 110.984 37.4192 109.855 37.4192Z" fill="#9D9D9C"/>
<path d="M22.9194 60.4839C21.1452 60.4839 20.0162 59.1129 20.0162 56.9355V26.9355C20.0162 24.2742 21.871 21.1291 24.1291 19.7581L51.7097 3.87099C52.4355 3.46776 53.1613 3.22583 53.8065 3.22583C55.5807 3.22583 56.7097 4.5968 56.7097 6.77422V36.7742C56.7097 39.4355 54.8549 42.5807 52.5968 43.9516L25.0162 59.9194C24.2904 60.3226 23.5646 60.4839 22.9194 60.4839ZM53.8065 4.91938C53.4839 4.91938 53 5.08067 52.5968 5.3226L25.0162 21.2903C23.242 22.3387 21.7097 24.9194 21.7097 27.0162V57.0162C21.7097 57.5807 21.7904 58.7904 22.9194 58.7904C23.242 58.7904 23.7259 58.6291 24.1291 58.3871L51.7097 42.5C53.4839 41.4516 55.0162 38.871 55.0162 36.7742V6.77422C55.0162 6.2097 54.9355 4.91938 53.8065 4.91938Z" fill="#9D9D9C"/>
<path d="M115.177 37.3387L78.242 58.7097L19.1291 24.5162V22.6613L56.0646 3.22583L115.177 35.4839V37.3387Z" fill="white" stroke="#9D9D9C" stroke-width="1.4173" stroke-miterlimit="10" stroke-linecap="round" stroke-linejoin="round"/>
<path d="M115.177 35.4838L78.242 56.7742L19.1291 22.6613L56.0646 1.29028L115.177 35.4838Z" fill="white" stroke="#9D9D9C" stroke-width="1.4173" stroke-miterlimit="10" stroke-linecap="round" stroke-linejoin="round"/>
<path d="M52.3549 27.2581L87.2743 31.7742V32.5806L52.3549 28.0645V27.2581Z" fill="#96A4EA"/>
<path d="M52.4355 28.2257L73.4839 40.4031C73.6452 40.4837 73.8065 40.4837 73.9678 40.4031L87.1936 32.7418C87.3549 32.6612 87.3549 32.4999 87.1936 32.4192L66.1452 20.3224C65.9839 20.2418 65.8226 20.2418 65.6614 20.3224L52.4355 27.9837C52.2743 27.9837 52.2743 28.145 52.4355 28.2257Z" fill="#96A4EA"/>
<path d="M52.4355 27.4193L73.4839 39.5161C73.6452 39.5967 73.8065 39.5967 73.9678 39.5161L87.1936 31.8548C87.3549 31.7741 87.3549 31.6128 87.1936 31.5322L66.1452 19.5161C65.9839 19.4354 65.8226 19.4354 65.6614 19.5161L52.4355 27.1773C52.2743 27.1773 52.2743 27.3386 52.4355 27.4193Z" fill="white" stroke="#96A4EA" stroke-width="0.4108" stroke-miterlimit="10"/>
<path d="M62.3549 31.129L63.9678 30.2419C64.1291 30.1612 64.2904 30.1612 64.4517 30.2419L68.5646 32.5806C68.7259 32.6612 68.7259 32.8225 68.5646 32.9032L66.9517 33.8709L62.3549 31.129Z" fill="#9D9D9C"/>
<path d="M66.9516 33.7903L66.3871 34.1129C66.2258 34.1935 66.0645 34.1935 65.9033 34.1129L63.9678 32.9839L64.7742 32.5L66.9516 33.7903Z" fill="#9D9D9C"/>
<path d="M64.7743 32.4999L63.9678 32.9837L61.871 31.7741C61.7097 31.6934 61.7097 31.5321 61.871 31.4515L62.4355 31.1289L64.7743 32.4999Z" fill="#9D9D9C"/>
<path d="M66.4678 20.8869L84.4517 31.2901C84.6936 31.4514 84.6936 31.774 84.4517 31.9353L77.0323 36.2095C76.871 36.2901 76.5484 36.2901 76.3871 36.2095L58.3226 25.8063C58.0807 25.645 58.0807 25.3224 58.3226 25.2417L65.8226 20.8869C65.9839 20.8063 66.2259 20.8063 66.4678 20.8869Z" fill="#9D9D9C"/>
<path d="M70.5807 1.93538L70.9032 1.85474C70.9839 1.85474 71.0645 1.85474 71.0645 1.85474L92.3549 14.1128C92.5161 14.1934 92.5161 14.3547 92.4355 14.5967L88.1613 30.9676C88.0807 31.3709 87.5161 31.6934 87.1936 31.6128L87.0323 31.5322L90.3387 17.6612L70.0968 5.96764L70.3387 4.51603L66.7097 18.5483C66.629 18.8709 66.3871 19.1934 66.1452 19.1934L65.9839 18.9515L70.5807 1.93538Z" fill="#96A4EA"/>
<path d="M70.3387 2.17733L65.9033 19.1128C65.9033 19.2741 65.9033 19.4354 66.0646 19.516L87.1936 31.6935C87.2742 31.7741 87.3549 31.6935 87.4355 31.6128L91.871 14.516C91.9517 14.3548 91.871 14.1935 91.7097 14.1128L70.8226 2.01604C70.6613 1.85475 70.4194 1.9354 70.3387 2.17733Z" fill="white" stroke="#96A4EA" stroke-width="0.4108" stroke-miterlimit="10"/>
<path d="M66.871 18.9516L86.7904 30.4032L86.871 30.2419L90.9033 14.5967L71.2259 3.22574L70.9839 3.06445L66.871 18.9516Z" fill="white"/>
<path d="M67.1129 18.7901L86.871 30.2417L90.9032 14.5966L71.2258 3.22559L67.1129 18.7901Z" fill="#3C3C3B"/>
<path d="M71.7904 8.54816L87.1936 17.4191L87.3549 17.0966L71.871 8.22559L71.7904 8.54816Z" fill="#96A4EA"/>
<path d="M76.7097 12.4191L87.0323 18.3062L87.1129 17.9836L76.7904 12.0159L76.7097 12.4191Z" fill="#96A4EA"/>
<path d="M75.0969 12.4997L86.7904 19.1932L86.8711 18.79L75.2582 12.0964L75.0969 12.4997Z" fill="#96A4EA"/>
<path d="M71.1452 11.1287L86.5484 20.0803L86.7097 19.6771L71.2258 10.8062L71.1452 11.1287Z" fill="#96A4EA"/>
<path d="M75.9839 14.919L86.3872 20.8868L86.4678 20.5642L76.0646 14.5964L75.9839 14.919Z" fill="#96A4EA"/>
<path d="M70.5001 13.7902L85.9033 22.6612L85.9839 22.2579L70.5807 13.387L70.5001 13.7902Z" fill="#96A4EA"/>
<path d="M72.7581 16.0482L85.742 23.4676L85.8226 23.145L72.8388 15.645L72.7581 16.0482Z" fill="#96A4EA"/>
<path d="M73.3226 17.3385L85.5 24.3547L85.5807 24.0321L73.4033 16.9353L73.3226 17.3385Z" fill="#96A4EA"/>
<path d="M71.3871 17.258L85.2581 25.2418L85.3388 24.8386L71.4678 16.8547L71.3871 17.258Z" fill="#96A4EA"/>
<path d="M26.871 78.0646C26.871 78.7097 26.3871 79.1936 25.7419 79.1936C25.0968 79.1936 24.6129 78.7097 24.6129 78.0646C24.6129 77.4194 25.0968 76.9355 25.7419 76.9355C26.3871 76.9355 26.871 77.4194 26.871 78.0646Z" fill="#3C3C3B"/>
<path d="M24.129 89.7582C24.129 90.4034 23.6452 90.8872 23 90.8872C22.3548 90.8872 21.871 90.4034 21.871 89.7582C21.871 89.113 22.3548 88.6292 23 88.6292C23.6452 88.6292 24.129 89.113 24.129 89.7582Z" fill="#3C3C3B"/>
<path d="M42.7581 95.0807C42.7581 95.7258 42.2742 96.2097 41.629 96.2097C40.9839 96.2097 40.5 95.7258 40.5 95.0807C40.5 94.4355 40.9839 93.9517 41.629 93.9517C42.2742 93.9517 42.7581 94.5162 42.7581 95.0807Z" fill="#3C3C3B"/>
<path d="M56.7097 86.8547C56.7097 87.4999 56.2259 87.9838 55.5807 87.9838C54.9355 87.9838 54.4517 87.4999 54.4517 86.8547C54.4517 86.2096 54.9355 85.7257 55.5807 85.7257C56.2259 85.6451 56.7097 86.2096 56.7097 86.8547Z" fill="#3C3C3B"/>
<path d="M48.1613 75.5646C48.1613 76.2097 47.6774 76.6936 47.0323 76.6936C46.3871 76.6936 45.9033 76.2097 45.9033 75.5646C45.9033 74.9194 46.3871 74.4355 47.0323 74.4355C47.5968 74.4355 48.1613 74.9194 48.1613 75.5646Z" fill="#3C3C3B"/>
<path d="M48.242 74.6774V73.0645L46.0645 74.0322L38 81.5322L26.3871 75.887L24.6936 75.2419V76.8548L34.5323 83.5483L21.5484 86.6128V88.2257L22.6774 89.4354L36.7903 86.129L40.4194 94.6774L42.8387 94.4354V92.9032L41.7097 85.6451L56.871 86.2903L57.2742 84.9193V83.387L42.4355 82.8225L48.242 74.6774Z" fill="#9D9D9C" stroke="#9D9D9C" stroke-width="1.4173" stroke-miterlimit="10" stroke-linecap="round" stroke-linejoin="round"/>
<path d="M48.242 73.0645L46.0645 72.5L38 80L26.3871 74.2742L24.6936 75.2419L34.5323 82.0161L21.5484 86.6129L22.6774 87.9032L36.7903 84.5161L40.4194 93.0645L42.8387 92.9032L41.7097 84.1129L56.871 84.7581L57.2742 83.3871L42.4355 81.2903L48.242 73.0645Z" fill="white" stroke="#9D9D9C" stroke-width="1.4173" stroke-miterlimit="10" stroke-linecap="round" stroke-linejoin="round"/>
<path d="M40.9033 67.9839H36.4678V82.3387C36.4678 82.6613 36.7097 82.9839 37.1129 83.2258C38 83.7097 39.371 83.7097 40.2581 83.2258C40.6613 82.9839 40.9033 82.6613 40.9033 82.3387V67.9839Z" fill="white" stroke="#9D9D9C" stroke-width="1.4173" stroke-miterlimit="10" stroke-linecap="round" stroke-linejoin="round"/>
<path d="M20.0968 58.871L39.4516 47.7419L58.7258 58.871L39.4516 70.0807L20.0968 58.871Z" fill="#878787"/>
<path d="M31.0646 53.5484C31.0646 53.5484 30.5001 59.9193 33.9678 59.6774C37.3549 59.4355 54.1291 51.0484 54.1291 51.0484C54.1291 51.0484 55.5001 46.8548 50.9033 45.8871C46.3065 45 31.0646 53.5484 31.0646 53.5484Z" fill="#E07000"/>
<path d="M48.8871 68.871C50.2581 71.2904 55.9032 70.3226 55.6613 68.0646L54.2903 49.1936L47.3549 52.742L48.8871 68.871Z" fill="#E07000"/>
<path d="M48.7258 67.4192C48.7258 67.4192 56.5484 64.3547 59.8549 65.4031C63.0807 66.5321 55.742 72.2579 52.5162 72.0966C49.2903 71.9353 49.2097 70.3224 48.7258 67.4192Z" fill="#E07000"/>
<path d="M36.7904 60.7257C36.7904 60.7257 36.0646 68.6289 40.4194 68.3063C44.6936 67.9838 65.5 57.4999 65.5 57.4999C65.5 57.4999 67.1936 52.258 61.4678 51.1289C55.8226 49.9999 36.7904 60.7257 36.7904 60.7257Z" fill="#FF8400"/>
<path d="M59.0484 79.8386C60.742 82.8225 67.7581 81.6935 67.4355 78.7903L65.742 55.3225L57.0323 59.758L59.0484 79.8386Z" fill="#FF8400"/>
<path d="M58.8871 78.0644C58.8871 78.0644 68.7259 74.1934 72.7581 75.5644C76.7904 76.9353 67.5968 84.1128 63.5646 83.8708C59.5323 83.7095 59.4517 81.6934 58.8871 78.0644Z" fill="#FF8400"/>
<path d="M39.4516 28.3065L36.4678 34.7581L58.8871 26.6936" stroke="#E07000" stroke-width="9.6098" stroke-miterlimit="10" stroke-linecap="round" stroke-linejoin="round"/>
<path d="M59.0484 79.8386C60.742 82.8225 67.7581 81.6935 67.4355 78.7903L65.742 55.3225L57.0323 59.758L59.0484 79.8386Z" fill="#FF8400"/>
<path d="M58.8871 78.0644C58.8871 78.0644 68.7259 74.1934 72.7581 75.5644C76.7904 76.9353 67.5968 84.1128 63.5646 83.8708C59.5323 83.7095 59.4517 81.6934 58.8871 78.0644Z" fill="#FF8400"/>
<path d="M44.2097 24.3547C40.8226 22.6612 33.242 23.2257 31.5484 35.6451C31.5484 35.6451 30.5807 53.2257 30.6613 56.3709C30.742 59.516 41.9517 64.2741 47.6775 58.6289C47.6775 58.6289 49.2904 57.258 49.2097 51.2096L50.9839 29.6773C51.0646 29.758 51.7904 28.6289 44.2097 24.3547Z" fill="#FF8400"/>
<path d="M48.6452 32.1775L64.6129 44.113L73.4839 36.4517" stroke="#FF8400" stroke-width="9.6098" stroke-miterlimit="10" stroke-linecap="round" stroke-linejoin="round"/>
<path d="M35.742 47.5001L16.4678 36.371L20.5 33.9517L39.8549 45.0807L35.742 47.5001Z" fill="white"/>
<path d="M21.1452 65.0807L40.4194 53.9517L59.7742 65.0807L40.4194 76.2097L21.1452 65.0807Z" stroke="#96A4EA" stroke-width="0.0225538" stroke-miterlimit="10"/>
<path d="M40.4194 76.2096L59.7742 65.0805L58.7259 58.8708L39.4517 70.0805L40.4194 76.2096Z" fill="white"/>
<path d="M35.7419 47.4999L40.4194 76.2096L44.5323 73.8709L39.8548 45.0806L35.7419 47.4999Z" fill="white"/>
<path d="M35.742 47.4999L40.4194 76.2096L21.1452 65.0805L16.4678 36.3708L35.742 47.4999Z" fill="white"/>
<path d="M92.9195 34.4354C91.4678 35.2419 91.4678 36.6128 92.9195 37.4193C94.3711 38.2257 96.7098 38.2257 98.0807 37.4193C99.5324 36.6128 99.5324 35.2419 98.0807 34.4354C96.6291 33.629 94.3711 33.629 92.9195 34.4354Z" fill="#FF8400"/>
<path d="M99.1291 29.8386H91.7904V35.9677H99.1291V29.8386Z" fill="#FF8400"/>
<path d="M93.0807 28.387C91.6291 29.1935 91.4678 30.4838 92.9194 31.2902C94.3711 32.0967 96.7098 32.0967 98.0807 31.2902C99.5323 30.4838 99.4517 29.1935 98.0001 28.387C96.5485 27.6612 94.4517 27.5806 93.0807 28.387Z" fill="#FF8400"/>
<path d="M91.7098 36.0483C91.9517 36.0483 92.113 36.0483 92.3549 35.9676C92.5968 35.887 92.6775 35.645 92.5968 35.4837C92.5162 35.2418 92.2743 35.1612 92.113 35.2418C91.871 35.3225 91.4678 35.4031 91.1452 35.0805C90.6614 34.7579 90.4194 33.8708 90.5001 32.6612C90.5807 31.8547 90.9839 31.8547 91.1452 31.8547C91.3065 31.8547 91.4678 31.9354 91.5485 32.0967C91.7097 32.2579 91.7904 32.7418 91.9517 33.0644C92.0323 33.3063 92.2743 33.387 92.4356 33.387C92.6775 33.3063 92.7581 33.0644 92.7581 32.9031C92.6775 32.7418 92.5162 32.0967 92.2743 31.7741C92.0323 31.3708 91.6291 31.1289 91.2259 31.1289C90.742 31.1289 89.7743 31.4515 89.6936 32.7418C89.613 34.2741 89.9356 35.3225 90.6614 35.887C90.9033 35.9676 91.3065 36.0483 91.7098 36.0483Z" fill="#E07000"/>
<path d="M92.9194 31.371C93.6452 31.7742 94.6129 32.0161 95.5 32.0161C96.4678 32.0161 97.3549 31.7742 98.0807 31.371C99.5323 30.5645 99.5323 29.1936 98.0807 28.3871C97.3549 27.9839 96.3871 27.7419 95.5 27.7419C94.5323 27.7419 93.6452 27.9839 92.9194 28.3871C91.4678 29.1936 91.4678 30.4839 92.9194 31.371ZM92.1936 29.8387C92.1936 29.4355 92.5162 28.9516 93.0807 28.629C93.7258 28.2258 94.6129 28.0645 95.5 28.0645C96.3871 28.0645 97.2742 28.3065 97.9194 28.629C98.4839 28.9516 98.8065 29.3548 98.8065 29.8387C98.8065 30.3226 98.4839 30.7258 97.9194 31.0484C97.8388 31.0484 97.8388 31.129 97.7581 31.129C97.1129 31.4516 96.3065 31.6129 95.5 31.6129C94.6129 31.6129 93.8871 31.4516 93.242 31.129C93.1613 31.129 93.1613 31.0484 93.0807 31.0484C92.5162 30.7258 92.1936 30.3226 92.1936 29.8387Z" fill="#E07000"/>
<path d="M93.242 31.1291C93.8872 31.4517 94.6936 31.6129 95.5001 31.6129C96.3872 31.6129 97.113 31.4517 97.7581 31.1291C96.5485 30.4033 94.5323 30.4033 93.242 31.1291Z" fill="white"/>
<path d="M48.8065 24.1129C54.2848 24.1129 58.7259 19.6718 58.7259 14.1935C58.7259 8.71522 54.2848 4.27417 48.8065 4.27417C43.3282 4.27417 38.8871 8.71522 38.8871 14.1935C38.8871 19.6718 43.3282 24.1129 48.8065 24.1129Z" fill="#FF8400"/>
<path d="M75.4194 43.8709L83.6452 48.629L94.5323 42.3386L86.3871 37.5806L75.4194 43.8709Z" fill="#96A4EA"/>
<path d="M73.9678 46.6128L82.1936 51.2903L93.0807 44.9999L84.8549 40.3225L73.9678 46.6128Z" fill="white"/>
<path d="M16.4678 36.3709L20.5807 34.0322L39.8549 45.1613L43.4839 67.5806L58.7258 58.8709L59.6936 65L40.4194 76.2096L23.1613 66.2903C21.871 65.5645 20.9839 64.1935 20.742 62.7419L16.4678 36.3709Z" fill="white" stroke="#9D9D9C" stroke-width="1.4173" stroke-miterlimit="10" stroke-linecap="round" stroke-linejoin="round"/>
<path d="M16.4678 36.3708L35.742 47.4999L40.4194 76.2096" stroke="#9D9D9C" stroke-width="1.4173" stroke-miterlimit="10" stroke-linecap="round" stroke-linejoin="round"/>
<path d="M39.8548 45.0806L35.7419 47.4999" stroke="#9D9D9C" stroke-width="1.4173" stroke-miterlimit="10" stroke-linecap="round" stroke-linejoin="round"/>
<path d="M78.2419 56.7742V58.7097" stroke="#9D9D9C" stroke-width="1.4173" stroke-miterlimit="10" stroke-linecap="round" stroke-linejoin="round"/>
</svg>
