<svg width="128" height="123" viewBox="0 0 128 123" fill="none" xmlns="http://www.w3.org/2000/svg">
<path opacity="0.19" d="M59.7097 2.29022L3.74198 42.8547C1.08069 44.7902 -0.048344 48.258 1.00004 51.4031L22.371 117.129C23.4194 120.274 26.3226 122.371 29.6291 122.371H98.742C102.048 122.371 104.952 120.274 106 117.129L127.371 51.4031C128.419 48.258 127.29 44.7902 124.629 42.8547L68.742 2.20958C66 0.35474 62.371 0.35474 59.7097 2.29022Z" fill="#FF8400"/>
<path d="M108.984 71.3226L78.6614 53.8225C77.1291 52.9355 74.6291 52.9355 73.0969 53.8225L15.1936 87.4516C13.6614 88.3387 13.6614 89.7903 15.1936 90.6774L45.5162 108.177C47.0485 109.064 49.5485 109.064 51.0807 108.177L108.984 74.5484C110.597 73.6613 110.597 72.2097 108.984 71.3226Z" fill="#9D9D9C"/>
<mask id="mask0_236_1643" style="mask-type:luminance" maskUnits="userSpaceOnUse" x="11" y="44" width="104" height="61">
<path d="M11.8065 82.5321L76.7259 44.8708L114.468 66.645L49.5485 104.306L11.8065 82.5321Z" fill="white"/>
</mask>
<g mask="url(#mask0_236_1643)">
<path d="M37.0485 90.9997C36.6453 90.7577 36.6453 90.4352 37.0485 90.1932L47.1291 84.3868C47.5323 84.1448 48.1775 84.1448 48.5001 84.3868C48.9033 84.6287 48.9033 84.9513 48.5001 85.1932L38.4194 90.9997C38.0162 91.161 37.4517 91.161 37.0485 90.9997ZM31.6453 87.8545C31.242 87.6126 31.242 87.29 31.6453 87.0481L59.1453 71.0803C59.5485 70.8384 60.1936 70.8384 60.5162 71.0803C60.9194 71.3223 60.9194 71.6448 60.5162 71.8868L33.0162 87.8545C32.613 88.0965 31.9678 88.0965 31.6453 87.8545ZM77.2904 78.8223C76.9678 78.661 76.9678 78.419 77.2904 78.1771L99.7904 65.1126C100.113 64.9513 100.516 64.9513 100.839 65.1126C101.161 65.2739 101.161 65.5158 100.839 65.7577L78.3388 78.8223C78.0162 78.9836 77.613 78.9836 77.2904 78.8223ZM109.548 65.4352L84.6291 51.0803L22.5323 87.1287L47.4517 101.484C48.0162 101.806 48.8227 101.967 49.5485 101.967C50.2743 101.967 51.0807 101.806 51.6453 101.484L109.548 67.8545C110.113 67.5319 110.436 67.0481 110.436 66.6448C110.436 66.2416 110.113 65.7577 109.548 65.4352Z" fill="white"/>
<path d="M110.919 64.6288L86 50.2739L84.629 51.0804L109.548 65.4352C110.113 65.7578 110.435 66.2417 110.435 66.6449C110.435 67.0481 110.194 67.532 109.548 67.8546L51.6452 101.484C51.0806 101.806 50.2742 101.967 49.5484 101.967C48.8226 101.967 48.0161 101.806 47.4516 101.484L22.5323 87.1288L21.1613 87.9352L20.4355 87.532L15.7581 84.8707L46.0806 102.371C48.0161 103.5 51.1613 103.5 53.0968 102.371L111 68.7417C112.855 67.532 112.855 65.7578 110.919 64.6288Z" fill="#FF8400"/>
<path d="M60.5162 71.0804C60.1129 70.8384 59.4678 70.8384 59.1452 71.0804L31.6452 87.0481C31.242 87.2901 31.242 87.6126 31.6452 87.8546C32.0484 88.0965 32.6936 88.0965 33.0162 87.8546L60.5162 71.8868C60.9194 71.6449 60.9194 71.2417 60.5162 71.0804Z" fill="#FF8400"/>
<path d="M48.5 84.3062C48.0968 84.0643 47.4516 84.0643 47.129 84.3062L37.0484 90.1127C36.6452 90.3546 36.6452 90.6772 37.0484 90.9191C37.4516 91.1611 38.0968 91.1611 38.4194 90.9191L48.5 85.1127C48.9032 84.8707 48.9032 84.5481 48.5 84.3062Z" fill="#FF8400"/>
<path d="M72.5323 52.6933C71 51.8062 70.9194 50.3546 72.5323 49.3869C74.1452 48.4191 76.6452 48.4998 78.1775 49.3869C79.7097 50.274 79.7904 51.7256 78.1775 52.6933C76.5646 53.6611 74.0646 53.5804 72.5323 52.6933ZM83.1775 50.1933L78.8226 47.6933C78.2581 47.3708 77.4517 47.2095 76.7258 47.2095C76 47.2095 75.1936 47.3708 74.6291 47.6933L16.7258 81.3224C16.1613 81.645 15.8387 82.1288 15.8387 82.5321C15.8387 82.9353 16.1613 83.4191 16.7258 83.7417L21.0807 86.2417L83.1775 50.1933Z" fill="#FF8400"/>
<path d="M16.7259 83.7417C16.1613 83.4191 15.8388 82.9353 15.8388 82.5321C15.8388 82.1288 16.1613 81.645 16.7259 81.3224L74.6291 47.6933C75.1936 47.3708 75.9194 47.2095 76.7259 47.2095C77.4517 47.2095 78.2581 47.3708 78.8226 47.6933L83.1775 50.1933L21.0807 86.2417L16.7259 83.7417ZM86.0001 50.1933L85.2743 49.7901L80.1936 46.8062C78.2581 45.6772 75.113 45.6772 73.1775 46.8062L15.2742 80.4353C13.3388 81.5643 13.3388 83.3385 15.2742 84.4675L15.6775 84.7095L20.3549 87.3708L21.0807 87.774L22.4517 86.9675L84.5484 50.9191L86.0001 50.1933Z" fill="#FF8400"/>
<path d="M100.839 65.1127C100.516 64.9514 100.113 64.9514 99.7904 65.1127L77.2904 78.1772C76.9678 78.3385 76.9678 78.5804 77.2904 78.8223C77.613 78.9836 78.0162 78.9836 78.3388 78.8223L100.839 65.7578C101.161 65.5965 101.161 65.3546 100.839 65.1127Z" fill="#FF8400"/>
<path d="M78.1774 49.387C76.6452 48.4999 74.0645 48.4999 72.5323 49.387C71 50.2741 71 51.7257 72.5323 52.6935C74.0645 53.5805 76.6452 53.5805 78.1774 52.6935C79.7097 51.8064 79.7097 50.2741 78.1774 49.387Z" fill="white"/>
</g>
<path d="M117.859 11.6445L111.434 7.93481L101.192 25.6738L107.617 29.3835L117.859 11.6445Z" fill="white" stroke="#FF8400" stroke-width="1.8402" stroke-miterlimit="10" stroke-linecap="round"/>
<path d="M88.5806 62.3709L82.7742 64.9515L82.129 58.5806L101.161 25.5967L107.613 29.387L88.5806 62.3709Z" fill="white" stroke="#FF8400" stroke-width="1.8402" stroke-miterlimit="10" stroke-linecap="round"/>
<path d="M82.129 58.5806L88.5806 62.3709" stroke="#FF8400" stroke-width="1.8402" stroke-miterlimit="10" stroke-linecap="round"/>
<path d="M116.565 13.9836C118.097 14.8707 118.661 16.8869 117.774 18.4191L110.516 30.9998" stroke="#FF8400" stroke-width="1.8402" stroke-miterlimit="10" stroke-linecap="round"/>
</svg>
