<svg width="160" height="160" viewBox="0 0 160 160" fill="none" xmlns="http://www.w3.org/2000/svg">
<path opacity="0.19" d="M145.968 74.1128L85.8871 14.0321C82.6613 10.8063 77.3387 10.8063 74.1129 14.0321L14.0323 74.1128C10.8065 77.3386 10.8065 82.6612 14.0323 85.887L74.1129 145.968C77.3387 149.193 82.6613 149.193 85.8871 145.968L145.968 85.887C149.274 82.6612 149.274 77.3386 145.968 74.1128Z" fill="#FF8400"/>
<path d="M118.548 78.8711H113.79L105.323 83.7904C104.032 84.5969 104.032 85.8066 105.323 86.5324C106.613 87.3388 108.79 87.3388 110.081 86.5324L118.548 81.613V78.8711Z" fill="#96A4EA"/>
<path d="M124.355 75.4839C123.71 75.1614 122.903 74.9194 121.935 74.9194H109.193C107.339 74.9194 105.806 75.8065 105.806 76.8549C105.806 77.4194 106.21 77.9033 106.774 78.2259C107.419 78.5485 108.226 78.7904 109.193 78.7904H113.71H118.468V81.5323V84.1936C118.468 84.7581 118.871 85.242 119.435 85.5646C120.081 85.8872 120.887 86.1291 121.855 86.1291C123.71 86.1291 125.242 85.242 125.242 84.1936L125.161 76.8549C125.323 76.371 125 75.8872 124.355 75.4839Z" fill="#96A4EA"/>
<path d="M69.8387 72.0162L65.6452 70.6453L63.2258 73.0646L66.371 79.8388C66.5323 80.1614 66.8549 80.484 67.2581 80.7259C68.0645 81.2098 69.3549 81.4517 70.5645 81.2098C72.3387 80.9678 73.4678 79.8388 72.9839 78.7904L69.8387 72.0162Z" fill="#96A4EA"/>
<path d="M62.9032 66.2097C62.2581 66.371 61.7742 66.6936 61.371 67.0162L61.4516 66.9355C61.8548 66.6129 62.3387 66.371 62.9032 66.2097Z" fill="#FF8400"/>
<path d="M66.1291 66.2904C66.0484 66.2904 66.0484 66.2904 65.9678 66.2097C66.0484 66.2097 66.0484 66.2097 66.1291 66.2904Z" fill="#FF8400"/>
<path d="M77.8226 70.2419C77.5806 70.1613 77.3387 70 77.0968 69.9193L66.129 66.2903H66.0484C65.9677 66.2903 65.9677 66.2903 65.8871 66.2097C65.8871 66.2097 65.8871 66.2097 65.8064 66.2097H65.7258C64.8387 65.9677 63.9516 65.9677 63.1452 66.129C63.1452 66.129 63.1451 66.129 63.0645 66.129C63.0645 66.129 63.0645 66.129 62.9839 66.129H62.9032C62.3387 66.2903 61.7742 66.5322 61.4516 66.9355L61.371 67.0161L55.1613 73.3871C54.3548 74.1935 54.6774 75.1613 55.7258 75.7258C55.9677 75.8064 56.129 75.9677 56.4516 76.0484C58.0645 76.6129 60.1613 76.2903 61.0484 75.3226L63.3064 73.0645L65.7258 70.6451L69.9193 72.0161L73.871 73.3064C75.4839 73.8709 77.5806 73.5484 78.4677 72.5806C79.1935 71.8548 78.9516 70.8871 77.8226 70.2419Z" fill="#96A4EA"/>
<path d="M19.4354 93.2258C19.5161 93.2258 19.5161 93.3065 19.4354 93.2258V93.2258Z" fill="#FF8400"/>
<path d="M20.887 90.5645C20.2419 90.7257 19.758 91.0483 19.4354 91.4515C19.758 91.129 20.1612 90.8064 20.8064 90.6451L20.887 90.5645Z" fill="#FF8400"/>
<path d="M44.4354 93.9517C44.0322 93.7097 43.5483 93.5484 42.9032 93.4678L31.2903 91.6936L27.1774 93.0646L29.5967 95.4839L41.2096 97.2581C42.9838 97.5001 44.8387 96.9355 45.3225 95.8872C45.6451 95.1613 45.2419 94.4355 44.4354 93.9517Z" fill="#96A4EA"/>
<path d="M35.8871 87.258C34.8387 86.6128 33.1451 86.4515 31.7742 86.9354L20.8871 90.5644H20.8064C20.1613 90.8064 19.758 91.0483 19.4355 91.3709C19.1129 91.8548 19.1129 92.4193 19.5161 92.9031L19.5967 92.9838L25.9677 99.3547C26.129 99.516 26.2903 99.6773 26.5322 99.758C27.5806 100.403 29.2742 100.564 30.6451 100.081C32.258 99.516 32.8226 98.3064 31.8548 97.4193L29.5967 95.1612L27.1774 92.7418L31.2903 91.3709L35.2419 90.0806C36.8548 89.516 37.4193 88.3064 36.4516 87.4193C36.2903 87.4999 36.0484 87.3386 35.8871 87.258Z" fill="#96A4EA"/>
<path d="M54.6775 115.968C53.3871 115.161 51.2097 115.161 49.9194 115.968L41.4517 120.887V123.629H46.2097L54.6775 118.71C56.0484 117.984 56.0484 116.693 54.6775 115.968Z" fill="#96A4EA"/>
<path d="M53.2258 124.274C52.5806 123.952 51.7742 123.71 50.8064 123.71H46.2903H41.5323V120.968V118.307C41.5323 117.742 41.129 117.258 40.5645 116.936C39.9193 116.613 39.1129 116.371 38.1452 116.371C36.2903 116.371 34.7581 117.258 34.7581 118.307V125.645C34.7581 126.21 35.1613 126.694 35.7258 127.016C36.371 127.339 37.1774 127.581 38.1452 127.581H50.8871C52.7419 127.581 54.2742 126.694 54.2742 125.645C54.1935 125.081 53.7903 124.597 53.2258 124.274Z" fill="#96A4EA"/>
<path d="M95.9677 136.532C95.2419 136.613 94.5161 136.452 93.8709 136.29H93.7903C94.5161 136.452 95.2419 136.532 95.9677 136.532Z" fill="#FF8400"/>
<path d="M98.5484 135.484C98.1452 135.968 97.4194 136.21 96.6129 136.371C97.5 136.29 98.1452 135.968 98.5484 135.484Z" fill="#FF8400"/>
<path d="M92.6613 121.855C91.8549 121.371 90.5645 121.129 89.3549 121.371C87.5807 121.613 86.4516 122.742 86.9355 123.79L90.0807 130.484L94.2742 131.855L96.6936 129.436L93.5484 122.661C93.3871 122.419 93.1452 122.097 92.6613 121.855Z" fill="#96A4EA"/>
<path d="M104.355 126.774C104.113 126.694 103.952 126.532 103.629 126.452C102.016 125.887 99.9194 126.21 99.0323 127.177L96.7742 129.435L94.3549 131.855L90.1613 130.484L86.2097 129.194C84.5968 128.629 82.5 128.952 81.6129 129.919C80.8065 130.726 81.1291 131.694 82.1775 132.258C82.4194 132.339 82.5807 132.5 82.9033 132.581L93.871 136.21H93.9517C94.5968 136.452 95.3226 136.532 96.0484 136.452C96.0484 136.452 96.0484 136.452 96.1291 136.452H96.2097H96.2904H96.371H96.4517H96.5323C96.5323 136.452 96.5323 136.452 96.6129 136.452C97.4194 136.29 98.0646 135.968 98.4678 135.565L104.758 129.194C105.645 128.387 105.403 127.419 104.355 126.774Z" fill="#96A4EA"/>
<path d="M130.484 107.016L118.871 105.242C117.097 105 115.242 105.564 114.758 106.613C114.436 107.339 114.839 108.064 115.645 108.548C116.048 108.79 116.532 108.952 117.177 109.032L128.79 110.806L132.903 109.435L130.484 107.016Z" fill="#96A4EA"/>
<path d="M140.807 110.806C140.565 111.29 140 111.694 139.274 111.935H139.194C139.919 111.694 140.484 111.29 140.807 110.806Z" fill="#FF8400"/>
<path d="M140.403 109.194C140.806 109.597 140.968 110 140.887 110.403C140.968 109.919 140.806 109.516 140.403 109.194Z" fill="#FF8400"/>
<path d="M133.548 102.419C132.5 101.774 130.807 101.694 129.436 102.097C127.823 102.661 127.258 103.871 128.226 104.758L130.484 107.016L132.903 109.436L128.79 110.806L124.839 112.097C123.226 112.661 122.661 113.871 123.629 114.758C123.79 114.919 123.952 115.081 124.194 115.161C125.242 115.806 126.936 115.968 128.307 115.484L139.274 111.774H139.355C140.081 111.532 140.645 111.129 140.887 110.645C140.887 110.645 140.887 110.645 140.887 110.565V110.484C140.887 110.403 140.887 110.403 140.968 110.323C140.968 110.323 140.968 110.323 140.968 110.242C141.048 109.839 140.887 109.436 140.565 109.032L134.194 102.661C133.952 102.661 133.71 102.5 133.548 102.419Z" fill="#96A4EA"/>
<path d="M79.9999 115.887C93.9852 115.887 105.323 109.352 105.323 101.29C105.323 93.2288 93.9852 86.6936 79.9999 86.6936C66.0147 86.6936 54.6774 93.2288 54.6774 101.29C54.6774 109.352 66.0147 115.887 79.9999 115.887Z" fill="#96A4EA"/>
<path d="M80 109.839C90.244 109.839 98.5484 106.011 98.5484 101.29C98.5484 96.5692 90.244 92.7419 80 92.7419C69.7561 92.7419 61.4517 96.5692 61.4517 101.29C61.4517 106.011 69.7561 109.839 80 109.839Z" fill="white"/>
<path d="M65.5646 47.1772L63.7904 48.7095C62.0968 50.1611 66.1291 71.9353 44.4355 60.9676" stroke="#E07000" stroke-width="10.1899" stroke-miterlimit="10" stroke-linecap="round" stroke-linejoin="round"/>
<path d="M71.9355 95.7257L67.9033 86.4515C64.3549 82.7419 78.6291 67.5806 78.6291 67.5806L81.8549 67.9838" stroke="#E07000" stroke-width="10.1899" stroke-miterlimit="10" stroke-linecap="round" stroke-linejoin="round"/>
<path d="M65.5646 47.1772C73.5484 53.3869 78.9517 60.3224 81.8549 68.0643" stroke="#FF8400" stroke-width="15.2849" stroke-miterlimit="10" stroke-linecap="round" stroke-linejoin="round"/>
<path d="M65.5646 47.1774L72.1775 47.0161C72.1775 47.0161 89.6775 42.6613 93.9517 60.9677" stroke="#FF8400" stroke-width="10.1899" stroke-miterlimit="10" stroke-linecap="round" stroke-linejoin="round"/>
<path d="M81.7743 68.0645L84.4356 68.4677C84.4356 68.4677 82.6614 89.1935 90.7259 89.9193C95.242 90.3225 102.984 81.9354 102.984 81.9354" stroke="#FF8400" stroke-width="10.1899" stroke-miterlimit="10" stroke-linecap="round" stroke-linejoin="round"/>
<path d="M63.2258 50.2417C66.4772 50.2417 69.1129 47.606 69.1129 44.3546C69.1129 41.1033 66.4772 38.4675 63.2258 38.4675C59.9745 38.4675 57.3387 41.1033 57.3387 44.3546C57.3387 47.606 59.9745 50.2417 63.2258 50.2417Z" fill="#E07000"/>
<path d="M60.6452 46.5322C67.4597 46.5322 72.9839 41.0079 72.9839 34.1934C72.9839 27.379 67.4597 21.8547 60.6452 21.8547C53.8307 21.8547 48.3065 27.379 48.3065 34.1934C48.3065 41.0079 53.8307 46.5322 60.6452 46.5322Z" fill="#FF8400"/>
<path d="M63.9517 80.6453C60.4839 81.613 56.9356 82.8227 54.113 85.0807C53.4678 85.6453 52.8227 86.2904 52.3388 87.0162C51.8549 87.742 51.5323 88.6291 51.5323 89.4356C51.5323 91.2098 52.8227 92.6614 54.1936 93.7098C57.0162 95.8066 60.5646 97.0162 64.0323 97.9033C67.5001 98.7904 71.1291 99.2743 74.7581 99.5162C81.9356 100 89.2743 99.5969 96.2904 97.9033C98.0646 97.5001 99.7581 96.9356 101.452 96.2904C103.145 95.6453 104.758 94.7582 106.129 93.7098C106.855 93.1453 107.5 92.5001 107.984 91.7743C108.468 91.0485 108.79 90.1614 108.71 89.2743C108.71 88.3872 108.307 87.5001 107.823 86.7743C107.339 86.0485 106.613 85.4033 105.968 84.8388C106.694 85.4033 107.419 85.9678 107.903 86.6937C108.468 87.4195 108.871 88.3066 108.952 89.1937C109.032 90.1614 108.79 91.0485 108.307 91.8549C107.823 92.6614 107.177 93.3066 106.452 93.9517C105 95.1614 103.387 95.9678 101.694 96.6937C100 97.4195 98.2259 97.984 96.5323 98.4678C92.9839 99.4356 89.3549 99.9195 85.7259 100.242C82.0969 100.484 78.4678 100.565 74.7581 100.323C71.1291 100.081 67.5001 99.5162 63.9517 98.6291C62.1775 98.1453 60.4033 97.6614 58.7098 96.9356C57.0162 96.2098 55.3227 95.4033 53.871 94.1937C53.1452 93.6291 52.5001 92.984 51.9356 92.1775C51.4517 91.3711 51.0485 90.484 51.0485 89.5162C51.0485 88.5485 51.4517 87.5807 51.9356 86.8549C52.5001 86.0485 53.1452 85.4033 53.871 84.8388C56.8549 82.6614 60.4033 81.5324 63.9517 80.6453Z" fill="#6D7FBF"/>
<path d="M80.0001 78.8711C78.3872 78.8711 76.6936 78.9517 75.1614 78.9517" stroke="#6D7FBF" stroke-width="0.1417" stroke-miterlimit="10" stroke-linecap="round"/>
<path d="M98.2258 80.4034C95.4032 79.8388 92.3387 79.355 89.1129 79.113" stroke="#6D7FBF" stroke-width="0.1417" stroke-miterlimit="10" stroke-linecap="round"/>
<path d="M57.5001 57.3388C55.3226 57.8226 53.1452 58.3872 50.9678 59.0323C49.9194 59.4356 48.871 59.8388 47.9033 60.3227C46.9355 60.8065 45.9678 61.371 45.1613 62.1775C44.7581 62.5001 44.4355 62.9839 44.1936 63.4678C43.9517 63.9517 43.9517 64.5162 44.113 65.0001C44.2742 65.4839 44.5162 65.9678 44.9194 66.371C45.3226 66.7743 45.7259 67.0968 46.2097 67.4194C48.0646 68.6291 50.1613 69.3549 52.3388 70.0001C56.613 71.2097 61.0484 71.9356 65.5646 72.3388C70.0001 72.742 74.5162 72.9839 78.9517 72.9033C83.4678 72.9033 87.9033 72.6614 92.3388 72.1775C96.7743 71.6936 101.21 70.8872 105.484 69.5162C106.532 69.1936 107.581 68.7904 108.548 68.3065C109.516 67.8226 110.484 67.2581 111.29 66.5323C111.694 66.1291 112.016 65.7259 112.177 65.242C112.339 64.7581 112.339 64.1936 112.097 63.7097C111.694 62.742 110.807 62.0162 109.919 61.371C108.065 60.1614 105.887 59.4356 103.79 58.7097C101.613 58.0646 99.4355 57.5807 97.2581 57.1775C99.5162 57.5001 101.694 57.9839 103.871 58.5485C106.048 59.1936 108.226 59.8388 110.161 61.0485C111.129 61.6936 112.097 62.4194 112.581 63.5485C112.823 64.113 112.823 64.7581 112.661 65.3226C112.5 65.8872 112.097 66.371 111.694 66.8549C110.887 67.6614 109.839 68.3065 108.871 68.7904C107.823 69.2743 106.774 69.7581 105.726 70.0807C101.452 71.5323 96.9355 72.2581 92.5001 72.8227C87.9839 73.3872 83.5484 73.6291 79.0323 73.6291C74.5162 73.6291 70.0001 73.4678 65.5646 72.9839C61.0484 72.5001 56.613 71.8549 52.2581 70.4839C50.0807 69.8388 47.9839 69.0323 46.0484 67.742C45.5646 67.4194 45.0807 67.0968 44.7581 66.613C44.3549 66.2097 44.0323 65.6452 43.871 65.0807C43.7097 64.5162 43.7904 63.871 44.0323 63.3065C44.2742 62.742 44.6775 62.2581 45.0807 61.9356C45.9678 61.1291 46.9355 60.6452 47.9839 60.1614C49.0323 59.6775 50.0807 59.2743 51.1291 58.9517C53.1452 58.2259 55.3226 57.742 57.5001 57.3388Z" fill="#6D7FBF"/>
<path d="M87.1775 55.8066C86.371 55.8066 85.5646 55.8066 84.7581 55.8066C83.9516 55.7259 83.1452 55.7259 82.3387 55.6453C83.1452 55.6453 83.9516 55.6453 84.7581 55.6453C85.5646 55.6453 86.371 55.6453 87.1775 55.8066Z" fill="#6D7FBF"/>
<path d="M48.1452 34.9194C46.2904 35.3226 44.5162 35.7258 42.742 36.4516C41.8549 36.7742 41.0484 37.1775 40.3226 37.742C40 38.0645 39.6775 38.3871 39.6775 38.7904C39.6775 39.1936 39.9194 39.5968 40.242 39.8387C40.8871 40.4033 41.7742 40.8065 42.6613 41.1291C43.5484 41.4516 44.4355 41.6936 45.3226 41.9355C47.0968 42.3387 48.9517 42.6613 50.8065 42.9033C58.1452 43.871 65.6452 44.0323 73.0646 43.7097C76.7742 43.5484 80.4839 43.2258 84.113 42.6613C85.9678 42.3387 87.742 42.0162 89.5162 41.4516C90.4033 41.2097 91.2904 40.8871 92.0968 40.4839C92.5 40.3226 92.9033 40.0807 93.2259 39.7581C93.5484 39.5162 93.7904 39.1129 93.871 38.7904C93.9517 38.4678 93.7097 38.0645 93.3871 37.8226C93.0646 37.5 92.6613 37.2581 92.2581 37.0968C91.4517 36.6936 90.5646 36.371 89.6775 36.0484C87.9033 35.4839 86.1291 35.0807 84.2742 34.7581C80.6452 34.1129 76.9355 33.7097 73.1452 33.4678C76.8549 33.6291 80.5646 33.871 84.2742 34.4355C86.1291 34.7581 87.9839 35.0807 89.7581 35.6452C90.6452 35.8871 91.5323 36.2097 92.4194 36.6936C92.8226 36.9355 93.2259 37.1775 93.6291 37.5C93.9517 37.8226 94.3549 38.3065 94.3549 38.9516C94.2742 39.5162 93.9517 40 93.5484 40.3226C93.1452 40.6452 92.742 40.8871 92.3388 41.1291C91.4517 41.5323 90.5646 41.8549 89.6775 42.1775C87.9033 42.742 86.0484 43.0645 84.1936 43.3871C80.4839 44.0323 76.7742 44.3549 73.0646 44.5162C69.3549 44.6775 65.5646 44.6775 61.8549 44.5162C58.2258 44.3549 54.5162 44.1129 50.8065 43.5484C48.9517 43.2258 47.0968 42.9033 45.3226 42.4194C44.4355 42.1774 43.5484 41.9355 42.6613 41.5323C41.7742 41.2097 40.8871 40.8065 40.1613 40.1613C39.8388 39.8387 39.4355 39.3549 39.5162 38.7904C39.5968 38.2258 39.9194 37.8226 40.242 37.5C40.9678 36.8549 41.8549 36.5323 42.742 36.2097C44.5162 35.6452 46.371 35.242 48.1452 34.9194Z" fill="#6D7FBF"/>
</svg>
