<?xml version="1.0" encoding="utf-8"?>
<!-- Generator: Adobe Illustrator 27.8.1, SVG Export Plug-In . SVG Version: 6.00 Build 0)  -->
<svg version="1.1" id="Capa_1" xmlns="http://www.w3.org/2000/svg" xmlns:xlink="http://www.w3.org/1999/xlink" x="0px" y="0px"
	width="24" height="24" viewBox="0 0 24 24" style="enable-background:new 0 0 24 24;" xml:space="preserve">
<style type="text/css">
	.st0{fill:#ffffff;}
</style>
<path class="st0" d="M12,2c-5.5,0-9.9,4.4-9.9,9.9c0,1.8,0.5,3.4,1.3,5L2.1,22l5.2-1.4c1.4,0.8,3.1,1.2,4.7,1.2
	c5.5,0,9.9-4.5,9.9-9.9c0-2.6-1-5.1-2.9-7C17.2,3,14.7,2,12,2z M12.1,3.7c2.2,0,4.3,0.9,5.8,2.4c1.5,1.6,2.4,3.6,2.4,5.8
	c0,4.5-3.7,8.2-8.2,8.2c-1.5,0-2.9-0.4-4.2-1.1l-0.3-0.2l-3.1,0.8l0.8-3l-0.2-0.3c-0.8-1.3-1.3-2.8-1.3-4.4
	C3.8,7.4,7.5,3.7,12.1,3.7z M8.5,7.3c-0.2,0-0.4,0.1-0.7,0.3C7.7,7.9,7,8.5,7,9.7c0,1.2,0.9,2.4,1,2.6c0.1,0.2,1.8,2.7,4.2,3.7
	c0.6,0.3,1.1,0.4,1.4,0.5c0.6,0.2,1.1,0.2,1.6,0.1c0.5-0.1,1.5-0.6,1.7-1.2c0.2-0.6,0.2-1.1,0.2-1.2c-0.1-0.1-0.2-0.2-0.5-0.3
	c-0.2-0.1-1.5-0.7-1.7-0.8c-0.2-0.1-0.4-0.1-0.6,0.1c-0.2,0.2-0.6,0.8-0.8,1c-0.1,0.2-0.3,0.2-0.5,0.1c-0.3-0.1-1.1-0.4-2-1.2
	c-0.7-0.7-1.2-1.5-1.4-1.7c-0.1-0.2,0-0.4,0.1-0.5c0.1-0.1,0.3-0.3,0.4-0.4c0.1-0.1,0.2-0.2,0.2-0.4c0.1-0.2,0-0.3,0-0.4
	c-0.1-0.1-0.6-1.3-0.8-1.8C9.4,7.3,9.2,7.3,9,7.3C8.9,7.3,8.7,7.3,8.5,7.3z"/>
</svg>
