<svg width="250" height="83" viewBox="0 0 250 83" fill="none" xmlns="http://www.w3.org/2000/svg">
<path d="M70.5049 67.3045L93.5098 11.1726L116.515 67.3045H111.417L93.5098 22.9886L75.6107 67.3045H70.5049Z" fill="white"/>
<path d="M0.586334 67.3045V12.9641H27.5V17.5976H5.5782V34.6009H27.5V39.2263H5.5782V62.6709H27.5V67.3045H0.586334Z" fill="white"/>
<path d="M35.4642 58.1189L39.7313 55.8794C40.456 58.5586 41.8323 60.6514 43.7866 62.101C45.741 63.5423 48.0537 64.2752 50.8062 64.2752C54.2101 64.2752 56.8893 63.2573 58.8355 61.2378C60.7899 59.2101 61.7345 56.4576 61.7345 52.842C61.7345 50.2361 61.0831 48.0619 59.7801 46.3273C58.4772 44.5928 55.7248 42.5651 51.4577 40.3257C45.9609 37.4348 42.3453 34.829 40.5375 32.6547C38.7296 30.4886 37.785 27.8094 37.785 24.6987C37.785 20.8632 39.0879 17.7524 41.6938 15.2931C44.2997 12.9071 47.6954 11.6775 51.8974 11.6775C54.5765 11.6775 56.9625 12.2557 58.9902 13.412C61.0179 14.4951 62.6059 16.2296 63.9088 18.5505L60.0733 20.8632C59.2752 19.2752 58.1922 18.1189 56.7427 17.3208C55.2932 16.4495 53.5586 16.0912 51.6042 16.0912C48.9251 16.0912 46.759 16.8811 45.1629 18.4039C43.5749 19.9918 42.842 22.0928 42.842 24.772C42.842 28.6075 45.9528 32.1498 52.2476 35.4071C53.4039 36.0586 54.2752 36.4902 54.8534 36.7834C59.487 39.3892 62.5244 41.7752 64.1124 44.0228C65.6352 46.3355 66.4332 49.2264 66.4332 52.8501C66.4332 57.6954 65.057 61.6042 62.1661 64.4299C59.3404 67.3208 55.4316 68.7703 50.5863 68.7703C46.9707 68.7703 43.9332 67.8339 41.4006 66.0912C38.8599 64.2671 36.9055 61.6612 35.4642 58.1189Z" fill="white"/>
<path d="M126.922 67.3045V17.5976H111.946V12.9641H146.816V17.5976H131.84V67.3045H126.922Z" fill="white"/>
<path d="M163.738 0.325684V81.9218" stroke="white" stroke-width="0.6353"/>
<path d="M179.577 13.241H183.599V14.0471H180.44V16.3517H183.51V17.1579H180.44V20.2035H183.599V21.0097H179.577V13.241Z" fill="white"/>
<path d="M189.112 14.7556C188.803 14.2182 188.428 13.9087 187.777 13.9087C187.085 13.9087 186.49 14.4055 186.49 15.1139C186.49 15.7817 187.182 16.0911 187.704 16.3273L188.217 16.5553C189.226 16.995 190.081 17.4999 190.081 18.7377C190.081 20.0977 188.99 21.14 187.647 21.14C186.401 21.14 185.472 20.3338 185.228 19.1286L186.075 18.8925C186.189 19.6824 186.791 20.3338 187.63 20.3338C188.461 20.3338 189.226 19.6986 189.226 18.8191C189.226 17.9152 188.518 17.6058 187.801 17.2719L187.329 17.0683C186.425 16.6612 185.643 16.197 185.643 15.0814C185.643 13.8761 186.661 13.1025 187.818 13.1025C188.681 13.1025 189.414 13.5423 189.821 14.3078L189.112 14.7556Z" fill="white"/>
<path d="M197.785 14.943C197.166 14.3078 196.311 13.917 195.415 13.917C193.681 13.917 192.288 15.4235 192.288 17.1254C192.288 18.8355 193.697 20.342 195.44 20.342C196.311 20.342 197.174 19.9267 197.785 19.316V20.3828C197.117 20.8632 196.295 21.1482 195.464 21.1482C193.274 21.1482 191.417 19.3648 191.417 17.1661C191.417 14.943 193.241 13.1189 195.464 13.1189C196.327 13.1189 197.093 13.3632 197.785 13.8844V14.943Z" fill="white"/>
<path d="M200.603 17.8665C200.603 18.4446 200.578 19.1042 200.945 19.5928C201.287 20.0652 201.946 20.3339 202.508 20.3339C203.062 20.3339 203.673 20.0733 204.031 19.6417C204.446 19.1531 204.414 18.4691 204.414 17.8583V13.2329H205.277V18.0945C205.277 18.9414 205.22 19.6091 204.601 20.2443C204.063 20.8225 203.29 21.1319 202.508 21.1319C201.783 21.1319 201.026 20.8551 200.505 20.342C199.821 19.6906 199.739 18.9821 199.739 18.0945V13.2329H200.603V17.8665Z" fill="white"/>
<path d="M207.337 13.241H211.36V14.0471H208.2V16.3517H211.27V17.1579H208.2V20.2035H211.36V21.0097H207.337V13.241Z" fill="white"/>
<path d="M214.218 20.2034H216.36V21.0096H213.355V13.249H214.218V20.2034Z" fill="white"/>
<path d="M218.892 18.8028L217.956 21.0097H217.003L220.586 12.8745L224.08 21.0097H223.127L222.215 18.8028H218.892ZM220.57 14.8859L219.243 17.9967H221.865L220.57 14.8859Z" fill="white"/>
<path d="M183.094 30.2117C182.785 29.6742 182.41 29.3648 181.759 29.3648C181.067 29.3648 180.472 29.8615 180.472 30.57C180.472 31.2377 181.164 31.5472 181.686 31.7833L182.207 32.0114C183.217 32.4511 184.063 32.956 184.063 34.1938C184.063 35.5537 182.972 36.596 181.629 36.596C180.383 36.596 179.454 35.7899 179.21 34.5846L180.057 34.3485C180.171 35.1384 180.782 35.7899 181.612 35.7899C182.443 35.7899 183.208 35.1547 183.208 34.2752C183.208 33.3713 182.5 33.0618 181.783 32.728L181.311 32.5244C180.407 32.1172 179.625 31.6449 179.625 30.5374C179.625 29.3322 180.643 28.5586 181.8 28.5586C182.663 28.5586 183.396 28.9983 183.803 29.7638L183.094 30.2117Z" fill="white"/>
<path d="M186.686 33.3142C186.686 33.8924 186.661 34.552 187.028 35.0406C187.37 35.5129 188.021 35.7816 188.591 35.7816C189.145 35.7816 189.756 35.5211 190.114 35.0895C190.521 34.6009 190.497 33.9168 190.497 33.3061V28.6807H191.368V33.5422C191.368 34.3891 191.311 35.0569 190.692 35.6921C190.155 36.2702 189.381 36.5797 188.599 36.5797C187.866 36.5797 187.117 36.3028 186.596 35.7898C185.912 35.1383 185.831 34.4299 185.831 33.5422V28.6807H186.694V33.3142H186.686Z" fill="white"/>
<path d="M194.283 36.4576H193.42V28.697H194.699C195.366 28.697 196.059 28.7133 196.621 29.1123C197.199 29.5114 197.492 30.1954 197.492 30.8795C197.492 31.5065 197.239 32.1417 196.751 32.5488C196.23 32.9804 195.554 33.0619 194.91 33.0619H194.283V36.4576ZM194.283 32.2556H194.862C195.822 32.2556 196.637 31.9707 196.637 30.855C196.637 29.5928 195.619 29.4951 194.609 29.4951H194.283V32.2556Z" fill="white"/>
<path d="M199.112 28.697H203.143V29.5032H199.984V31.8078H203.054V32.614H199.984V35.6596H203.143V36.4658H199.112V28.697Z" fill="white"/>
<path d="M205.993 36.4576H205.13V28.697H206.254C207.728 28.697 209.096 29.0879 209.096 30.8387C209.096 32.0358 208.339 32.8746 207.15 32.9804L209.625 36.4576H208.567L206.221 33.0456H206.002V36.4576H205.993ZM205.993 32.2882H206.262C207.239 32.2882 208.233 32.1009 208.233 30.8957C208.233 29.6172 207.296 29.4951 206.254 29.4951H205.993V32.2882Z" fill="white"/>
<path d="M212.117 36.4576H211.254V28.697H212.117V36.4576Z" fill="white"/>
<path d="M221.906 32.5814C221.906 34.8127 220.073 36.5879 217.858 36.5879C215.643 36.5879 213.811 34.8208 213.811 32.5814C213.811 30.3583 215.643 28.5586 217.858 28.5586C220.073 28.5586 221.906 30.3583 221.906 32.5814ZM214.682 32.5732C214.682 34.3241 216.107 35.7817 217.866 35.7817C219.625 35.7817 221.042 34.3159 221.042 32.5732C221.042 30.8143 219.642 29.3566 217.866 29.3566C216.091 29.3566 214.682 30.8143 214.682 32.5732Z" fill="white"/>
<path d="M224.463 36.4576H223.599V28.697H224.723C226.197 28.697 227.565 29.0879 227.565 30.8387C227.565 32.0358 226.808 32.8746 225.619 32.9804L228.094 36.4576H227.036L224.691 33.0456H224.471V36.4576H224.463ZM224.463 32.2882H224.731C225.708 32.2882 226.702 32.1009 226.702 30.8957C226.702 29.6172 225.765 29.4951 224.723 29.4951H224.463V32.2882Z" fill="white"/>
<path d="M233.388 28.697H234.853C236.018 28.697 236.963 28.8518 237.883 29.6335C238.77 30.3909 239.169 31.4332 239.169 32.5895C239.169 33.7215 238.762 34.7231 237.907 35.4804C236.979 36.3029 236.05 36.4576 234.837 36.4576H233.396V28.697H233.388ZM234.886 35.6514C235.839 35.6514 236.629 35.5211 237.337 34.8452C237.972 34.2508 238.306 33.4364 238.306 32.5733C238.306 31.6856 237.964 30.8306 237.296 30.2443C236.588 29.6172 235.798 29.4951 234.886 29.4951H234.259V35.6514H234.886Z" fill="white"/>
<path d="M240.888 28.697H244.919V29.5032H241.759V31.8078H244.829V32.614H241.759V35.6596H244.919V36.4658H240.888V28.697Z" fill="white"/>
<path d="M180.741 49.7067L179.805 51.9135H178.86L182.443 43.7783L185.936 51.9135H184.984L184.063 49.7067H180.741ZM182.41 45.7897L181.083 48.9005H183.705L182.41 45.7897Z" fill="white"/>
<path d="M188.151 51.9054H187.288V44.1448H188.412C189.886 44.1448 191.254 44.5357 191.254 46.2865C191.254 47.4835 190.497 48.3223 189.308 48.4282L191.775 51.9054H190.717L188.371 48.4933H188.151V51.9054ZM188.151 47.736H188.42C189.397 47.736 190.391 47.5487 190.391 46.3435C190.391 45.065 189.454 44.9428 188.412 44.9428H188.151V47.736Z" fill="white"/>
<path d="M195.244 51.9054H194.381V44.9429H192.508V44.1367H197.142V44.9429H195.244V51.9054Z" fill="white"/>
<path d="M198.534 44.1448H202.557V44.951H199.397V47.2555H202.467V48.0617H199.397V51.1073H202.557V51.9135H198.534V44.1448Z" fill="white"/>
<path d="M207.541 44.1448H208.542L210.521 47.6057L212.5 44.1448H213.502L210.953 48.5747V51.9135H210.09V48.5747L207.541 44.1448Z" fill="white"/>
<path d="M181.629 67.3615H180.765V60.399H178.893V59.5928H183.526V60.399H181.629V67.3615Z" fill="white"/>
<path d="M184.927 59.6008H188.95V60.407H185.79V62.7034H188.86V63.5096H185.79V66.5552H188.95V67.3614H184.927V59.6008Z" fill="white"/>
<path d="M196.865 61.2947C196.246 60.6595 195.391 60.2686 194.495 60.2686C192.769 60.2686 191.368 61.7751 191.368 63.4771C191.368 65.1872 192.777 66.6856 194.52 66.6856C195.399 66.6856 196.246 66.2702 196.865 65.6595V66.7263C196.197 67.2149 195.366 67.4917 194.544 67.4917C192.353 67.4917 190.497 65.7083 190.497 63.5096C190.497 61.2865 192.321 59.4624 194.544 59.4624C195.407 59.4624 196.173 59.7148 196.865 60.2279V61.2947Z" fill="white"/>
<path d="M198.901 59.2671L204.951 65.6107V59.601H205.814V67.7117L199.756 61.3762V67.3616H198.892V59.2671H198.901Z" fill="white"/>
<path d="M215.66 63.4935C215.66 65.7329 213.827 67.5001 211.612 67.5001C209.397 67.5001 207.565 65.7329 207.565 63.4935C207.565 61.2704 209.397 59.4707 211.612 59.4707C213.819 59.4626 215.66 61.2704 215.66 63.4935ZM208.428 63.4773C208.428 65.2281 209.853 66.6857 211.612 66.6857C213.371 66.6857 214.796 65.2281 214.796 63.4773C214.796 61.7183 213.396 60.2688 211.612 60.2688C209.829 60.2688 208.428 61.7183 208.428 63.4773Z" fill="white"/>
<path d="M218.208 66.5552H220.35V67.3614H217.345V59.6008H218.208V66.5552Z" fill="white"/>
<path d="M229.43 63.4935C229.43 65.7329 227.598 67.5001 225.383 67.5001C223.168 67.5001 221.335 65.7329 221.335 63.4935C221.335 61.2704 223.168 59.4707 225.383 59.4707C227.598 59.4626 229.43 61.2704 229.43 63.4935ZM222.199 63.4773C222.199 65.2281 223.624 66.6857 225.383 66.6857C227.142 66.6857 228.567 65.2281 228.567 63.4773C228.567 61.7183 227.166 60.2688 225.383 60.2688C223.599 60.2688 222.199 61.7183 222.199 63.4773Z" fill="white"/>
<path d="M238.339 63.4608C238.355 64.5113 238.241 65.3745 237.541 66.197C236.832 67.0195 235.749 67.4918 234.666 67.4918C232.484 67.4918 230.668 65.6758 230.668 63.4934C230.668 61.2703 232.476 59.4543 234.715 59.4543C236.075 59.4543 237.174 60.0651 237.997 61.1319L237.37 61.7182C236.718 60.8061 235.847 60.2524 234.707 60.2524C232.94 60.2524 231.539 61.7426 231.539 63.4934C231.539 64.3159 231.865 65.0977 232.443 65.684C233.013 66.254 233.827 66.6693 234.65 66.6693C236.002 66.6693 237.419 65.684 237.419 64.2426H235.114V63.4364H238.339V63.4608Z" fill="white"/>
<path d="M241.832 57.4267L240.261 59.0146L239.748 58.7296L240.969 57.0439L241.832 57.4267ZM240.969 67.3615H240.106V59.601H240.969V67.3615Z" fill="white"/>
<path d="M244.226 65.1547L243.29 67.3615H242.337L245.92 59.2263L249.414 67.3615H248.453L247.541 65.1547H244.226ZM245.904 61.2458L244.577 64.3566H247.199L245.904 61.2458Z" fill="white"/>
</svg>
