<svg width="244" height="80" viewBox="0 0 244 80" fill="none" xmlns="http://www.w3.org/2000/svg">
<path d="M68.5781 65.4654L90.9544 10.8673L113.331 65.4654H108.372L90.9544 22.3604L73.5445 65.4654H68.5781Z" fill="#EF7D00"/>
<path d="M0.570312 65.4654V12.6099H26.7485V17.1168H5.42576V33.6554H26.7485V38.1545H5.42576V60.9584H26.7485V65.4654H0.570312Z" fill="white"/>
<path d="M34.4951 56.5307L38.6456 54.3525C39.3506 56.9584 40.6892 58.9941 42.5902 60.404C44.4912 61.806 46.7407 62.5188 49.4179 62.5188C52.7288 62.5188 55.3347 61.5287 57.2278 59.5644C59.1288 57.5921 60.0476 54.9149 60.0476 51.398C60.0476 48.8634 59.4139 46.7485 58.1466 45.0614C56.8793 43.3743 54.202 41.402 50.0516 39.2238C44.705 36.4119 41.1882 33.8772 39.4298 31.7624C37.6714 29.6555 36.7525 27.0495 36.7525 24.0238C36.7525 20.2931 38.0199 17.2673 40.5545 14.8753C43.0892 12.5545 46.3921 11.3584 50.4793 11.3584C53.0852 11.3584 55.406 11.9208 57.3783 13.0456C59.3506 14.099 60.8951 15.7862 62.1624 18.0436L58.4317 20.2931C57.6555 18.7485 56.602 17.6238 55.1921 16.8475C53.7822 16 52.0951 15.6515 50.1941 15.6515C47.5882 15.6515 45.4813 16.4198 43.9288 17.901C42.3842 19.4456 41.6714 21.4891 41.6714 24.0951C41.6714 27.8258 44.6971 31.2713 50.8199 34.4396C51.9446 35.0733 52.7921 35.4931 53.3545 35.7782C57.8615 38.3129 60.8159 40.6337 62.3605 42.8198C63.8416 45.0693 64.6179 47.8812 64.6179 51.406C64.6179 56.1188 63.2793 59.9208 60.4674 62.6693C57.7189 65.4812 53.9169 66.8911 49.204 66.8911C45.6872 66.8911 42.7327 65.9802 40.2694 64.2852C37.7981 62.5109 35.8971 59.9762 34.4951 56.5307Z" fill="white"/>
<path d="M123.454 65.4654V17.1168H108.887V12.6099H142.804V17.1168H128.238V65.4654H123.454Z" fill="white"/>
<path d="M159.263 0.316833V79.6832" stroke="white" stroke-width="0.6353"/>
<path d="M174.669 12.8792H178.582V13.6634H175.509V15.9049H178.495V16.6891H175.509V19.6515H178.582V20.4356H174.669V12.8792Z" fill="white"/>
<path d="M183.944 14.3525C183.644 13.8297 183.279 13.5287 182.645 13.5287C181.972 13.5287 181.394 14.0119 181.394 14.701C181.394 15.3505 182.067 15.6515 182.574 15.8812L183.073 16.1029C184.055 16.5307 184.887 17.0218 184.887 18.2257C184.887 19.5485 183.826 20.5624 182.519 20.5624C181.307 20.5624 180.404 19.7782 180.166 18.6059L180.99 18.3762C181.101 19.1446 181.687 19.7782 182.503 19.7782C183.311 19.7782 184.055 19.1604 184.055 18.3049C184.055 17.4257 183.366 17.1247 182.669 16.8L182.21 16.602C181.331 16.2059 180.57 15.7544 180.57 14.6693C180.57 13.497 181.56 12.7445 182.685 12.7445C183.525 12.7445 184.238 13.1723 184.634 13.9168L183.944 14.3525Z" fill="white"/>
<path d="M192.38 14.5346C191.778 13.9168 190.946 13.5366 190.075 13.5366C188.388 13.5366 187.034 15.002 187.034 16.6574C187.034 18.3208 188.404 19.7861 190.099 19.7861C190.946 19.7861 191.786 19.3822 192.38 18.7881V19.8257C191.731 20.2931 190.931 20.5703 190.123 20.5703C187.992 20.5703 186.186 18.8356 186.186 16.697C186.186 14.5346 187.96 12.7604 190.123 12.7604C190.962 12.7604 191.707 12.998 192.38 13.5049V14.5346Z" fill="white"/>
<path d="M195.121 17.3782C195.121 17.9406 195.097 18.5822 195.453 19.0574C195.786 19.5168 196.428 19.7782 196.974 19.7782C197.513 19.7782 198.107 19.5247 198.455 19.1049C198.859 18.6297 198.828 17.9643 198.828 17.3703V12.8713H199.667V17.6C199.667 18.4238 199.612 19.0732 199.01 19.6911C198.487 20.2534 197.734 20.5545 196.974 20.5545C196.269 20.5545 195.532 20.2851 195.026 19.7861C194.36 19.1525 194.281 18.4634 194.281 17.6V12.8713H195.121V17.3782Z" fill="white"/>
<path d="M201.671 12.8792H205.584V13.6634H202.511V15.9049H205.497V16.6891H202.511V19.6515H205.584V20.4356H201.671V12.8792Z" fill="white"/>
<path d="M208.364 19.6515H210.447V20.4356H207.525V12.8871H208.364V19.6515Z" fill="white"/>
<path d="M212.911 18.2891L212 20.4356H211.073L214.558 12.5228L217.956 20.4356H217.03L216.143 18.2891H212.911ZM214.543 14.4792L213.251 17.505H215.802L214.543 14.4792Z" fill="white"/>
<path d="M178.091 29.3861C177.79 28.8634 177.426 28.5624 176.792 28.5624C176.119 28.5624 175.54 29.0456 175.54 29.7347C175.54 30.3842 176.214 30.6852 176.721 30.9149L177.228 31.1366C178.21 31.5644 179.034 32.0554 179.034 33.2594C179.034 34.5822 177.972 35.596 176.665 35.596C175.453 35.596 174.55 34.8119 174.313 33.6396L175.136 33.4099C175.247 34.1782 175.841 34.8119 176.649 34.8119C177.457 34.8119 178.202 34.1941 178.202 33.3386C178.202 32.4594 177.513 32.1584 176.816 31.8337L176.356 31.6357C175.477 31.2396 174.717 30.7802 174.717 29.703C174.717 28.5307 175.707 27.7782 176.832 27.7782C177.671 27.7782 178.384 28.2059 178.78 28.9505L178.091 29.3861Z" fill="white"/>
<path d="M181.584 32.404C181.584 32.9663 181.56 33.6079 181.917 34.0832C182.249 34.5426 182.883 34.804 183.438 34.804C183.976 34.804 184.57 34.5505 184.919 34.1307C185.315 33.6554 185.291 32.9901 185.291 32.396V27.897H186.139V32.6257C186.139 33.4495 186.083 34.099 185.481 34.7168C184.958 35.2792 184.206 35.5802 183.446 35.5802C182.733 35.5802 182.004 35.3109 181.497 34.8119C180.832 34.1782 180.752 33.4891 180.752 32.6257V27.897H181.592V32.404H181.584Z" fill="white"/>
<path d="M188.974 35.4614H188.135V27.9129H189.378C190.028 27.9129 190.701 27.9287 191.247 28.3168C191.81 28.705 192.095 29.3703 192.095 30.0357C192.095 30.6456 191.849 31.2634 191.374 31.6594C190.867 32.0792 190.21 32.1584 189.584 32.1584H188.974V35.4614ZM188.974 31.3743H189.537C190.471 31.3743 191.263 31.097 191.263 30.0119C191.263 28.7842 190.273 28.6891 189.291 28.6891H188.974V31.3743Z" fill="white"/>
<path d="M193.671 27.9129H197.592V28.697H194.519V30.9386H197.505V31.7228H194.519V34.6852H197.592V35.4693H193.671V27.9129Z" fill="white"/>
<path d="M200.364 35.4614H199.525V27.9129H200.618C202.051 27.9129 203.382 28.2931 203.382 29.996C203.382 31.1604 202.645 31.9762 201.489 32.0792L203.897 35.4614H202.867L200.586 32.1426H200.372V35.4614H200.364ZM200.364 31.4059H200.626C201.576 31.4059 202.542 31.2238 202.542 30.0515C202.542 28.8079 201.632 28.6891 200.618 28.6891H200.364V31.4059Z" fill="white"/>
<path d="M206.321 35.4614H205.481V27.9129H206.321V35.4614Z" fill="white"/>
<path d="M215.842 31.6911C215.842 33.8614 214.059 35.5881 211.905 35.5881C209.75 35.5881 207.968 33.8693 207.968 31.6911C207.968 29.5287 209.75 27.7782 211.905 27.7782C214.059 27.7782 215.842 29.5287 215.842 31.6911ZM208.816 31.6832C208.816 33.3861 210.202 34.804 211.913 34.804C213.624 34.804 215.002 33.3782 215.002 31.6832C215.002 29.9723 213.64 28.5545 211.913 28.5545C210.186 28.5545 208.816 29.9723 208.816 31.6832Z" fill="white"/>
<path d="M218.329 35.4614H217.489V27.9129H218.582C220.016 27.9129 221.346 28.2931 221.346 29.996C221.346 31.1604 220.61 31.9762 219.453 32.0792L221.861 35.4614H220.832L218.55 32.1426H218.337V35.4614H218.329ZM218.329 31.4059H218.59C219.541 31.4059 220.507 31.2238 220.507 30.0515C220.507 28.8079 219.596 28.6891 218.582 28.6891H218.329V31.4059Z" fill="white"/>
<path d="M227.01 27.9129H228.436C229.568 27.9129 230.487 28.0634 231.382 28.8238C232.245 29.5604 232.634 30.5743 232.634 31.699C232.634 32.8 232.237 33.7743 231.406 34.5109C230.503 35.3109 229.6 35.4614 228.42 35.4614H227.018V27.9129H227.01ZM228.467 34.6772C229.394 34.6772 230.162 34.5505 230.851 33.8931C231.469 33.3149 231.794 32.5228 231.794 31.6832C231.794 30.8198 231.461 29.9881 230.812 29.4178C230.123 28.8079 229.354 28.6891 228.467 28.6891H227.857V34.6772H228.467Z" fill="white"/>
<path d="M234.305 27.9129H238.226V28.697H235.152V30.9386H238.139V31.7228H235.152V34.6852H238.226V35.4693H234.305V27.9129Z" fill="white"/>
<path d="M175.802 48.3485L174.891 50.495H173.972L177.457 42.5822L180.855 50.495H179.929L179.034 48.3485H175.802ZM177.426 44.5386L176.135 47.5643H178.685L177.426 44.5386Z" fill="white"/>
<path d="M183.01 50.4871H182.17V42.9386H183.263C184.697 42.9386 186.028 43.3188 186.028 45.0218C186.028 46.1861 185.291 47.002 184.135 47.1049L186.535 50.4871H185.505L183.224 47.1683H183.01V50.4871ZM183.01 46.4317H183.271C184.222 46.4317 185.188 46.2495 185.188 45.0772C185.188 43.8337 184.277 43.7148 183.263 43.7148H183.01V46.4317Z" fill="white"/>
<path d="M189.909 50.4871H189.069V43.7148H187.247V42.9307H191.754V43.7148H189.909V50.4871Z" fill="white"/>
<path d="M193.109 42.9386H197.022V43.7228H193.948V45.9643H196.935V46.7485H193.948V49.7109H197.022V50.495H193.109V42.9386Z" fill="white"/>
<path d="M201.869 42.9386H202.843L204.768 46.3049L206.693 42.9386H207.667L205.188 47.2475V50.495H204.348V47.2475L201.869 42.9386Z" fill="white"/>
<path d="M176.665 65.5208H175.826V58.7485H174.004V57.9644H178.511V58.7485H176.665V65.5208Z" fill="white"/>
<path d="M179.873 57.9723H183.786V58.7564H180.713V60.9901H183.699V61.7743H180.713V64.7367H183.786V65.5208H179.873V57.9723Z" fill="white"/>
<path d="M191.485 59.6198C190.883 59.002 190.051 58.6218 189.18 58.6218C187.501 58.6218 186.139 60.0871 186.139 61.7426C186.139 63.406 187.509 64.8634 189.204 64.8634C190.059 64.8634 190.883 64.4594 191.485 63.8654V64.903C190.836 65.3782 190.028 65.6475 189.228 65.6475C187.097 65.6475 185.291 63.9129 185.291 61.7743C185.291 59.6119 187.065 57.8376 189.228 57.8376C190.067 57.8376 190.812 58.0832 191.485 58.5822V59.6198Z" fill="white"/>
<path d="M193.465 57.6475L199.35 63.8178V57.9723H200.19V65.8614L194.297 59.699V65.5208H193.457V57.6475H193.465Z" fill="white"/>
<path d="M209.766 61.7584C209.766 63.9366 207.984 65.6555 205.83 65.6555C203.675 65.6555 201.893 63.9366 201.893 61.7584C201.893 59.596 203.675 57.8455 205.83 57.8455C207.976 57.8376 209.766 59.596 209.766 61.7584ZM202.733 61.7426C202.733 63.4456 204.119 64.8634 205.83 64.8634C207.541 64.8634 208.927 63.4456 208.927 61.7426C208.927 60.0317 207.564 58.6218 205.83 58.6218C204.095 58.6218 202.733 60.0317 202.733 61.7426Z" fill="white"/>
<path d="M212.245 64.7367H214.329V65.5208H211.406V57.9723H212.245V64.7367Z" fill="white"/>
<path d="M223.16 61.7584C223.16 63.9366 221.378 65.6555 219.224 65.6555C217.069 65.6555 215.287 63.9366 215.287 61.7584C215.287 59.596 217.069 57.8455 219.224 57.8455C221.378 57.8376 223.16 59.596 223.16 61.7584ZM216.127 61.7426C216.127 63.4456 217.513 64.8634 219.224 64.8634C220.935 64.8634 222.321 63.4456 222.321 61.7426C222.321 60.0317 220.958 58.6218 219.224 58.6218C217.489 58.6218 216.127 60.0317 216.127 61.7426Z" fill="white"/>
<path d="M231.826 61.7267C231.841 62.7485 231.731 63.5881 231.049 64.3881C230.36 65.1881 229.307 65.6475 228.253 65.6475C226.131 65.6475 224.364 63.8812 224.364 61.7584C224.364 59.596 226.123 57.8297 228.301 57.8297C229.624 57.8297 230.693 58.4238 231.493 59.4614L230.883 60.0317C230.249 59.1446 229.402 58.6059 228.293 58.6059C226.574 58.6059 225.212 60.0554 225.212 61.7584C225.212 62.5584 225.529 63.3188 226.091 63.8891C226.645 64.4436 227.438 64.8475 228.238 64.8475C229.552 64.8475 230.931 63.8891 230.931 62.4871H228.689V61.703H231.826V61.7267Z" fill="white"/>
<path d="M235.224 55.8574L233.695 57.402L233.196 57.1247L234.384 55.4851L235.224 55.8574ZM234.384 65.5208H233.544V57.9723H234.384V65.5208Z" fill="white"/>
<path d="M237.552 63.3742L236.642 65.5208H235.715L239.2 57.6079L242.598 65.5208H241.663L240.776 63.3742H237.552ZM239.184 59.5723L237.893 62.598H240.444L239.184 59.5723Z" fill="white"/>
</svg>
