<svg width="390" height="197" viewBox="0 0 390 197" fill="none" xmlns="http://www.w3.org/2000/svg">
<g clip-path="url(#clip0_505_381)">
<path d="M285.04 196.32C323.584 196.32 354.83 165.074 354.83 126.53C354.83 87.986 323.584 56.74 285.04 56.74C246.496 56.74 215.25 87.986 215.25 126.53C215.25 165.074 246.496 196.32 285.04 196.32Z" stroke="#EE7203" stroke-miterlimit="10"/>
<path d="M285.04 144.15C323.584 144.15 354.83 135.043 354.83 123.81C354.83 112.576 323.584 103.47 285.04 103.47C246.496 103.47 215.25 112.576 215.25 123.81C215.25 135.043 246.496 144.15 285.04 144.15Z" stroke="#EE7203" stroke-width="0.5" stroke-miterlimit="10"/>
<path d="M139.66 0.5H0.5V139.66H139.66V0.5Z" stroke="#EE7203" stroke-linecap="round" stroke-linejoin="round"/>
<path d="M185.81 72.2301V63.9401H188.77C189.41 63.9401 189.95 64.0601 190.37 64.2901C190.79 64.5301 191.11 64.8501 191.32 65.2501C191.53 65.6601 191.64 66.1101 191.64 66.6201C191.64 67.1301 191.53 67.5901 191.32 67.9901C191.11 68.4001 190.79 68.7201 190.36 68.9501C189.93 69.1901 189.4 69.3001 188.76 69.3001H186.73V68.2401H188.65C189.06 68.2401 189.39 68.1701 189.64 68.0301C189.89 67.8901 190.08 67.6901 190.2 67.4501C190.32 67.2101 190.38 66.9301 190.38 66.6101C190.38 66.2901 190.32 66.0201 190.2 65.7801C190.08 65.5401 189.89 65.3501 189.64 65.2101C189.39 65.0701 189.05 65.0001 188.63 65.0001H187.06V72.2201H185.81V72.2301Z" fill="white"/>
<path d="M195.54 72.3601C194.96 72.3601 194.45 72.2301 194.01 71.9601C193.58 71.6901 193.24 71.3201 193 70.8401C192.76 70.3601 192.64 69.8001 192.64 69.1601C192.64 68.5201 192.76 67.9501 193 67.4701C193.24 66.9901 193.58 66.6101 194.01 66.3401C194.44 66.0701 194.95 65.9401 195.54 65.9401C196.13 65.9401 196.63 66.0701 197.07 66.3401C197.5 66.6101 197.84 66.9801 198.08 67.4701C198.32 67.9601 198.44 68.5201 198.44 69.1601C198.44 69.8001 198.32 70.3601 198.08 70.8401C197.84 71.3201 197.5 71.6901 197.07 71.9601C196.64 72.2301 196.13 72.3601 195.54 72.3601ZM195.54 71.3401C195.92 71.3401 196.23 71.2401 196.48 71.0401C196.73 70.8401 196.91 70.5701 197.03 70.2401C197.15 69.9101 197.21 69.5401 197.21 69.1401C197.21 68.7401 197.15 68.3801 197.03 68.0501C196.91 67.7201 196.73 67.4501 196.48 67.2501C196.23 67.0501 195.92 66.9501 195.54 66.9501C195.16 66.9501 194.84 67.0501 194.6 67.2501C194.35 67.4501 194.17 67.7201 194.05 68.0501C193.93 68.3801 193.87 68.7501 193.87 69.1401C193.87 69.5301 193.93 69.9101 194.05 70.2401C194.17 70.5701 194.35 70.8401 194.6 71.0401C194.85 71.2401 195.16 71.3401 195.54 71.3401Z" fill="white"/>
<path d="M204.44 67.53L203.34 67.72C203.29 67.58 203.22 67.45 203.12 67.32C203.02 67.19 202.89 67.09 202.72 67.01C202.55 66.93 202.34 66.89 202.09 66.89C201.75 66.89 201.46 66.97 201.23 67.12C201 67.27 200.89 67.47 200.89 67.71C200.89 67.92 200.97 68.09 201.12 68.21C201.27 68.34 201.52 68.44 201.87 68.52L202.86 68.75C203.43 68.88 203.86 69.09 204.14 69.36C204.42 69.63 204.56 69.99 204.56 70.43C204.56 70.8 204.45 71.13 204.24 71.42C204.03 71.71 203.73 71.94 203.35 72.1C202.97 72.27 202.53 72.35 202.02 72.35C201.32 72.35 200.76 72.2 200.32 71.9C199.88 71.6 199.61 71.18 199.51 70.63L200.68 70.45C200.75 70.75 200.9 70.98 201.13 71.14C201.36 71.3 201.65 71.37 202.02 71.37C202.42 71.37 202.73 71.29 202.97 71.12C203.21 70.95 203.33 70.75 203.33 70.51C203.33 70.32 203.26 70.15 203.11 70.02C202.97 69.89 202.75 69.79 202.45 69.72L201.4 69.49C200.82 69.36 200.39 69.15 200.11 68.86C199.83 68.57 199.7 68.21 199.7 67.76C199.7 67.39 199.8 67.07 200.01 66.8C200.22 66.53 200.5 66.31 200.86 66.15C201.22 66 201.64 65.92 202.1 65.92C202.77 65.92 203.3 66.07 203.69 66.36C204.08 66.65 204.33 67.04 204.46 67.52L204.44 67.53Z" fill="white"/>
<path d="M208.79 66.01V66.98H205.39V66.01H208.79ZM206.3 64.52H207.51V70.4C207.51 70.63 207.54 70.81 207.62 70.93C207.7 71.05 207.78 71.13 207.89 71.17C208 71.21 208.12 71.23 208.26 71.23C208.36 71.23 208.44 71.23 208.52 71.21C208.59 71.2 208.65 71.19 208.69 71.18L208.91 72.18C208.84 72.21 208.74 72.24 208.61 72.26C208.48 72.29 208.32 72.3 208.12 72.31C207.8 72.31 207.5 72.26 207.23 72.14C206.96 72.02 206.73 71.84 206.56 71.59C206.39 71.34 206.31 71.03 206.31 70.65V64.52H206.3Z" fill="white"/>
<path d="M212.67 74.6901C212.18 74.6901 211.75 74.6301 211.4 74.5001C211.05 74.3701 210.76 74.2001 210.53 73.9901C210.3 73.7801 210.14 73.5401 210.03 73.2901L211.07 72.8601C211.14 72.9801 211.24 73.1001 211.36 73.2401C211.48 73.3701 211.65 73.4901 211.86 73.5801C212.07 73.6701 212.35 73.7201 212.68 73.7201C213.14 73.7201 213.52 73.6101 213.82 73.3901C214.12 73.1701 214.27 72.8101 214.27 72.3301V71.1101H214.19C214.12 71.2401 214.01 71.3901 213.88 71.5501C213.74 71.7101 213.56 71.8501 213.32 71.9701C213.08 72.0901 212.77 72.1501 212.39 72.1501C211.9 72.1501 211.46 72.0301 211.06 71.8001C210.67 71.5701 210.36 71.2301 210.13 70.7801C209.9 70.3301 209.79 69.7701 209.79 69.1101C209.79 68.4501 209.9 67.8801 210.13 67.4101C210.36 66.9401 210.66 66.5801 211.06 66.3201C211.46 66.0601 211.9 65.9401 212.4 65.9401C212.79 65.9401 213.1 66.0001 213.34 66.1301C213.58 66.2601 213.76 66.4101 213.9 66.5801C214.04 66.7501 214.14 66.9001 214.21 67.0301H214.3V66.0201H215.49V72.3801C215.49 72.9101 215.37 73.3501 215.12 73.7001C214.87 74.0401 214.54 74.3001 214.11 74.4601C213.69 74.6201 213.21 74.7101 212.68 74.7101L212.67 74.6901ZM212.66 71.1301C213.01 71.1301 213.3 71.0501 213.54 70.8901C213.78 70.7301 213.96 70.4901 214.09 70.1901C214.22 69.8901 214.28 69.5201 214.28 69.0901C214.28 68.6601 214.22 68.3001 214.09 67.9801C213.97 67.6601 213.78 67.4101 213.54 67.2301C213.3 67.0501 213 66.9601 212.65 66.9601C212.3 66.9601 211.98 67.0501 211.74 67.2401C211.5 67.4301 211.31 67.6801 211.19 68.0001C211.07 68.3201 211.01 68.6801 211.01 69.0801C211.01 69.4801 211.07 69.8501 211.2 70.1501C211.32 70.4601 211.51 70.7001 211.75 70.8701C211.99 71.0401 212.3 71.1301 212.65 71.1301H212.66Z" fill="white"/>
<path d="M217.1 72.23V66.01H218.27V67H218.33C218.44 66.67 218.64 66.4 218.93 66.21C219.22 66.02 219.54 65.92 219.91 65.92C219.99 65.92 220.08 65.92 220.18 65.92C220.28 65.92 220.37 65.93 220.42 65.94V67.1C220.42 67.1 220.29 67.07 220.16 67.05C220.04 67.03 219.91 67.02 219.79 67.02C219.5 67.02 219.25 67.08 219.03 67.2C218.81 67.32 218.63 67.49 218.5 67.7C218.37 67.91 218.31 68.15 218.31 68.42V72.22H217.1V72.23Z" fill="white"/>
<path d="M223.23 72.3701C222.84 72.3701 222.48 72.3001 222.16 72.1501C221.84 72.0001 221.59 71.7901 221.4 71.5101C221.21 71.2301 221.12 70.8901 221.12 70.4801C221.12 70.1301 221.19 69.8401 221.32 69.6101C221.45 69.3801 221.64 69.2001 221.87 69.0701C222.1 68.9401 222.36 68.84 222.64 68.7701C222.92 68.7001 223.21 68.6501 223.51 68.6201C223.88 68.5801 224.18 68.5401 224.42 68.5101C224.66 68.4801 224.82 68.4401 224.93 68.3701C225.04 68.3101 225.09 68.2001 225.09 68.0501V68.0201C225.09 67.6701 224.99 67.3901 224.79 67.2001C224.59 67.0101 224.3 66.9101 223.91 66.9101C223.52 66.9101 223.18 67.0001 222.95 67.1801C222.72 67.3601 222.56 67.5601 222.47 67.7801L221.33 67.5201C221.47 67.1401 221.66 66.8401 221.92 66.6001C222.18 66.3701 222.48 66.2 222.82 66.09C223.16 65.98 223.52 65.9301 223.89 65.9301C224.14 65.9301 224.4 65.9601 224.68 66.0201C224.96 66.0801 225.22 66.18 225.47 66.34C225.71 66.49 225.91 66.7101 226.07 67.0001C226.23 67.2901 226.3 67.6501 226.3 68.1101V72.2401H225.12V71.3901H225.07C224.99 71.5501 224.87 71.7001 224.72 71.8501C224.56 72.0001 224.36 72.1301 224.12 72.2301C223.87 72.3301 223.58 72.3801 223.24 72.3801L223.23 72.3701ZM223.49 71.4001C223.82 71.4001 224.11 71.3301 224.35 71.2001C224.59 71.0701 224.77 70.8901 224.9 70.6801C225.03 70.4701 225.09 70.2401 225.09 69.9901V69.1901C225.09 69.1901 224.96 69.2701 224.84 69.3101C224.72 69.3501 224.58 69.3801 224.42 69.4001C224.26 69.4301 224.11 69.4501 223.96 69.4701C223.81 69.4901 223.69 69.5101 223.59 69.5201C223.36 69.5501 223.14 69.6001 222.95 69.6701C222.76 69.7401 222.6 69.8401 222.49 69.9701C222.38 70.1001 222.32 70.2701 222.32 70.4901C222.32 70.7901 222.43 71.0201 222.65 71.1701C222.87 71.3201 223.15 71.4001 223.5 71.4001H223.49Z" fill="white"/>
<path d="M230.24 72.3501C229.74 72.3501 229.29 72.2201 228.9 71.9601C228.51 71.7001 228.2 71.3301 227.98 70.8501C227.76 70.3701 227.65 69.8001 227.65 69.1201C227.65 68.4401 227.76 67.8701 227.99 67.4001C228.22 66.9201 228.52 66.5601 228.92 66.3001C229.31 66.0501 229.76 65.9201 230.26 65.9201C230.65 65.9201 230.96 65.9801 231.19 66.1101C231.43 66.2401 231.61 66.3901 231.74 66.5601C231.87 66.7301 231.97 66.8801 232.05 67.0101H232.12V63.9301H233.33V72.2201H232.15V71.2501H232.05C231.98 71.3801 231.87 71.5301 231.74 71.7001C231.6 71.8701 231.42 72.0201 231.18 72.1501C230.94 72.2801 230.64 72.34 230.26 72.34L230.24 72.3501ZM230.51 71.3201C230.86 71.3201 231.15 71.2301 231.39 71.0401C231.63 70.8501 231.81 70.6 231.94 70.2701C232.07 69.9401 232.13 69.5601 232.13 69.1201C232.13 68.6801 232.07 68.3101 231.94 67.9901C231.81 67.6701 231.63 67.4101 231.39 67.2301C231.15 67.0501 230.85 66.9601 230.5 66.9601C230.15 66.9601 229.83 67.0501 229.59 67.2401C229.35 67.4301 229.16 67.6901 229.04 68.0101C228.92 68.3401 228.86 68.7101 228.86 69.1201C228.86 69.5301 228.92 69.9101 229.05 70.2401C229.18 70.5701 229.36 70.8301 229.6 71.0301C229.84 71.2301 230.15 71.3201 230.5 71.3201H230.51Z" fill="white"/>
<path d="M237.66 72.3601C237.08 72.3601 236.57 72.2301 236.13 71.9601C235.69 71.6901 235.36 71.3201 235.12 70.8401C234.88 70.3601 234.76 69.8001 234.76 69.1601C234.76 68.5201 234.88 67.9501 235.12 67.4701C235.36 66.9901 235.7 66.6101 236.13 66.3401C236.56 66.0701 237.07 65.9401 237.66 65.9401C238.25 65.9401 238.75 66.0701 239.19 66.3401C239.62 66.6101 239.96 66.9801 240.2 67.4701C240.44 67.9601 240.56 68.5201 240.56 69.1601C240.56 69.8001 240.44 70.3601 240.2 70.8401C239.96 71.3201 239.62 71.6901 239.19 71.9601C238.76 72.2301 238.25 72.3601 237.66 72.3601ZM237.66 71.3401C238.04 71.3401 238.35 71.2401 238.6 71.0401C238.85 70.8401 239.03 70.5701 239.15 70.2401C239.27 69.9101 239.33 69.5401 239.33 69.1401C239.33 68.7401 239.27 68.3801 239.15 68.0501C239.03 67.7201 238.85 67.4501 238.6 67.2501C238.35 67.0501 238.04 66.9501 237.66 66.9501C237.28 66.9501 236.96 67.0501 236.71 67.2501C236.46 67.4501 236.28 67.7201 236.16 68.0501C236.04 68.3801 235.98 68.7501 235.98 69.1401C235.98 69.5301 236.04 69.9101 236.16 70.2401C236.28 70.5701 236.46 70.8401 236.71 71.0401C236.96 71.2401 237.27 71.3401 237.66 71.3401Z" fill="white"/>
<path d="M247.61 72.3601C247 72.3601 246.47 72.2301 246.03 71.9601C245.59 71.7001 245.25 71.3301 245.01 70.8501C244.77 70.3701 244.65 69.8101 244.65 69.1601C244.65 68.5101 244.77 67.9601 245.01 67.4801C245.25 66.9901 245.58 66.62 246.01 66.34C246.44 66.06 246.94 65.9301 247.52 65.9301C247.87 65.9301 248.21 65.9901 248.54 66.1001C248.87 66.2201 249.16 66.4001 249.43 66.6501C249.69 66.9001 249.9 67.2201 250.05 67.6201C250.2 68.0201 250.28 68.5001 250.28 69.0601V69.4901H245.34V68.5801H249.1C249.1 68.2601 249.04 67.9801 248.91 67.7301C248.78 67.4801 248.6 67.2901 248.37 67.1501C248.14 67.0101 247.86 66.9401 247.55 66.9401C247.21 66.9401 246.91 67.0201 246.66 67.1901C246.41 67.3601 246.21 67.57 246.08 67.84C245.94 68.11 245.88 68.3901 245.88 68.7001V69.4101C245.88 69.8301 245.95 70.1801 246.1 70.4701C246.25 70.7601 246.45 70.9801 246.72 71.1401C246.98 71.2901 247.29 71.3701 247.65 71.3701C247.88 71.3701 248.09 71.3401 248.28 71.2701C248.47 71.2 248.63 71.1001 248.77 70.9701C248.91 70.8401 249.01 70.6801 249.09 70.4801L250.24 70.6901C250.15 71.0301 249.98 71.3201 249.75 71.5701C249.51 71.8201 249.22 72.0201 248.86 72.1601C248.51 72.3001 248.1 72.3701 247.65 72.3701L247.61 72.3601Z" fill="white"/>
<path d="M252.84 68.5401V72.2301H251.63V66.0101H252.79V67.0201H252.87C253.01 66.6901 253.24 66.4301 253.54 66.2301C253.85 66.0301 254.23 65.9301 254.7 65.9301C255.12 65.9301 255.49 66.0201 255.81 66.2001C256.13 66.3801 256.38 66.6401 256.55 66.9901C256.73 67.3401 256.81 67.7701 256.81 68.2801V72.2301H255.6V68.4201C255.6 67.9701 255.48 67.6201 255.25 67.3601C255.01 67.1001 254.69 66.9801 254.28 66.9801C254 66.9801 253.75 67.0401 253.53 67.1601C253.31 67.2801 253.14 67.4601 253.02 67.6901C252.89 67.9201 252.83 68.2001 252.83 68.5301L252.84 68.5401Z" fill="white"/>
<path d="M266.88 63.9401H268.14V69.3901C268.14 69.9701 268 70.4801 267.73 70.9301C267.46 71.3801 267.07 71.7301 266.58 71.9801C266.09 72.2301 265.51 72.3601 264.84 72.3601C264.17 72.3601 263.6 72.2301 263.11 71.9801C262.62 71.7201 262.23 71.3701 261.96 70.9301C261.69 70.4801 261.55 69.9701 261.55 69.3901V63.9401H262.8V69.2901C262.8 69.6601 262.88 70.0001 263.05 70.2901C263.22 70.5801 263.45 70.8101 263.76 70.9801C264.06 71.1501 264.43 71.2301 264.85 71.2301C265.27 71.2301 265.63 71.1501 265.94 70.9801C266.25 70.8101 266.48 70.5901 266.64 70.2901C266.8 70.0001 266.88 69.6701 266.88 69.2901V63.9401Z" fill="white"/>
<path d="M270.83 63.9401L272.81 67.1801H272.87L274.85 63.9401H276.3L273.72 68.0801L276.32 72.2301H274.86L272.87 69.0301H272.81L270.82 72.2301H269.36L272 68.0801L269.37 63.9401H270.82H270.83Z" fill="white"/>
<path d="M280.61 63.55L277.94 73.4801H276.86L279.53 63.55H280.61Z" fill="white"/>
<path d="M287.07 63.9401H288.32V69.3901C288.32 69.9701 288.18 70.4801 287.91 70.9301C287.64 71.3801 287.25 71.7301 286.76 71.9801C286.27 72.2301 285.69 72.3601 285.02 72.3601C284.35 72.3601 283.78 72.2301 283.29 71.9801C282.8 71.7201 282.41 71.3701 282.14 70.9301C281.87 70.4901 281.73 69.9701 281.73 69.3901V63.9401H282.98V69.2901C282.98 69.6601 283.06 70.0001 283.23 70.2901C283.4 70.5801 283.63 70.8101 283.94 70.9801C284.24 71.1501 284.61 71.2301 285.02 71.2301C285.43 71.2301 285.8 71.1501 286.11 70.9801C286.42 70.8101 286.65 70.5901 286.81 70.2901C286.97 70.0001 287.05 69.6701 287.05 69.2901V63.9401H287.07Z" fill="white"/>
<path d="M291.4 63.9401V72.2301H290.15V63.9401H291.4Z" fill="white"/>
<path d="M294.7 71.1001L294.64 71.5401C294.6 71.8601 294.53 72.2001 294.44 72.5501C294.34 72.9001 294.25 73.2301 294.14 73.5301C294.04 73.8301 293.96 74.0701 293.89 74.2501H293.03C293.06 74.0801 293.11 73.8601 293.18 73.5701C293.24 73.2901 293.3 72.9701 293.36 72.6201C293.42 72.2701 293.46 71.9101 293.49 71.5501L293.53 71.1001H294.7Z" fill="white"/>
<path d="M299.39 63.9401H300.91L303.55 70.3801H303.65L306.29 63.9401H307.81V72.2301H306.62V66.2301H306.54L304.09 72.2201H303.1L300.65 66.2301H300.57V72.2301H299.38V63.9401H299.39Z" fill="white"/>
<path d="M311.34 72.3701C310.95 72.3701 310.59 72.3001 310.27 72.1501C309.95 72.0001 309.7 71.7901 309.51 71.5101C309.32 71.2301 309.23 70.8901 309.23 70.4801C309.23 70.1301 309.3 69.8401 309.43 69.6101C309.56 69.3801 309.75 69.2001 309.98 69.0701C310.21 68.9401 310.47 68.84 310.75 68.7701C311.03 68.7001 311.32 68.6501 311.62 68.6201C311.99 68.5801 312.29 68.5401 312.53 68.5101C312.77 68.4801 312.93 68.4401 313.04 68.3701C313.15 68.3101 313.2 68.2001 313.2 68.0501V68.0201C313.2 67.6701 313.1 67.3901 312.9 67.2001C312.7 67.0101 312.41 66.9101 312.02 66.9101C311.63 66.9101 311.29 67.0001 311.06 67.1801C310.83 67.3601 310.67 67.5601 310.58 67.7801L309.44 67.5201C309.58 67.1401 309.77 66.8401 310.03 66.6001C310.29 66.3701 310.59 66.2 310.93 66.09C311.27 65.98 311.63 65.9301 312 65.9301C312.25 65.9301 312.51 65.9601 312.79 66.0201C313.07 66.0801 313.33 66.18 313.58 66.34C313.82 66.49 314.02 66.7101 314.18 67.0001C314.34 67.2901 314.41 67.6501 314.41 68.1101V72.2401H313.23V71.3901H313.18C313.1 71.5501 312.98 71.7001 312.83 71.8501C312.67 72.0001 312.47 72.1301 312.23 72.2301C311.98 72.3301 311.69 72.3801 311.35 72.3801L311.34 72.3701ZM311.6 71.4001C311.93 71.4001 312.22 71.3301 312.46 71.2001C312.7 71.0701 312.88 70.8901 313.01 70.6801C313.14 70.4701 313.2 70.2401 313.2 69.9901V69.1901C313.2 69.1901 313.07 69.2701 312.95 69.3101C312.83 69.3501 312.69 69.3801 312.53 69.4001C312.37 69.4301 312.22 69.4501 312.07 69.4701C311.92 69.4901 311.8 69.5101 311.7 69.5201C311.47 69.5501 311.25 69.6001 311.06 69.6701C310.87 69.7401 310.71 69.8401 310.6 69.9701C310.49 70.1001 310.43 70.2701 310.43 70.4901C310.43 70.7901 310.54 71.0201 310.76 71.1701C310.98 71.3201 311.26 71.4001 311.61 71.4001H311.6Z" fill="white"/>
<path d="M316.02 72.23V66.01H317.19V67H317.25C317.36 66.67 317.56 66.4 317.85 66.21C318.14 66.02 318.46 65.92 318.83 65.92C318.91 65.92 319 65.92 319.1 65.92C319.2 65.92 319.29 65.93 319.34 65.94V67.1C319.34 67.1 319.2 67.07 319.08 67.05C318.96 67.03 318.83 67.02 318.71 67.02C318.42 67.02 318.17 67.08 317.95 67.2C317.73 67.32 317.55 67.49 317.42 67.7C317.29 67.91 317.23 68.15 317.23 68.42V72.22H316.02V72.23Z" fill="white"/>
<path d="M320.4 72.2301V63.9401H321.61V72.2301H320.4ZM321.51 70.1201V68.6401H321.71L324.19 66.0101H325.64L322.81 69.0101H322.62L321.51 70.1201ZM324.32 72.2301L322.09 69.2801L322.92 68.4301L325.8 72.2301H324.31H324.32Z" fill="white"/>
<path d="M329.16 72.3601C328.55 72.3601 328.02 72.2301 327.58 71.9601C327.14 71.7001 326.8 71.3301 326.56 70.8501C326.32 70.3701 326.2 69.8101 326.2 69.1601C326.2 68.5101 326.32 67.9601 326.56 67.4801C326.8 66.9901 327.13 66.62 327.56 66.34C327.99 66.06 328.49 65.9301 329.07 65.9301C329.42 65.9301 329.76 65.9901 330.09 66.1001C330.42 66.2201 330.71 66.4001 330.98 66.6501C331.24 66.9001 331.45 67.2201 331.6 67.6201C331.75 68.0201 331.83 68.5001 331.83 69.0601V69.4901H326.89V68.5801H330.65C330.65 68.2601 330.59 67.9801 330.46 67.7301C330.33 67.4801 330.15 67.2901 329.92 67.1501C329.69 67.0101 329.41 66.9401 329.1 66.9401C328.76 66.9401 328.46 67.0201 328.21 67.1901C327.96 67.3601 327.76 67.57 327.63 67.84C327.49 68.11 327.43 68.3901 327.43 68.7001V69.4101C327.43 69.8301 327.5 70.1801 327.65 70.4701C327.8 70.7601 328 70.9801 328.27 71.1401C328.53 71.2901 328.84 71.3701 329.2 71.3701C329.43 71.3701 329.64 71.3401 329.83 71.2701C330.02 71.2 330.18 71.1001 330.32 70.9701C330.46 70.8401 330.56 70.6801 330.64 70.4801L331.79 70.6901C331.7 71.0301 331.53 71.3201 331.3 71.5701C331.06 71.8201 330.77 72.0201 330.41 72.1601C330.06 72.3001 329.65 72.3701 329.2 72.3701L329.16 72.3601Z" fill="white"/>
<path d="M336.08 66.01V66.98H332.68V66.01H336.08ZM333.59 64.52H334.8V70.4C334.8 70.63 334.83 70.81 334.91 70.93C334.98 71.05 335.07 71.13 335.18 71.17C335.29 71.21 335.41 71.23 335.55 71.23C335.65 71.23 335.73 71.23 335.81 71.21C335.88 71.2 335.94 71.19 335.98 71.18L336.2 72.18C336.13 72.21 336.03 72.24 335.9 72.26C335.77 72.29 335.61 72.3 335.41 72.31C335.09 72.31 334.79 72.26 334.52 72.14C334.25 72.02 334.02 71.84 333.85 71.59C333.68 71.34 333.59 71.03 333.59 70.65V64.52Z" fill="white"/>
<path d="M338.03 65.0501C337.82 65.0501 337.64 64.9801 337.49 64.8401C337.34 64.7001 337.27 64.5301 337.27 64.3301C337.27 64.1301 337.34 63.9601 337.49 63.8201C337.64 63.6801 337.82 63.6101 338.03 63.6101C338.24 63.6101 338.42 63.6801 338.57 63.8201C338.72 63.9601 338.79 64.1301 338.79 64.3301C338.79 64.5301 338.72 64.7001 338.57 64.8401C338.42 64.9801 338.24 65.0501 338.03 65.0501ZM337.42 72.2301V66.0101H338.63V72.2301H337.42Z" fill="white"/>
<path d="M341.46 68.5401V72.2301H340.25V66.0101H341.41V67.0201H341.49C341.63 66.6901 341.86 66.4301 342.16 66.2301C342.47 66.0301 342.85 65.9301 343.32 65.9301C343.74 65.9301 344.11 66.0201 344.43 66.2001C344.75 66.3801 345 66.6401 345.17 66.9901C345.35 67.3401 345.43 67.7701 345.43 68.2801V72.2301H344.22V68.4201C344.22 67.9701 344.1 67.6201 343.87 67.3601C343.64 67.1001 343.31 66.9801 342.9 66.9801C342.62 66.9801 342.37 67.0401 342.15 67.1601C341.93 67.2801 341.76 67.4601 341.64 67.6901C341.51 67.9201 341.45 68.2001 341.45 68.5301L341.46 68.5401Z" fill="white"/>
<path d="M349.67 74.6901C349.18 74.6901 348.75 74.6301 348.4 74.5001C348.05 74.3701 347.76 74.2001 347.53 73.9901C347.3 73.7801 347.14 73.5401 347.03 73.2901L348.07 72.8601C348.14 72.9801 348.24 73.1001 348.36 73.2401C348.48 73.3701 348.65 73.4901 348.86 73.5801C349.07 73.6701 349.35 73.7201 349.68 73.7201C350.14 73.7201 350.52 73.6101 350.82 73.3901C351.12 73.1701 351.27 72.8101 351.27 72.3301V71.1101H351.19C351.12 71.2401 351.01 71.3901 350.88 71.5501C350.74 71.7101 350.56 71.8501 350.32 71.9701C350.08 72.0901 349.77 72.1501 349.39 72.1501C348.9 72.1501 348.46 72.0301 348.06 71.8001C347.67 71.5701 347.36 71.2301 347.13 70.7801C346.9 70.3301 346.79 69.7701 346.79 69.1101C346.79 68.4501 346.9 67.8801 347.13 67.4101C347.36 66.9401 347.66 66.5801 348.06 66.3201C348.46 66.0601 348.9 65.9401 349.4 65.9401C349.79 65.9401 350.1 66.0001 350.34 66.1301C350.58 66.2601 350.76 66.4101 350.9 66.5801C351.04 66.7501 351.14 66.9001 351.21 67.0301H351.3V66.0201H352.49V72.3801C352.49 72.9101 352.37 73.3501 352.12 73.7001C351.87 74.0401 351.54 74.3001 351.11 74.4601C350.69 74.6201 350.21 74.7101 349.68 74.7101L349.67 74.6901ZM349.66 71.1301C350.01 71.1301 350.3 71.0501 350.54 70.8901C350.78 70.7301 350.96 70.4901 351.09 70.1901C351.22 69.8901 351.28 69.5201 351.28 69.0901C351.28 68.6601 351.22 68.3001 351.09 67.9801C350.97 67.6601 350.78 67.4101 350.54 67.2301C350.3 67.0501 350 66.9601 349.65 66.9601C349.3 66.9601 348.98 67.0501 348.74 67.2401C348.5 67.4301 348.31 67.6801 348.19 68.0001C348.07 68.3201 348.01 68.6801 348.01 69.0801C348.01 69.4801 348.07 69.8501 348.2 70.1501C348.32 70.4601 348.51 70.7001 348.75 70.8701C348.99 71.0401 349.3 71.1301 349.65 71.1301H349.66Z" fill="white"/>
<path d="M359.9 72.2301H357.22V63.9401H359.99C360.8 63.9401 361.5 64.1101 362.08 64.4401C362.66 64.7701 363.11 65.2401 363.42 65.8601C363.73 66.4801 363.89 67.2201 363.89 68.0801C363.89 68.9401 363.73 69.6901 363.42 70.3101C363.11 70.9301 362.65 71.4101 362.06 71.7401C361.47 72.0701 360.75 72.2401 359.91 72.2401L359.9 72.2301ZM358.47 71.1401H359.83C360.46 71.1401 360.99 71.0201 361.4 70.7801C361.82 70.5401 362.13 70.1901 362.34 69.7401C362.55 69.2901 362.65 68.7301 362.65 68.0701C362.65 67.4101 362.55 66.8701 362.34 66.4101C362.13 65.9601 361.83 65.6101 361.42 65.3801C361.01 65.1501 360.51 65.0301 359.9 65.0301H358.46V71.1301L358.47 71.1401Z" fill="white"/>
<path d="M365.95 65.0501C365.74 65.0501 365.56 64.9801 365.41 64.8401C365.26 64.7001 365.19 64.5301 365.19 64.3301C365.19 64.1301 365.26 63.9601 365.41 63.8201C365.56 63.6801 365.74 63.6101 365.95 63.6101C366.16 63.6101 366.34 63.6801 366.49 63.8201C366.64 63.9601 366.71 64.1301 366.71 64.3301C366.71 64.5301 366.64 64.7001 366.49 64.8401C366.34 64.9801 366.16 65.0501 365.95 65.0501ZM365.34 72.2301V66.0101H366.55V72.2301H365.34Z" fill="white"/>
<path d="M370.79 74.6901C370.3 74.6901 369.87 74.6301 369.52 74.5001C369.17 74.3701 368.88 74.2001 368.65 73.9901C368.42 73.7801 368.26 73.5401 368.15 73.2901L369.19 72.8601C369.26 72.9801 369.36 73.1001 369.48 73.2401C369.6 73.3701 369.77 73.4901 369.98 73.5801C370.19 73.6701 370.47 73.7201 370.8 73.7201C371.26 73.7201 371.64 73.6101 371.94 73.3901C372.24 73.1701 372.39 72.8101 372.39 72.3301V71.1101H372.31C372.24 71.2401 372.13 71.3901 372 71.5501C371.86 71.7101 371.68 71.8501 371.44 71.9701C371.2 72.0901 370.89 72.1501 370.51 72.1501C370.02 72.1501 369.58 72.0301 369.18 71.8001C368.79 71.5701 368.48 71.2301 368.25 70.7801C368.02 70.3301 367.91 69.7701 367.91 69.1101C367.91 68.4501 368.02 67.8801 368.25 67.4101C368.48 66.9401 368.78 66.5801 369.18 66.3201C369.58 66.0601 370.02 65.9401 370.52 65.9401C370.91 65.9401 371.22 66.0001 371.46 66.1301C371.7 66.2601 371.88 66.4101 372.02 66.5801C372.16 66.7501 372.26 66.9001 372.33 67.0301H372.42V66.0201H373.61V72.3801C373.61 72.9101 373.49 73.3501 373.24 73.7001C372.99 74.0401 372.66 74.3001 372.23 74.4601C371.81 74.6201 371.33 74.7101 370.8 74.7101L370.79 74.6901ZM370.78 71.1301C371.13 71.1301 371.42 71.0501 371.66 70.8901C371.9 70.7301 372.08 70.4901 372.21 70.1901C372.34 69.8901 372.4 69.5201 372.4 69.0901C372.4 68.6601 372.34 68.3001 372.21 67.9801C372.09 67.6601 371.9 67.4101 371.66 67.2301C371.42 67.0501 371.12 66.9601 370.77 66.9601C370.42 66.9601 370.1 67.0501 369.86 67.2401C369.62 67.4301 369.43 67.6801 369.31 68.0001C369.19 68.3201 369.13 68.6801 369.13 69.0801C369.13 69.4801 369.19 69.8501 369.32 70.1501C369.44 70.4601 369.63 70.7001 369.87 70.8701C370.11 71.0401 370.42 71.1301 370.77 71.1301H370.78Z" fill="white"/>
<path d="M375.82 65.0501C375.61 65.0501 375.43 64.9801 375.28 64.8401C375.13 64.7001 375.06 64.5301 375.06 64.3301C375.06 64.1301 375.13 63.9601 375.28 63.8201C375.43 63.6801 375.61 63.6101 375.82 63.6101C376.03 63.6101 376.21 63.6801 376.36 63.8201C376.51 63.9601 376.58 64.1301 376.58 64.3301C376.58 64.5301 376.51 64.7001 376.36 64.8401C376.21 64.9801 376.03 65.0501 375.82 65.0501ZM375.21 72.2301V66.0101H376.42V72.2301H375.21Z" fill="white"/>
<path d="M380.95 66.01V66.98H377.55V66.01H380.95ZM378.46 64.52H379.67V70.4C379.67 70.63 379.7 70.81 379.78 70.93C379.85 71.05 379.94 71.13 380.05 71.17C380.16 71.21 380.28 71.23 380.42 71.23C380.52 71.23 380.6 71.23 380.68 71.21C380.75 71.2 380.81 71.19 380.85 71.18L381.07 72.18C381 72.21 380.9 72.24 380.77 72.26C380.64 72.29 380.48 72.3 380.28 72.31C379.96 72.31 379.66 72.26 379.39 72.14C379.12 72.02 378.89 71.84 378.72 71.59C378.55 71.34 378.46 71.03 378.46 70.65V64.52Z" fill="white"/>
<path d="M384.1 72.3701C383.71 72.3701 383.35 72.3001 383.03 72.1501C382.71 72.0001 382.46 71.7901 382.28 71.5101C382.1 71.2301 382 70.8901 382 70.4801C382 70.1301 382.07 69.8401 382.2 69.6101C382.33 69.3801 382.52 69.2001 382.75 69.0701C382.98 68.9401 383.24 68.84 383.52 68.7701C383.8 68.7001 384.09 68.6501 384.39 68.6201C384.76 68.5801 385.06 68.5401 385.3 68.5101C385.54 68.4801 385.7 68.4401 385.81 68.3701C385.92 68.3101 385.97 68.2001 385.97 68.0501V68.0201C385.97 67.6701 385.87 67.3901 385.67 67.2001C385.47 67.0101 385.18 66.9101 384.79 66.9101C384.4 66.9101 384.06 67.0001 383.83 67.1801C383.6 67.3601 383.44 67.5601 383.35 67.7801L382.21 67.5201C382.34 67.1401 382.54 66.8401 382.8 66.6001C383.06 66.3701 383.36 66.2 383.7 66.09C384.04 65.98 384.4 65.9301 384.77 65.9301C385.02 65.9301 385.28 65.9601 385.56 66.0201C385.84 66.0801 386.1 66.18 386.35 66.34C386.59 66.49 386.79 66.7101 386.95 67.0001C387.11 67.2901 387.19 67.6501 387.19 68.1101V72.2401H386.01V71.3901H385.96C385.88 71.5501 385.76 71.7001 385.61 71.8501C385.45 72.0001 385.25 72.1301 385.01 72.2301C384.76 72.3301 384.47 72.3801 384.13 72.3801L384.1 72.3701ZM384.36 71.4001C384.69 71.4001 384.98 71.3301 385.22 71.2001C385.46 71.0701 385.64 70.8901 385.77 70.6801C385.9 70.4701 385.96 70.2401 385.96 69.9901V69.1901C385.96 69.1901 385.83 69.2701 385.71 69.3101C385.59 69.3501 385.45 69.3801 385.29 69.4001C385.13 69.4301 384.98 69.4501 384.83 69.4701C384.68 69.4901 384.56 69.5101 384.46 69.5201C384.22 69.5501 384.01 69.6001 383.82 69.6701C383.63 69.7401 383.47 69.8401 383.36 69.9701C383.25 70.1001 383.19 70.2701 383.19 70.4901C383.19 70.7901 383.3 71.0201 383.52 71.1701C383.74 71.3201 384.02 71.4001 384.37 71.4001H384.36Z" fill="white"/>
<path d="M389.99 63.9401V72.2301H388.78V63.9401H389.99Z" fill="white"/>
<path d="M186.47 85.9601C186.29 85.9601 186.12 85.9501 185.98 85.9201C185.84 85.8901 185.72 85.8601 185.65 85.8301L185.94 84.84C186.16 84.9 186.36 84.9301 186.53 84.9201C186.7 84.9101 186.86 84.8501 186.99 84.7301C187.12 84.6101 187.24 84.4101 187.34 84.1401L187.49 83.7301L185.22 77.4301H186.52L188.09 82.2601H188.15L189.72 77.4301H191.02L188.46 84.4801C188.34 84.8001 188.19 85.0801 188.01 85.3001C187.83 85.5301 187.61 85.6901 187.35 85.8101C187.1 85.9201 186.8 85.9801 186.47 85.9801V85.9601Z" fill="white"/>
<path d="M197.97 83.6301H195.29V75.3401H198.06C198.87 75.3401 199.57 75.5101 200.15 75.8401C200.73 76.1701 201.18 76.6401 201.49 77.2601C201.8 77.8801 201.96 78.6201 201.96 79.4801C201.96 80.3401 201.8 81.0901 201.49 81.7101C201.18 82.3301 200.72 82.8101 200.13 83.1401C199.54 83.4701 198.82 83.6401 197.98 83.6401L197.97 83.6301ZM196.54 82.5401H197.9C198.53 82.5401 199.06 82.4201 199.47 82.1801C199.89 81.9401 200.2 81.5901 200.41 81.1401C200.62 80.6901 200.72 80.1301 200.72 79.4701C200.72 78.8101 200.62 78.2701 200.41 77.8101C200.2 77.3601 199.9 77.0101 199.49 76.7801C199.08 76.5501 198.58 76.4301 197.97 76.4301H196.53V82.5301L196.54 82.5401Z" fill="white"/>
<path d="M206.09 83.7501C205.48 83.7501 204.95 83.6201 204.51 83.3501C204.07 83.0901 203.73 82.7201 203.49 82.2401C203.25 81.7601 203.13 81.2001 203.13 80.5501C203.13 79.9001 203.25 79.3501 203.49 78.8701C203.73 78.3801 204.06 78.0101 204.49 77.7301C204.92 77.4501 205.42 77.3201 206 77.3201C206.35 77.3201 206.69 77.3801 207.02 77.4901C207.35 77.6101 207.64 77.7901 207.91 78.0401C208.17 78.2901 208.38 78.6101 208.53 79.0101C208.68 79.4101 208.76 79.8901 208.76 80.4501V80.8801H203.82V79.9701H207.58C207.58 79.6501 207.52 79.3701 207.39 79.1201C207.26 78.8701 207.08 78.6801 206.85 78.5401C206.62 78.4001 206.34 78.3301 206.03 78.3301C205.69 78.3301 205.39 78.4101 205.14 78.5801C204.89 78.7501 204.69 78.9601 204.56 79.2301C204.42 79.5001 204.36 79.7801 204.36 80.0901V80.8001C204.36 81.2201 204.43 81.5701 204.58 81.8601C204.73 82.1501 204.93 82.3701 205.2 82.5301C205.46 82.6801 205.77 82.7601 206.13 82.7601C206.36 82.7601 206.57 82.7301 206.76 82.6601C206.95 82.5901 207.11 82.4901 207.25 82.3601C207.39 82.2301 207.49 82.0701 207.57 81.8701L208.72 82.0801C208.63 82.4201 208.46 82.7101 208.23 82.9601C207.99 83.2101 207.7 83.4101 207.34 83.5501C206.99 83.6901 206.58 83.7601 206.13 83.7601L206.09 83.7501Z" fill="white"/>
<path d="M214.77 78.9301L213.67 79.1201C213.62 78.9801 213.55 78.8501 213.45 78.7201C213.35 78.5901 213.22 78.4901 213.05 78.4101C212.88 78.3301 212.67 78.2901 212.42 78.2901C212.08 78.2901 211.79 78.3701 211.56 78.5201C211.33 78.6701 211.22 78.8701 211.22 79.1101C211.22 79.3201 211.3 79.4901 211.45 79.6101C211.6 79.7401 211.85 79.8401 212.2 79.9201L213.19 80.1501C213.76 80.2801 214.19 80.4901 214.47 80.7601C214.75 81.0301 214.89 81.3901 214.89 81.8301C214.89 82.2001 214.78 82.5301 214.57 82.8201C214.36 83.1101 214.06 83.3401 213.68 83.5001C213.3 83.6701 212.86 83.7501 212.35 83.7501C211.65 83.7501 211.09 83.6001 210.65 83.3001C210.21 83.0001 209.94 82.5801 209.84 82.0301L211.01 81.8501C211.08 82.1501 211.23 82.3801 211.46 82.5401C211.69 82.7001 211.98 82.7701 212.35 82.7701C212.75 82.7701 213.06 82.6901 213.3 82.5201C213.54 82.3501 213.66 82.1501 213.66 81.9101C213.66 81.7201 213.59 81.5501 213.44 81.4201C213.3 81.2901 213.08 81.1901 212.78 81.1201L211.73 80.8901C211.15 80.7601 210.72 80.5501 210.44 80.2601C210.16 79.9701 210.03 79.6101 210.03 79.1601C210.03 78.7901 210.13 78.4701 210.34 78.2001C210.55 77.9301 210.83 77.7101 211.19 77.5501C211.55 77.4001 211.97 77.3201 212.43 77.3201C213.1 77.3201 213.63 77.4701 214.02 77.7601C214.41 78.0501 214.66 78.4401 214.79 78.9201L214.77 78.9301Z" fill="white"/>
<path d="M218.02 83.7701C217.63 83.7701 217.27 83.7001 216.95 83.5501C216.63 83.4001 216.38 83.1901 216.2 82.9101C216.02 82.6301 215.92 82.2901 215.92 81.8801C215.92 81.5301 215.99 81.2401 216.12 81.0101C216.25 80.7801 216.44 80.6001 216.67 80.4701C216.9 80.3401 217.16 80.2401 217.44 80.1701C217.72 80.1001 218.01 80.0501 218.31 80.0201C218.68 79.9801 218.98 79.9401 219.22 79.9101C219.45 79.8801 219.62 79.8401 219.73 79.7701C219.84 79.7101 219.89 79.6001 219.89 79.4501V79.4201C219.89 79.0701 219.79 78.7901 219.59 78.6001C219.39 78.4101 219.1 78.3101 218.71 78.3101C218.32 78.3101 217.98 78.4001 217.75 78.5801C217.52 78.7601 217.36 78.9601 217.27 79.1801L216.13 78.9201C216.26 78.5401 216.46 78.2401 216.72 78.0001C216.98 77.7701 217.28 77.6001 217.62 77.4901C217.96 77.3801 218.32 77.3301 218.69 77.3301C218.94 77.3301 219.2 77.3601 219.48 77.4201C219.76 77.4801 220.02 77.5801 220.27 77.7401C220.51 77.8901 220.71 78.1101 220.87 78.4001C221.03 78.6901 221.11 79.0501 221.11 79.5101V83.6401H219.93V82.7901H219.88C219.8 82.9501 219.68 83.1001 219.53 83.2501C219.37 83.4001 219.17 83.5301 218.93 83.6301C218.68 83.7301 218.39 83.7801 218.05 83.7801L218.02 83.7701ZM218.28 82.8001C218.61 82.8001 218.9 82.7301 219.14 82.6001C219.38 82.4701 219.56 82.2901 219.69 82.0801C219.82 81.8701 219.88 81.6401 219.88 81.3901V80.5901C219.88 80.5901 219.75 80.6701 219.63 80.7101C219.51 80.7501 219.37 80.7801 219.21 80.8001C219.05 80.8301 218.9 80.8501 218.75 80.8701C218.6 80.8901 218.48 80.9101 218.38 80.9201C218.14 80.9501 217.93 81.0001 217.74 81.0701C217.55 81.1401 217.39 81.2401 217.28 81.3701C217.17 81.5001 217.11 81.6701 217.11 81.8901C217.11 82.1901 217.22 82.4201 217.44 82.5701C217.66 82.7201 217.94 82.8001 218.29 82.8001H218.28Z" fill="white"/>
<path d="M222.7 83.6301V77.4101H223.87V78.4001H223.93C224.04 78.0701 224.24 77.8001 224.53 77.6101C224.82 77.4201 225.14 77.3201 225.51 77.3201C225.59 77.3201 225.68 77.3201 225.78 77.3201C225.88 77.3201 225.97 77.3301 226.02 77.3401V78.5001C226.02 78.5001 225.89 78.4701 225.76 78.4501C225.64 78.4301 225.51 78.4201 225.39 78.4201C225.1 78.4201 224.85 78.4801 224.63 78.6001C224.41 78.7201 224.23 78.8901 224.1 79.1001C223.97 79.3101 223.91 79.5501 223.91 79.8201V83.6201H222.7V83.6301Z" fill="white"/>
<path d="M227.08 83.6301V77.4101H228.25V78.4001H228.31C228.42 78.0701 228.62 77.8001 228.91 77.6101C229.2 77.4201 229.52 77.3201 229.89 77.3201C229.97 77.3201 230.06 77.3201 230.16 77.3201C230.26 77.3201 230.35 77.3301 230.4 77.3401V78.5001C230.4 78.5001 230.26 78.4701 230.14 78.4501C230.02 78.4301 229.89 78.4201 229.77 78.4201C229.48 78.4201 229.23 78.4801 229.01 78.6001C228.79 78.7201 228.61 78.8901 228.48 79.1001C228.35 79.3101 228.29 79.5501 228.29 79.8201V83.6201H227.08V83.6301Z" fill="white"/>
<path d="M233.86 83.7501C233.28 83.7501 232.77 83.6201 232.33 83.3501C231.9 83.0801 231.56 82.7101 231.32 82.2301C231.08 81.7501 230.96 81.1901 230.96 80.5501C230.96 79.9101 231.08 79.3401 231.32 78.8601C231.56 78.3801 231.9 78.0001 232.33 77.7301C232.76 77.4601 233.27 77.3301 233.86 77.3301C234.45 77.3301 234.95 77.4601 235.39 77.7301C235.83 78.0001 236.16 78.3701 236.4 78.8601C236.64 79.3401 236.76 79.9101 236.76 80.5501C236.76 81.1901 236.64 81.7501 236.4 82.2301C236.16 82.7101 235.82 83.0801 235.39 83.3501C234.96 83.6201 234.45 83.7501 233.86 83.7501ZM233.86 82.7301C234.24 82.7301 234.55 82.6301 234.8 82.4301C235.05 82.2301 235.23 81.9601 235.35 81.6301C235.47 81.3001 235.53 80.9301 235.53 80.5301C235.53 80.1301 235.47 79.7701 235.35 79.4401C235.23 79.1101 235.05 78.8401 234.8 78.6401C234.55 78.4401 234.24 78.3401 233.86 78.3401C233.48 78.3401 233.16 78.4401 232.92 78.6401C232.67 78.8401 232.49 79.1101 232.37 79.4401C232.25 79.7701 232.19 80.1401 232.19 80.5301C232.19 80.9201 232.25 81.3001 232.37 81.6301C232.49 81.9601 232.67 82.2301 232.92 82.4301C233.17 82.6301 233.48 82.7301 233.86 82.7301Z" fill="white"/>
<path d="M239.31 75.3401V83.6301H238.1V75.3401H239.31Z" fill="white"/>
<path d="M242.15 75.3401V83.6301H240.94V75.3401H242.15Z" fill="white"/>
<path d="M246.4 83.7501C245.82 83.7501 245.31 83.6201 244.87 83.3501C244.44 83.0801 244.1 82.7101 243.86 82.2301C243.62 81.7501 243.5 81.1901 243.5 80.5501C243.5 79.9101 243.62 79.3401 243.86 78.8601C244.1 78.3801 244.44 78.0001 244.87 77.7301C245.3 77.4601 245.81 77.3301 246.4 77.3301C246.99 77.3301 247.49 77.4601 247.93 77.7301C248.36 78.0001 248.7 78.3701 248.94 78.8601C249.18 79.3401 249.3 79.9101 249.3 80.5501C249.3 81.1901 249.18 81.7501 248.94 82.2301C248.7 82.7101 248.36 83.0801 247.93 83.3501C247.5 83.6201 246.99 83.7501 246.4 83.7501ZM246.4 82.7301C246.78 82.7301 247.09 82.6301 247.34 82.4301C247.59 82.2301 247.77 81.9601 247.89 81.6301C248.01 81.3001 248.07 80.9301 248.07 80.5301C248.07 80.1301 248.01 79.7701 247.89 79.4401C247.77 79.1101 247.59 78.8401 247.34 78.6401C247.09 78.4401 246.78 78.3401 246.4 78.3401C246.02 78.3401 245.7 78.4401 245.45 78.6401C245.2 78.8401 245.02 79.1101 244.9 79.4401C244.78 79.7701 244.72 80.1401 244.72 80.5301C244.72 80.9201 244.78 81.3001 244.9 81.6301C245.02 81.9601 245.2 82.2301 245.45 82.4301C245.7 82.6301 246.01 82.7301 246.4 82.7301Z" fill="white"/>
<path d="M255.38 83.6301L253.08 75.3401H254.4L256.02 81.7601H256.1L257.78 75.3401H259.08L260.76 81.7601H260.84L262.45 75.3401H263.77L261.47 83.6301H260.21L258.47 77.4201H258.41L256.67 83.6301H255.41H255.38Z" fill="white"/>
<path d="M266.88 83.7501C266.27 83.7501 265.74 83.6201 265.3 83.3501C264.86 83.0901 264.52 82.7201 264.28 82.2401C264.04 81.7601 263.92 81.2001 263.92 80.5501C263.92 79.9001 264.04 79.3501 264.28 78.8701C264.52 78.3801 264.85 78.0101 265.28 77.7301C265.71 77.4501 266.21 77.3201 266.79 77.3201C267.14 77.3201 267.48 77.3801 267.81 77.4901C268.14 77.6101 268.43 77.7901 268.7 78.0401C268.96 78.2901 269.17 78.6101 269.32 79.0101C269.47 79.4101 269.55 79.8901 269.55 80.4501V80.8801H264.61V79.9701H268.37C268.37 79.6501 268.31 79.3701 268.18 79.1201C268.05 78.8701 267.87 78.6801 267.64 78.5401C267.41 78.4001 267.13 78.3301 266.82 78.3301C266.48 78.3301 266.18 78.4101 265.93 78.5801C265.68 78.7501 265.48 78.9601 265.35 79.2301C265.21 79.5001 265.15 79.7801 265.15 80.0901V80.8001C265.15 81.2201 265.22 81.5701 265.37 81.8601C265.52 82.1501 265.72 82.3701 265.99 82.5301C266.25 82.6801 266.56 82.7601 266.92 82.7601C267.15 82.7601 267.36 82.7301 267.55 82.6601C267.74 82.5901 267.9 82.4901 268.04 82.3601C268.18 82.2301 268.28 82.0701 268.36 81.8701L269.51 82.0801C269.42 82.4201 269.25 82.7101 269.02 82.9601C268.78 83.2101 268.49 83.4101 268.13 83.5501C267.78 83.6901 267.37 83.7601 266.92 83.7601L266.88 83.7501Z" fill="white"/>
<path d="M270.99 83.6301V75.3401H272.2V78.4201H272.27C272.34 78.2901 272.44 78.1401 272.57 77.9701C272.7 77.8001 272.89 77.6501 273.12 77.5201C273.35 77.3901 273.67 77.3301 274.05 77.3301C274.55 77.3301 275 77.4601 275.39 77.7101C275.78 77.9601 276.09 78.3301 276.32 78.8101C276.55 79.2901 276.66 79.8601 276.66 80.5301C276.66 81.2001 276.55 81.7801 276.32 82.2601C276.1 82.7401 275.79 83.1101 275.4 83.3701C275.01 83.6301 274.56 83.7601 274.06 83.7601C273.68 83.7601 273.37 83.7001 273.14 83.5701C272.9 83.4401 272.71 83.2901 272.58 83.1201C272.44 82.9501 272.34 82.8001 272.27 82.6701H272.17V83.6401H270.99V83.6301ZM272.18 80.5201C272.18 80.9601 272.24 81.3401 272.37 81.6701C272.5 82.0001 272.68 82.2601 272.92 82.4401C273.16 82.6201 273.45 82.7201 273.8 82.7201C274.15 82.7201 274.46 82.6201 274.71 82.4301C274.95 82.2401 275.14 81.9701 275.26 81.6401C275.39 81.3101 275.45 80.9301 275.45 80.5201C275.45 80.1101 275.39 79.7401 275.27 79.4101C275.15 79.0801 274.96 78.8301 274.72 78.6401C274.48 78.4501 274.17 78.3601 273.81 78.3601C273.45 78.3601 273.16 78.4501 272.92 78.6301C272.68 78.8101 272.5 79.0601 272.37 79.3901C272.24 79.7201 272.18 80.0901 272.18 80.5201Z" fill="white"/>
<path d="M281.14 83.6301V75.3401H286.28V76.4201H282.39V78.9501H285.91V80.0201H282.39V83.6301H281.14Z" fill="white"/>
<path d="M287.65 83.6301V77.4101H288.82V78.4001H288.88C288.99 78.0701 289.19 77.8001 289.48 77.6101C289.77 77.4201 290.09 77.3201 290.46 77.3201C290.54 77.3201 290.63 77.3201 290.73 77.3201C290.83 77.3201 290.92 77.3301 290.97 77.3401V78.5001C290.97 78.5001 290.84 78.4701 290.71 78.4501C290.59 78.4301 290.46 78.4201 290.34 78.4201C290.05 78.4201 289.8 78.4801 289.58 78.6001C289.36 78.7201 289.18 78.8901 289.05 79.1001C288.92 79.3101 288.86 79.5501 288.86 79.8201V83.6201H287.65V83.6301Z" fill="white"/>
<path d="M294.42 83.7501C293.84 83.7501 293.33 83.6201 292.89 83.3501C292.46 83.0801 292.12 82.7101 291.88 82.2301C291.64 81.7501 291.52 81.1901 291.52 80.5501C291.52 79.9101 291.64 79.3401 291.88 78.8601C292.12 78.3801 292.46 78.0001 292.89 77.7301C293.32 77.4601 293.83 77.3301 294.42 77.3301C295.01 77.3301 295.51 77.4601 295.95 77.7301C296.38 78.0001 296.72 78.3701 296.96 78.8601C297.2 79.3501 297.32 79.9101 297.32 80.5501C297.32 81.1901 297.2 81.7501 296.96 82.2301C296.72 82.7101 296.38 83.0801 295.95 83.3501C295.52 83.6201 295.01 83.7501 294.42 83.7501ZM294.42 82.7301C294.8 82.7301 295.11 82.6301 295.36 82.4301C295.61 82.2301 295.79 81.9601 295.91 81.6301C296.03 81.3001 296.09 80.9301 296.09 80.5301C296.09 80.1301 296.03 79.7701 295.91 79.4401C295.79 79.1101 295.61 78.8401 295.36 78.6401C295.11 78.4401 294.8 78.3401 294.42 78.3401C294.04 78.3401 293.72 78.4401 293.48 78.6401C293.23 78.8401 293.05 79.1101 292.93 79.4401C292.81 79.7701 292.75 80.1401 292.75 80.5301C292.75 80.9201 292.81 81.3001 292.93 81.6301C293.05 81.9601 293.23 82.2301 293.48 82.4301C293.73 82.6301 294.04 82.7301 294.42 82.7301Z" fill="white"/>
<path d="M299.88 79.9401V83.6301H298.67V77.4101H299.83V78.4201H299.91C300.05 78.0901 300.28 77.8301 300.58 77.6301C300.89 77.4301 301.27 77.3301 301.74 77.3301C302.16 77.3301 302.53 77.4201 302.85 77.6001C303.17 77.7801 303.42 78.0401 303.59 78.3901C303.76 78.7401 303.85 79.1701 303.85 79.6801V83.6301H302.64V79.8201C302.64 79.3701 302.52 79.0201 302.29 78.7601C302.06 78.5001 301.73 78.3801 301.32 78.3801C301.04 78.3801 300.79 78.4401 300.57 78.5601C300.35 78.6801 300.18 78.8601 300.06 79.0901C299.93 79.3201 299.87 79.6001 299.87 79.9301L299.88 79.9401Z" fill="white"/>
<path d="M308.38 77.41V78.38H304.98V77.41H308.38ZM305.89 75.92H307.1V81.8C307.1 82.03 307.14 82.21 307.21 82.33C307.28 82.45 307.37 82.53 307.48 82.57C307.59 82.61 307.71 82.63 307.85 82.63C307.95 82.63 308.03 82.63 308.11 82.61C308.19 82.59 308.24 82.59 308.28 82.58L308.5 83.58C308.43 83.61 308.33 83.64 308.2 83.66C308.07 83.69 307.91 83.7 307.71 83.71C307.39 83.71 307.09 83.66 306.82 83.54C306.54 83.42 306.32 83.24 306.15 82.99C305.98 82.74 305.89 82.43 305.89 82.05V75.92Z" fill="white"/>
<path d="M312.83 83.6301V75.3401H318.03V76.4201H314.08V78.9501H317.76V80.0201H314.08V82.5601H318.08V83.6401H312.83V83.6301Z" fill="white"/>
<path d="M320.82 79.9401V83.6301H319.61V77.4101H320.77V78.4201H320.85C320.99 78.0901 321.22 77.8301 321.52 77.6301C321.83 77.4301 322.21 77.3301 322.68 77.3301C323.1 77.3301 323.47 77.4201 323.79 77.6001C324.11 77.7801 324.36 78.0401 324.53 78.3901C324.71 78.7401 324.79 79.1701 324.79 79.6801V83.6301H323.58V79.8201C323.58 79.3701 323.46 79.0201 323.23 78.7601C323 78.5001 322.67 78.3801 322.26 78.3801C321.98 78.3801 321.73 78.4401 321.51 78.5601C321.29 78.6801 321.12 78.8601 321 79.0901C320.87 79.3201 320.81 79.6001 320.81 79.9301L320.82 79.9401Z" fill="white"/>
<path d="M328.74 83.7501C328.24 83.7501 327.79 83.6201 327.4 83.3601C327.01 83.1001 326.7 82.7301 326.48 82.2501C326.26 81.7701 326.15 81.2001 326.15 80.5201C326.15 79.8401 326.26 79.2701 326.49 78.8001C326.72 78.3201 327.02 77.9601 327.42 77.7001C327.81 77.4501 328.26 77.3201 328.76 77.3201C329.15 77.3201 329.46 77.3801 329.69 77.5101C329.93 77.6401 330.11 77.7901 330.24 77.9601C330.37 78.1301 330.47 78.2801 330.55 78.4101H330.62V75.3301H331.83V83.6201H330.65V82.6501H330.55C330.48 82.7801 330.37 82.9301 330.24 83.1001C330.1 83.2701 329.92 83.4201 329.68 83.5501C329.44 83.6801 329.14 83.7401 328.76 83.7401L328.74 83.7501ZM329.01 82.7201C329.36 82.7201 329.65 82.6301 329.89 82.4401C330.13 82.2501 330.31 82.0001 330.44 81.6701C330.57 81.3401 330.63 80.9601 330.63 80.5201C330.63 80.0801 330.57 79.7101 330.44 79.3901C330.31 79.0701 330.13 78.8101 329.89 78.6301C329.65 78.4501 329.35 78.3601 329 78.3601C328.65 78.3601 328.33 78.4501 328.09 78.6401C327.85 78.8301 327.66 79.0901 327.54 79.4101C327.42 79.7401 327.36 80.1101 327.36 80.5201C327.36 80.9301 327.42 81.3101 327.55 81.6401C327.68 81.9701 327.86 82.2301 328.1 82.4301C328.34 82.6301 328.65 82.7201 329 82.7201H329.01Z" fill="white"/>
<path d="M124.52 56.99H129.26V74.09C129.26 75.97 128.82 77.61 127.94 79.04C127.06 80.46 125.82 81.57 124.23 82.37C122.64 83.17 120.77 83.57 118.64 83.57C116.51 83.57 114.63 83.17 113.04 82.37C111.45 81.57 110.21 80.46 109.33 79.04C108.45 77.62 108.01 75.97 108.01 74.09V56.99H112.75V73.7C112.75 74.79 112.99 75.76 113.47 76.62C113.95 77.47 114.63 78.14 115.51 78.62C116.39 79.1 117.43 79.34 118.63 79.34C119.83 79.34 120.87 79.1 121.75 78.62C122.63 78.14 123.31 77.47 123.79 76.62C124.27 75.77 124.51 74.8 124.51 73.7V56.99H124.52Z" fill="white"/>
<path d="M139.17 56.99V83.17H134.43V56.99H139.17Z" fill="white"/>
<path d="M97.37 55.76L88.93 87.11H84.88L93.32 55.76H97.37Z" fill="white"/>
<path d="M47.97 56.99H52.71V74.09C52.71 75.97 52.27 77.61 51.39 79.04C50.51 80.46 49.27 81.57 47.68 82.37C46.09 83.17 44.22 83.57 42.09 83.57C39.96 83.57 38.08 83.17 36.49 82.37C34.9 81.57 33.66 80.46 32.78 79.04C31.9 77.62 31.46 75.97 31.46 74.09V56.99H36.2V73.7C36.2 74.79 36.44 75.76 36.92 76.62C37.4 77.47 38.08 78.14 38.96 78.62C39.84 79.1 40.88 79.34 42.08 79.34C43.28 79.34 44.32 79.1 45.2 78.62C46.08 78.14 46.76 77.47 47.24 76.62C47.72 75.77 47.96 74.8 47.96 73.7V56.99H47.97Z" fill="white"/>
<path d="M61.84 56.99L67.6101 66.58H67.81L73.6 56.99H79.0101L70.9401 70.08L79.13 83.17H73.63L67.8001 73.65H67.6L61.7701 83.17H56.3L64.57 70.08L56.4001 56.99H61.8301H61.84Z" fill="white"/>
<path d="M162.85 90.53C162.22 90.53 161.64 90.48 161.1 90.38C160.57 90.28 160.14 90.17 159.83 90.04L160.9 86.43C161.57 86.63 162.17 86.72 162.7 86.71C163.23 86.71 163.7 86.54 164.1 86.22C164.5 85.9 164.85 85.37 165.13 84.63L165.53 83.57L158.41 63.53H163.32L167.85 78.36H168.05L172.59 63.53H177.51L169.65 85.54C169.28 86.58 168.8 87.47 168.19 88.22C167.58 88.97 166.85 89.54 165.97 89.93C165.1 90.33 164.05 90.53 162.84 90.53H162.85Z" fill="white"/>
<path d="M32.1801 119.17V92.99H48.9501V96.97H36.9201V104.08H47.8001V108.06H36.9201V119.18H32.1801V119.17Z" fill="white"/>
<path d="M52.77 119.17V99.53H57.26V102.8H57.47C57.83 101.67 58.44 100.79 59.32 100.17C60.19 99.55 61.19 99.24 62.32 99.24C62.58 99.24 62.86 99.24 63.18 99.27C63.5 99.29 63.77 99.32 63.98 99.37V103.63C63.78 103.56 63.48 103.5 63.05 103.44C62.63 103.38 62.22 103.36 61.83 103.36C60.99 103.36 60.23 103.54 59.56 103.9C58.89 104.26 58.36 104.76 57.98 105.4C57.6 106.04 57.4 106.78 57.4 107.61V119.15H52.77V119.17Z" fill="white"/>
<path d="M74.8 119.55C72.88 119.55 71.22 119.13 69.81 118.28C68.4 117.43 67.31 116.26 66.54 114.74C65.77 113.22 65.38 111.45 65.38 109.42C65.38 107.39 65.76 105.61 66.54 104.09C67.31 102.56 68.4 101.38 69.81 100.54C71.22 99.7 72.88 99.27 74.8 99.27C76.72 99.27 78.38 99.69 79.79 100.54C81.2 101.39 82.29 102.57 83.06 104.09C83.83 105.62 84.22 107.39 84.22 109.42C84.22 111.45 83.84 113.22 83.06 114.74C82.29 116.26 81.2 117.44 79.79 118.28C78.38 119.12 76.72 119.55 74.8 119.55ZM74.83 115.84C75.87 115.84 76.74 115.55 77.44 114.98C78.14 114.4 78.66 113.63 79.01 112.66C79.35 111.69 79.53 110.61 79.53 109.41C79.53 108.21 79.36 107.12 79.01 106.14C78.66 105.16 78.14 104.39 77.44 103.81C76.74 103.23 75.87 102.94 74.83 102.94C73.79 102.94 72.88 103.23 72.18 103.81C71.48 104.39 70.95 105.17 70.61 106.14C70.27 107.12 70.09 108.2 70.09 109.41C70.09 110.62 70.26 111.69 70.61 112.66C70.96 113.63 71.48 114.4 72.18 114.98C72.88 115.56 73.77 115.84 74.83 115.84Z" fill="white"/>
<path d="M92.75 107.66V119.17H88.12V99.53H92.54V102.87H92.77C93.22 101.77 93.94 100.9 94.94 100.25C95.93 99.6 97.16 99.28 98.63 99.28C99.99 99.28 101.17 99.57 102.18 100.15C103.19 100.73 103.97 101.57 104.53 102.67C105.09 103.77 105.36 105.1 105.35 106.67V119.17H100.72V107.38C100.72 106.07 100.38 105.04 99.7 104.3C99.02 103.56 98.09 103.19 96.89 103.19C96.08 103.19 95.36 103.37 94.74 103.72C94.11 104.07 93.62 104.58 93.27 105.25C92.92 105.92 92.74 106.72 92.74 107.67L92.75 107.66Z" fill="white"/>
<path d="M119.87 99.5301V103.11H108.58V99.5301H119.87ZM111.37 94.8201H116V113.25C116 113.87 116.1 114.35 116.29 114.67C116.48 115 116.74 115.22 117.05 115.34C117.36 115.46 117.72 115.52 118.1 115.52C118.39 115.52 118.66 115.5 118.9 115.46C119.14 115.42 119.33 115.38 119.46 115.34L120.24 118.96C119.99 119.05 119.64 119.14 119.19 119.24C118.73 119.34 118.18 119.4 117.52 119.42C116.36 119.45 115.32 119.28 114.39 118.89C113.46 118.5 112.73 117.9 112.18 117.08C111.63 116.26 111.37 115.24 111.38 114.01V94.8101L111.37 94.8201Z" fill="white"/>
<path d="M135.01 106.36V110.17H123.22V106.36H135.01Z" fill="white"/>
<path d="M140.08 119.17V92.99H157.11V96.97H144.82V104.08H156.22V108.06H144.82V115.21H157.21V119.19H140.08V119.17Z" fill="white"/>
<path d="M166.38 107.66V119.17H161.75V99.53H166.17V102.87H166.4C166.85 101.77 167.57 100.9 168.57 100.25C169.56 99.6 170.79 99.28 172.26 99.28C173.61 99.28 174.8 99.57 175.81 100.15C176.82 100.73 177.6 101.57 178.16 102.67C178.72 103.77 178.99 105.1 178.98 106.67V119.17H174.35V107.38C174.35 106.07 174.01 105.04 173.33 104.3C172.65 103.56 171.72 103.19 170.52 103.19C169.71 103.19 168.99 103.37 168.37 103.72C167.74 104.07 167.25 104.58 166.9 105.25C166.55 105.92 166.37 106.72 166.37 107.67L166.38 107.66Z" fill="white"/>
<path d="M190.99 119.52C189.45 119.52 188.07 119.12 186.85 118.33C185.63 117.54 184.67 116.39 183.96 114.88C183.25 113.37 182.9 111.54 182.9 109.38C182.9 107.22 183.26 105.35 183.98 103.85C184.7 102.35 185.67 101.21 186.9 100.44C188.13 99.67 189.49 99.28 191 99.28C192.15 99.28 193.1 99.47 193.84 99.86C194.58 100.25 195.17 100.71 195.6 101.25C196.03 101.79 196.37 102.3 196.61 102.78H196.8V92.99H201.44V119.17H196.89V116.08H196.61C196.37 116.56 196.03 117.06 195.57 117.59C195.12 118.12 194.52 118.58 193.78 118.95C193.04 119.33 192.11 119.51 190.98 119.51L190.99 119.52ZM192.28 115.72C193.26 115.72 194.1 115.45 194.79 114.92C195.48 114.39 196 113.64 196.36 112.69C196.72 111.73 196.9 110.62 196.9 109.35C196.9 108.08 196.72 106.98 196.37 106.04C196.02 105.1 195.5 104.37 194.81 103.85C194.12 103.33 193.28 103.07 192.29 103.07C191.3 103.07 190.4 103.34 189.71 103.87C189.02 104.41 188.5 105.15 188.15 106.09C187.8 107.04 187.63 108.12 187.63 109.34C187.63 110.56 187.81 111.66 188.16 112.62C188.51 113.58 189.04 114.33 189.73 114.88C190.42 115.43 191.28 115.7 192.29 115.7L192.28 115.72Z" fill="white"/>
<path d="M224.41 119.17H215.54V92.99H224.59C227.19 92.99 229.42 93.51 231.3 94.56C233.17 95.6 234.61 97.1 235.61 99.05C236.61 101 237.12 103.34 237.12 106.06C237.12 108.78 236.62 111.13 235.61 113.09C234.6 115.05 233.15 116.55 231.25 117.6C229.35 118.65 227.08 119.17 224.42 119.17H224.41ZM220.28 115.07H224.18C226 115.07 227.52 114.74 228.74 114.07C229.96 113.4 230.87 112.4 231.49 111.07C232.1 109.74 232.41 108.07 232.41 106.07C232.41 104.07 232.1 102.4 231.49 101.08C230.88 99.75 229.97 98.76 228.77 98.1C227.57 97.44 226.09 97.11 224.31 97.11H220.27V115.08L220.28 115.07Z" fill="white"/>
<path d="M250.1 119.55C248.13 119.55 246.43 119.14 245.01 118.32C243.58 117.5 242.49 116.33 241.72 114.82C240.95 113.31 240.57 111.52 240.57 109.47C240.57 107.42 240.96 105.68 241.73 104.14C242.5 102.61 243.58 101.42 244.97 100.56C246.36 99.7 247.99 99.28 249.87 99.28C251.08 99.28 252.22 99.47 253.3 99.86C254.38 100.25 255.33 100.85 256.16 101.66C256.99 102.47 257.65 103.5 258.12 104.75C258.6 106 258.84 107.48 258.84 109.21V110.63H242.74V107.51H254.4C254.4 106.62 254.2 105.83 253.82 105.14C253.44 104.45 252.92 103.9 252.25 103.5C251.58 103.1 250.8 102.9 249.92 102.9C248.97 102.9 248.14 103.13 247.43 103.58C246.71 104.04 246.16 104.63 245.76 105.37C245.36 106.11 245.16 106.91 245.15 107.79V110.51C245.15 111.65 245.36 112.63 245.78 113.44C246.2 114.25 246.78 114.88 247.53 115.31C248.28 115.74 249.16 115.96 250.16 115.96C250.83 115.96 251.44 115.86 251.99 115.67C252.54 115.48 253.01 115.19 253.41 114.82C253.81 114.45 254.11 113.98 254.32 113.43L258.64 113.92C258.37 115.06 257.85 116.06 257.09 116.9C256.33 117.75 255.35 118.4 254.17 118.87C252.98 119.33 251.63 119.57 250.1 119.57V119.55Z" fill="white"/>
<path d="M279.71 99.53L272.72 119.17H267.61L260.62 99.53H265.55L270.06 114.12H270.26L274.79 99.53H279.71Z" fill="white"/>
<path d="M290.92 119.55C288.95 119.55 287.25 119.14 285.83 118.32C284.4 117.5 283.31 116.33 282.54 114.82C281.77 113.31 281.39 111.52 281.39 109.47C281.39 107.42 281.78 105.68 282.55 104.14C283.32 102.61 284.4 101.42 285.79 100.56C287.18 99.7 288.81 99.28 290.69 99.28C291.9 99.28 293.04 99.47 294.12 99.86C295.2 100.25 296.15 100.85 296.98 101.66C297.81 102.47 298.47 103.5 298.94 104.75C299.42 106 299.66 107.48 299.66 109.21V110.63H283.56V107.51H295.22C295.22 106.62 295.02 105.83 294.64 105.14C294.26 104.45 293.74 103.9 293.07 103.5C292.4 103.1 291.62 102.9 290.74 102.9C289.79 102.9 288.96 103.13 288.25 103.58C287.53 104.04 286.98 104.63 286.58 105.37C286.18 106.11 285.98 106.91 285.97 107.79V110.51C285.97 111.65 286.18 112.63 286.6 113.44C287.02 114.25 287.6 114.88 288.35 115.31C289.1 115.74 289.98 115.96 290.98 115.96C291.65 115.96 292.26 115.86 292.81 115.67C293.36 115.48 293.83 115.19 294.23 114.82C294.63 114.45 294.93 113.98 295.14 113.43L299.46 113.92C299.19 115.06 298.67 116.06 297.91 116.9C297.15 117.75 296.17 118.4 294.99 118.87C293.8 119.33 292.45 119.57 290.92 119.57V119.55Z" fill="white"/>
<path d="M308.19 92.99V119.17H303.56V92.99H308.19Z" fill="white"/>
<path d="M321.52 119.55C319.6 119.55 317.94 119.13 316.53 118.28C315.12 117.43 314.03 116.26 313.26 114.74C312.49 113.22 312.1 111.45 312.1 109.42C312.1 107.39 312.49 105.61 313.26 104.09C314.03 102.56 315.12 101.38 316.53 100.54C317.94 99.7 319.6 99.27 321.52 99.27C323.44 99.27 325.1 99.69 326.51 100.54C327.92 101.39 329.01 102.57 329.78 104.09C330.55 105.62 330.94 107.39 330.94 109.42C330.94 111.45 330.55 113.22 329.78 114.74C329.01 116.26 327.92 117.44 326.51 118.28C325.1 119.12 323.44 119.55 321.52 119.55ZM321.55 115.84C322.59 115.84 323.46 115.55 324.16 114.98C324.86 114.4 325.38 113.63 325.73 112.66C326.08 111.69 326.25 110.61 326.25 109.41C326.25 108.21 326.08 107.12 325.73 106.14C325.39 105.16 324.86 104.39 324.16 103.81C323.46 103.23 322.59 102.94 321.55 102.94C320.51 102.94 319.6 103.23 318.9 103.81C318.2 104.39 317.67 105.17 317.33 106.14C316.99 107.12 316.81 108.2 316.81 109.41C316.81 110.62 316.98 111.69 317.33 112.66C317.68 113.63 318.2 114.4 318.9 114.98C319.6 115.56 320.49 115.84 321.55 115.84Z" fill="white"/>
<path d="M334.84 126.53V99.53H339.39V102.78H339.66C339.9 102.3 340.24 101.79 340.67 101.25C341.1 100.71 341.69 100.24 342.43 99.86C343.17 99.48 344.12 99.28 345.27 99.28C346.79 99.28 348.16 99.66 349.38 100.44C350.6 101.21 351.57 102.35 352.3 103.85C353.02 105.35 353.38 107.2 353.38 109.38C353.38 111.56 353.03 113.37 352.32 114.88C351.61 116.39 350.65 117.54 349.43 118.33C348.21 119.12 346.83 119.52 345.29 119.52C344.17 119.52 343.23 119.33 342.49 118.96C341.75 118.58 341.15 118.13 340.71 117.6C340.26 117.07 339.92 116.56 339.67 116.09H339.48V126.55H334.85L334.84 126.53ZM339.38 109.35C339.38 110.62 339.56 111.73 339.92 112.69C340.28 113.65 340.81 114.39 341.49 114.92C342.18 115.45 343.01 115.72 343.99 115.72C344.97 115.72 345.87 115.45 346.56 114.9C347.25 114.35 347.77 113.6 348.13 112.64C348.49 111.68 348.66 110.59 348.66 109.36C348.66 108.13 348.49 107.06 348.14 106.11C347.79 105.16 347.27 104.42 346.58 103.89C345.89 103.36 345.03 103.09 344 103.09C342.97 103.09 342.17 103.35 341.48 103.87C340.79 104.39 340.27 105.12 339.91 106.06C339.56 107 339.38 108.1 339.38 109.37V109.35Z" fill="white"/>
<path d="M366.02 119.55C364.05 119.55 362.35 119.14 360.93 118.32C359.5 117.5 358.41 116.33 357.64 114.82C356.87 113.31 356.49 111.52 356.49 109.47C356.49 107.42 356.88 105.68 357.65 104.14C358.42 102.61 359.5 101.42 360.89 100.56C362.28 99.7 363.91 99.28 365.79 99.28C367 99.28 368.14 99.47 369.22 99.86C370.3 100.25 371.25 100.85 372.08 101.66C372.91 102.47 373.57 103.5 374.04 104.75C374.52 106 374.76 107.48 374.76 109.21V110.63H358.66V107.51H370.32C370.32 106.62 370.12 105.83 369.74 105.14C369.36 104.45 368.84 103.9 368.17 103.5C367.5 103.1 366.72 102.9 365.84 102.9C364.89 102.9 364.06 103.13 363.35 103.58C362.63 104.04 362.08 104.63 361.68 105.37C361.28 106.11 361.08 106.91 361.07 107.79V110.51C361.07 111.65 361.28 112.63 361.7 113.44C362.12 114.25 362.7 114.88 363.45 115.31C364.2 115.74 365.08 115.96 366.08 115.96C366.75 115.96 367.36 115.86 367.91 115.67C368.46 115.48 368.93 115.19 369.33 114.82C369.73 114.45 370.03 113.98 370.24 113.43L374.56 113.92C374.29 115.06 373.77 116.06 373.01 116.9C372.25 117.75 371.27 118.4 370.09 118.87C368.9 119.33 367.55 119.57 366.02 119.57V119.55Z" fill="white"/>
<path d="M378.66 119.17V99.53H383.15V102.8H383.35C383.71 101.67 384.32 100.79 385.2 100.17C386.07 99.55 387.07 99.24 388.2 99.24C388.46 99.24 388.74 99.24 389.06 99.27C389.38 99.29 389.65 99.32 389.86 99.37V103.63C389.66 103.56 389.35 103.5 388.93 103.44C388.51 103.38 388.1 103.36 387.71 103.36C386.87 103.36 386.11 103.54 385.44 103.9C384.77 104.26 384.24 104.76 383.86 105.4C383.48 106.04 383.28 106.78 383.28 107.61V119.15H378.65L378.66 119.17Z" fill="white"/>
<path d="M364.51 35.3H360.73H357.38V38.9501H360.73V50.5801H357.38V54.26H360.73H364.55H367.99V50.5801H364.55V35.3H364.51Z" fill="white"/>
<path d="M364.51 29.76H360.71V33.41H364.51V29.76Z" fill="white"/>
<path d="M374.02 38.98H384.22L386.17 40.97V48.64L384.22 50.63H374.02V47.78H383.25V46.14H374.02V43.39H383.25V41.75H374.02V39V38.98ZM374.02 35.33H370.2V54.28H385.87L389.99 50.07V39.52L385.87 35.33H374.02Z" fill="white"/>
</g>
<defs>
<clipPath id="clip0_505_381">
<rect width="389.99" height="196.82" fill="white"/>
</clipPath>
</defs>
</svg>
