<svg width="189" height="78" viewBox="0 0 189 78" fill="none" xmlns="http://www.w3.org/2000/svg">
<path fill-rule="evenodd" clip-rule="evenodd" d="M20.9147 1.20026H10.641V11.4408H20.9147V1.20026ZM21.0198 70.0175H30.3214V59.6728H21.0198V16.7565H20.8885H10.6672H1.62842V27.023H10.6672V59.6728H1.62842V70.0175H10.6672H21.0198ZM78.6686 16.8346H46.6123H40.6477H36.2597V70.0696L78.6686 70.0175L89.8095 58.2396V28.6125L78.6686 16.8346ZM46.9276 26.8667V27.0751H46.6123V34.8141H71.5742V39.2699H46.9276V39.4263H46.6123V47.1653H71.5742V51.6732H46.9276V51.7774H46.6123V59.777H74.2017L74.2511 59.7249H74.6484L79.9561 54.1226V32.469L74.6484 26.8667H46.9276Z" fill="white"/>
<path d="M111.461 17.5642V16.2353H116.479C120.631 16.2353 121.919 18.8931 121.919 21.4467C121.919 24.8602 120.158 26.8406 116.322 26.8406H111.435V25.5117H112.88V17.5642H111.461ZM114.535 25.5117H116.427C119.396 25.5117 120.316 23.7137 120.316 21.4728C120.316 19.2058 119.186 17.5642 116.453 17.5642H114.535V25.5117Z" fill="white"/>
<path d="M124.31 20.7432H123.127V19.4664H125.781V25.5638H126.964V26.8406H123.127V25.5638H124.31V20.7432ZM125.886 16.9388C125.886 17.4339 125.492 17.8248 124.993 17.8248C124.494 17.8248 124.1 17.4339 124.1 16.9388C124.1 16.4437 124.494 16.0529 124.993 16.0529C125.492 16.0789 125.886 16.4698 125.886 16.9388Z" fill="white"/>
<path d="M127.988 24.313H129.302V24.5736C129.433 25.3032 130.117 25.7722 131.089 25.7722C132.008 25.7722 132.613 25.4074 132.613 24.8602C132.613 23.4792 130.012 24.3652 128.593 22.9581C128.251 22.6193 128.015 22.0982 128.015 21.551C128.015 20.2742 129.118 19.3882 130.616 19.3882C131.299 19.3882 131.93 19.5446 132.429 19.8051V19.5185H133.716V21.9679H132.429V21.5249C132.008 20.8995 131.457 20.6129 130.695 20.6129C129.906 20.6129 129.381 20.9777 129.381 21.5249C129.381 22.7496 132.245 22.0461 133.48 23.2707C133.927 23.7137 134.111 24.287 134.111 24.8081C134.111 26.1631 132.954 27.0491 131.273 27.0491C130.458 27.0491 129.854 26.8667 129.328 26.5279V26.9448H128.015V24.313H127.988Z" fill="white"/>
<path d="M136.738 23.5053C136.948 24.9384 137.894 25.7723 139.287 25.7723C140.259 25.7723 141.152 25.3553 141.704 24.5736L142.992 25.1469C142.177 26.3716 140.837 27.0751 139.26 27.0751C136.843 27.0751 135.109 25.4596 135.109 23.1665C135.109 20.7693 137.08 19.2579 139.024 19.2579C141.1 19.2579 142.992 20.8214 142.992 23.5313H136.738V23.5053ZM141.494 22.4369C141.257 21.2643 140.206 20.4045 139.05 20.4045C137.894 20.4045 137.001 21.2122 136.791 22.4369H141.494Z" fill="white"/>
<path d="M146.801 20.3523C147.8 19.6227 148.562 19.3361 149.35 19.3361C150.401 19.3361 151.295 19.9875 151.295 21.4207V25.5377H152.582V26.8145H149.823V21.9939C149.823 21.0559 149.56 20.639 148.956 20.639C148.352 20.639 147.563 20.9777 146.801 21.577V25.5377H148.089V26.8145H144.069V25.5377H145.356V20.7171H144.042V19.4403H146.801V20.3523ZM150.638 16.2353C150.638 17.5121 150.138 18.3459 149.245 18.3459C148.299 18.3459 147.458 17.3818 146.88 17.3818C146.512 17.3818 146.434 17.6945 146.434 18.2156H145.54C145.54 16.7564 146.197 16.1571 146.933 16.1571C147.774 16.1571 148.72 17.0952 149.219 17.0952C149.587 17.0952 149.744 16.8085 149.771 16.2092H150.638V16.2353Z" fill="white"/>
<path d="M157.128 19.2579C159.361 19.2579 161.043 20.9256 161.043 23.1665C161.043 25.4075 159.361 27.0751 157.128 27.0751C154.895 27.0751 153.213 25.4075 153.213 23.1665C153.213 20.9256 154.868 19.2579 157.128 19.2579ZM157.128 25.642C158.468 25.642 159.466 24.5736 159.466 23.1405C159.466 21.7073 158.468 20.639 157.128 20.639C155.814 20.639 154.789 21.7073 154.789 23.1405C154.789 24.5997 155.788 25.642 157.128 25.642Z" fill="white"/>
<path d="M175.862 21.2383V22.5412H174.732C174.47 23.5313 174.102 24.287 173.681 24.8081L174.26 25.5377H175.889V26.8667H173.445L172.736 25.9286C171.763 26.6843 170.87 27.0491 169.898 27.0491C167.717 27.0491 166.062 25.5117 166.062 23.4792C166.062 22.0721 166.876 21.0038 168.479 20.3002C167.98 19.6488 167.743 19.0755 167.743 18.4502C167.743 17.1473 168.873 16.105 170.344 16.105C171.79 16.105 172.893 17.0952 172.893 18.372C172.893 19.4143 172.315 20.196 170.66 20.7953L172.841 23.7137C173.208 23.0623 173.524 22.2024 173.681 21.2643H175.862V21.2383ZM169.293 21.2383C168.216 21.7334 167.691 22.4369 167.691 23.375C167.691 24.6518 168.768 25.6941 170.055 25.6941C170.712 25.6941 171.369 25.4075 171.895 24.8603L169.293 21.2383ZM171.474 18.2938C171.474 17.6684 171.028 17.3297 170.397 17.3297C169.74 17.3297 169.267 17.6945 169.267 18.3459C169.267 18.6847 169.451 19.0495 169.924 19.727C171.054 19.2579 171.474 18.8671 171.474 18.2938Z" fill="white"/>
<path d="M111.461 32.0521V30.7231H116.479C120.631 30.7231 121.919 33.381 121.919 35.9346C121.919 39.3481 120.158 41.3285 116.322 41.3285H111.435V39.9995H112.88V32.0521H111.461ZM114.535 40.0256H116.427C119.396 40.0256 120.316 38.2276 120.316 35.9867C120.316 33.7197 119.186 32.0781 116.453 32.0781H114.535V40.0256Z" fill="white"/>
<path d="M124.94 38.0192C125.15 39.4523 126.096 40.2861 127.489 40.2861C128.461 40.2861 129.354 39.8692 129.906 39.0875L131.194 39.6608C130.379 40.8855 129.039 41.589 127.463 41.589C125.045 41.589 123.311 39.9735 123.311 37.6804C123.311 35.2831 125.282 33.7718 127.226 33.7718C129.302 33.7718 131.194 35.3353 131.194 38.0452H124.94V38.0192ZM129.696 36.9508C129.46 35.7782 128.409 34.9183 127.252 34.9183C126.096 34.9183 125.203 35.7261 124.993 36.9508H129.696Z" fill="white"/>
<path d="M132.429 38.8009H133.742V39.0615C133.874 39.7911 134.557 40.2601 135.529 40.2601C136.449 40.2601 137.053 39.8953 137.053 39.3481C137.053 37.9671 134.452 38.853 133.033 37.4459C132.691 37.1072 132.455 36.586 132.455 36.0388C132.455 34.762 133.559 33.8761 135.056 33.8761C135.739 33.8761 136.37 34.0324 136.869 34.293V34.0064H138.157V36.4557H136.869V36.0128C136.449 35.3874 135.897 35.1008 135.135 35.1008C134.347 35.1008 133.821 35.4656 133.821 36.0128C133.821 37.2375 136.685 36.5339 137.92 37.7586C138.367 38.2016 138.551 38.7748 138.551 39.296C138.551 40.651 137.395 41.5369 135.713 41.5369C134.899 41.5369 134.294 41.3545 133.769 41.0158V41.4327H132.455V38.8009H132.429Z" fill="white"/>
<path d="M147.169 41.3545H144.594V40.4425C143.675 41.1981 143.018 41.4848 142.203 41.4848C140.784 41.4848 139.681 40.4425 139.681 39.1396C139.681 37.7846 140.863 36.7423 142.387 36.7423C143.044 36.7423 143.832 36.9769 144.41 37.3677V36.4036C144.41 35.3613 143.648 34.9705 142.755 34.9705C142.045 34.9705 141.494 35.2571 141.152 35.8564L139.759 35.4916C140.39 34.3451 141.467 33.7718 142.965 33.7718C145.146 33.7718 145.882 34.8402 145.882 36.0388V40.0777H147.169V41.3545ZM144.41 38.5924C143.78 38.0973 143.123 37.8628 142.492 37.8628C141.678 37.8628 141.073 38.384 141.073 39.1396C141.073 39.8692 141.625 40.3643 142.413 40.3643C143.07 40.3643 143.806 40.0256 144.41 39.4784V38.5924Z" fill="white"/>
<path d="M149.193 35.2571H147.695V33.9803H150.349V35.648H150.375C150.848 34.4233 151.794 33.8761 152.713 33.8761H153.686V35.3353H152.897C151.189 35.3353 150.664 36.2994 150.664 37.9671V40.0777H152.267V41.3545H147.721V40.0777H149.193V35.2571Z" fill="white"/>
<path d="M155.998 35.2571H154.5V33.9803H157.154V35.648H157.181C157.654 34.4233 158.599 33.8761 159.519 33.8761H160.491V35.3353H159.703C157.995 35.3353 157.47 36.2994 157.47 37.9671V40.0777H159.072V41.3545H154.527V40.0777H155.998V35.2571Z" fill="white"/>
<path d="M164.616 33.7458C166.85 33.7458 168.531 35.4135 168.531 37.6544C168.531 39.8953 166.85 41.563 164.616 41.563C162.383 41.563 160.701 39.8953 160.701 37.6544C160.701 35.4135 162.357 33.7458 164.616 33.7458ZM164.59 40.1559C165.93 40.1559 166.928 39.0875 166.928 37.6544C166.928 36.2212 165.93 35.1529 164.59 35.1529C163.276 35.1529 162.251 36.2212 162.251 37.6544C162.278 39.0875 163.276 40.1559 164.59 40.1559Z" fill="white"/>
<path d="M170.844 32.026H169.53V30.7492H172.342V40.0777H173.498V41.3545H169.504V40.0777H170.87V32.026H170.844Z" fill="white"/>
<path d="M175.442 32.026H174.128V30.7492H176.94V40.0777H178.096V41.3545H174.102V40.0777H175.468V32.026H175.442Z" fill="white"/>
<path d="M182.825 33.7458C185.059 33.7458 186.74 35.4135 186.74 37.6544C186.74 39.8953 185.059 41.563 182.825 41.563C180.592 41.563 178.91 39.8953 178.91 37.6544C178.91 35.4135 180.592 33.7458 182.825 33.7458ZM182.825 40.1559C184.165 40.1559 185.164 39.0875 185.164 37.6544C185.164 36.2212 184.165 35.1529 182.825 35.1529C181.511 35.1529 180.487 36.2212 180.487 37.6544C180.487 39.0875 181.485 40.1559 182.825 40.1559Z" fill="white"/>
<path d="M112.906 46.566H111.75V45.237H115.691V46.566H114.535V54.5134H115.691V55.8423H111.75V54.5134H112.906V46.566Z" fill="white"/>
<path d="M119.396 49.3541C120.395 48.6245 121.157 48.3378 121.945 48.3378C122.996 48.3378 123.889 48.9893 123.889 50.4224V54.5395H125.177V55.8163H122.418V50.9957C122.418 50.0576 122.155 49.6407 121.551 49.6407C120.946 49.6407 120.158 49.9794 119.396 50.5788V54.5395H120.684V55.8163H116.663V54.5395H117.951V49.7189H116.637V48.4421H119.422V49.3541H119.396Z" fill="white"/>
<path d="M125.702 48.4681H126.674V47.3216L128.146 45.9927V48.4681H129.512V49.7449H128.146V54.0183C128.146 54.7479 128.803 54.6958 129.512 54.4613V55.7642C129.171 55.8684 128.776 55.9726 128.435 55.9726C127.384 55.9726 126.674 55.5036 126.674 54.2268V49.771H125.702V48.4681Z" fill="white"/>
<path d="M132.166 52.507C132.376 53.9402 133.322 54.774 134.715 54.774C135.687 54.774 136.581 54.3571 137.132 53.5754L138.42 54.1486C137.605 55.3733 136.265 56.0769 134.689 56.0769C132.271 56.0769 130.537 54.4613 130.537 52.1683C130.537 49.771 132.508 48.2597 134.452 48.2597C136.528 48.2597 138.42 49.8231 138.42 52.5331H132.166V52.507ZM136.922 51.4647C136.686 50.2921 135.635 49.4323 134.478 49.4323C133.322 49.4323 132.429 50.24 132.219 51.4647H136.922Z" fill="white"/>
<path d="M140.837 49.7449H139.339V48.4681H141.993V50.1358H142.019C142.492 48.9111 143.438 48.3639 144.358 48.3639H145.33V49.8231H144.542C142.834 49.8231 142.309 50.7872 142.309 52.4549V54.5655H143.911V55.8423H139.366V54.5655H140.837V49.7449Z" fill="white"/>
<path d="M153.37 55.8423H150.795V54.9303C149.876 55.686 149.219 55.9726 148.404 55.9726C146.985 55.9726 145.882 54.9303 145.882 53.6275C145.882 52.2725 147.064 51.2302 148.588 51.2302C149.245 51.2302 150.033 51.4647 150.611 51.8556V50.8915C150.611 49.8492 149.849 49.4583 148.956 49.4583C148.247 49.4583 147.695 49.7449 147.353 50.3443L145.961 49.9795C146.591 48.8329 147.669 48.2597 149.166 48.2597C151.347 48.2597 152.083 49.328 152.083 50.5267V54.5655H153.37V55.8423ZM150.611 53.1063C149.981 52.6112 149.324 52.3767 148.693 52.3767C147.879 52.3767 147.274 52.8979 147.274 53.6535C147.274 54.3831 147.826 54.8782 148.615 54.8782C149.271 54.8782 150.007 54.5395 150.611 53.9923V53.1063Z" fill="white"/>
<path d="M161.174 51.2563H159.86C159.781 50.7351 159.571 50.3182 159.203 50.0316C158.862 49.7449 158.415 49.5886 157.89 49.5886C156.576 49.5886 155.682 50.6048 155.682 52.0901C155.682 53.6796 156.602 54.7479 157.942 54.7479C158.941 54.7479 159.729 54.2268 160.176 53.2887L161.384 53.862C160.727 55.3212 159.519 56.0769 157.89 56.0769C155.315 56.0769 154.106 53.9923 154.106 52.1162C154.106 49.9795 155.735 48.2857 157.758 48.2857C158.573 48.2857 159.309 48.5463 159.86 49.0153V48.5203H161.174V51.2563Z" fill="white"/>
<path d="M162.226 48.4681H163.198V47.3216L164.669 45.9927V48.4681H166.036V49.7449H164.669V54.0183C164.669 54.7479 165.326 54.6958 166.036 54.4613V55.7642C165.694 55.8684 165.3 55.9726 164.958 55.9726C163.907 55.9726 163.198 55.5036 163.198 54.2268V49.771H162.226V48.4681Z" fill="white"/>
<path d="M168.058 49.7449H166.876V48.4681H169.53V54.5655H170.712V55.8423H166.876V54.5655H168.058V49.7449ZM169.661 45.9666C169.661 46.4617 169.267 46.8526 168.768 46.8526C168.269 46.8526 167.874 46.4617 167.874 45.9666C167.874 45.4715 168.269 45.0807 168.768 45.0807C169.267 45.0807 169.661 45.4715 169.661 45.9666Z" fill="white"/>
<path d="M172.053 49.7449H170.739V48.4681H174.496V49.7449H173.524L175.127 53.9402L176.73 49.7449H175.679V48.4681H179.331V49.7449H178.175L175.784 55.9726H174.47L172.053 49.7449Z" fill="white"/>
<path d="M183.298 48.2597C185.532 48.2597 187.213 49.9273 187.213 52.1683C187.213 54.4092 185.532 56.0769 183.298 56.0769C181.065 56.0769 179.383 54.4092 179.383 52.1683C179.383 49.9273 181.039 48.2597 183.298 48.2597ZM183.272 54.6698C184.612 54.6698 185.611 53.6014 185.611 52.1683C185.611 50.7351 184.612 49.6668 183.272 49.6668C181.958 49.6668 180.934 50.7351 180.934 52.1683C180.934 53.6014 181.958 54.6698 183.272 54.6698Z" fill="white"/>
<path d="M111.461 61.0798V59.7509H116.479C120.631 59.7509 121.919 62.4088 121.919 64.9624C121.919 68.3759 120.158 70.3562 116.322 70.3562H111.435V69.0273H112.88V61.0798H111.461ZM114.535 69.0273H116.427C119.396 69.0273 120.316 67.2294 120.316 64.9884C120.316 62.7214 119.186 61.0798 116.453 61.0798H114.535V69.0273Z" fill="white"/>
<path d="M124.31 64.2588H123.127V62.982H125.781V69.0794H126.964V70.3563H123.127V69.0794H124.31V64.2588ZM125.886 60.4545C125.886 60.9496 125.492 61.3404 124.993 61.3404C124.494 61.3404 124.1 60.9496 124.1 60.4545C124.1 59.9594 124.494 59.5685 124.993 59.5685C125.492 59.5946 125.886 59.9855 125.886 60.4545Z" fill="white"/>
<path d="M137.027 64.2588H135.687V70.4084C135.687 73.0401 133.375 73.8219 131.693 73.8219C130.563 73.8219 129.748 73.5613 128.776 72.8317L129.722 71.7633C130.379 72.2845 131.089 72.519 131.824 72.519C132.744 72.519 134.215 72.05 134.215 70.4344V69.3139H134.189C133.611 70.0435 132.56 70.5386 131.535 70.5386C129.433 70.5386 127.909 68.9231 127.909 66.7343C127.909 64.5194 129.512 62.8257 131.588 62.8257C132.586 62.8257 133.453 63.2165 134.215 63.9983V62.956H137.027V64.2588ZM131.798 69.2879C133.191 69.2879 134.215 68.1935 134.215 66.7343C134.215 65.3011 133.191 64.2067 131.824 64.2067C130.458 64.2067 129.459 65.2751 129.459 66.7343C129.459 68.2456 130.432 69.2879 131.798 69.2879Z" fill="white"/>
<path d="M138.761 64.2588H137.579V62.982H140.232V69.0794H141.415V70.3563H137.579V69.0794H138.761V64.2588ZM140.338 60.4545C140.338 60.9496 139.943 61.3404 139.444 61.3404C138.945 61.3404 138.551 60.9496 138.551 60.4545C138.551 59.9594 138.945 59.5685 139.444 59.5685C139.943 59.5685 140.338 59.9855 140.338 60.4545Z" fill="white"/>
<path d="M142.256 62.982H143.228V61.8355L144.699 60.5066V62.982H146.066V64.2588H144.699V68.5322C144.699 69.2618 145.356 69.2097 146.066 68.9752V70.2781C145.724 70.3823 145.33 70.4865 144.989 70.4865C143.938 70.4865 143.228 70.0175 143.228 68.7407V64.2849H142.256V62.982Z" fill="white"/>
<path d="M154.737 70.3562H152.162V69.4442C151.242 70.1999 150.585 70.4865 149.771 70.4865C148.352 70.4865 147.248 69.4442 147.248 68.1414C147.248 66.7864 148.43 65.7441 149.954 65.7441C150.611 65.7441 151.4 65.9786 151.978 66.3695V65.4053C151.978 64.3631 151.216 63.9722 150.322 63.9722C149.613 63.9722 149.061 64.2588 148.719 64.8581L147.327 64.4933C147.957 63.3468 149.035 62.7736 150.533 62.7736C152.713 62.7736 153.449 63.8419 153.449 65.0405V69.0794H154.737V70.3562ZM151.978 67.5942C151.347 67.0991 150.69 66.8646 150.06 66.8646C149.245 66.8646 148.641 67.3857 148.641 68.1414C148.641 68.871 149.192 69.3661 149.981 69.3661C150.638 69.3661 151.373 69.0273 151.978 68.4801V67.5942Z" fill="white"/>
<path d="M156.655 61.0277H155.341V59.7509H158.153V69.0794H159.309V70.3562H155.315V69.0794H156.681V61.0277H156.655Z" fill="white"/>
<path d="M101.975 6.59412H100.845V75.7762H101.975V6.59412Z" fill="white"/>
</svg>
