<svg width="184" height="75" viewBox="0 0 184 75" fill="none" xmlns="http://www.w3.org/2000/svg">
<path fill-rule="evenodd" clip-rule="evenodd" d="M20.1465 0.682129H10.1314V10.6566H20.1465V0.682129ZM20.249 67.7119H29.3164V57.6359H20.249V15.8343H20.1209H10.157H1.34576V25.8342H10.157V57.6359H1.34576V67.7119H10.157H20.249ZM76.4463 15.9104H45.1971H39.3827H35.1051V67.7627L76.4463 67.7119L87.3067 56.24V27.3824L76.4463 15.9104ZM45.5045 25.6819V25.8849H45.1971V33.4229H69.5305V37.763H45.5045V37.9153H45.1971V45.4533H69.5305V49.8441H45.5045V49.9456H45.1971V57.7374H72.0919L72.14 57.6866H72.5273L77.7014 52.2298V31.1387L72.5273 25.6819H45.5045Z" fill="white"/>
<path d="M108.413 16.6211V15.3267H113.305C117.352 15.3267 118.607 17.9155 118.607 20.4028C118.607 23.7276 116.891 25.6565 113.151 25.6565H108.387V24.3621H109.796V16.6211H108.413ZM111.41 24.3621H113.254C116.148 24.3621 117.045 22.6109 117.045 20.4281C117.045 18.22 115.943 16.6211 113.279 16.6211H111.41V24.3621Z" fill="white"/>
<path d="M120.938 19.7174H119.785V18.4738H122.372V24.4128H123.525V25.6564H119.785V24.4128H120.938V19.7174ZM122.475 16.0119C122.475 16.4941 122.091 16.8748 121.604 16.8748C121.117 16.8748 120.733 16.4941 120.733 16.0119C120.733 15.5296 121.117 15.1489 121.604 15.1489C122.091 15.1743 122.475 15.555 122.475 16.0119Z" fill="white"/>
<path d="M124.524 23.1946H125.805V23.4484C125.933 24.1591 126.599 24.6159 127.546 24.6159C128.443 24.6159 129.032 24.2606 129.032 23.7276C129.032 22.3824 126.496 23.2454 125.113 21.8748C124.78 21.5449 124.55 21.0373 124.55 20.5043C124.55 19.2606 125.625 18.3977 127.085 18.3977C127.751 18.3977 128.366 18.55 128.853 18.8038V18.5246H130.108V20.9104H128.853V20.4789C128.443 19.8698 127.905 19.5906 127.162 19.5906C126.394 19.5906 125.882 19.9459 125.882 20.4789C125.882 21.6718 128.673 20.9865 129.877 22.1794C130.313 22.6109 130.492 23.1692 130.492 23.6768C130.492 24.9966 129.365 25.8596 127.726 25.8596C126.932 25.8596 126.343 25.6819 125.83 25.352V25.758H124.55V23.1946H124.524Z" fill="white"/>
<path d="M133.053 22.4078C133.258 23.8037 134.18 24.6159 135.538 24.6159C136.486 24.6159 137.357 24.2098 137.895 23.4484L139.15 24.0067C138.356 25.1996 137.049 25.8849 135.512 25.8849C133.156 25.8849 131.465 24.3113 131.465 22.0778C131.465 19.7428 133.386 18.2708 135.282 18.2708C137.305 18.2708 139.15 19.7936 139.15 22.4331H133.053V22.4078ZM137.69 21.3672C137.459 20.225 136.435 19.3875 135.308 19.3875C134.18 19.3875 133.31 20.1743 133.105 21.3672H137.69Z" fill="white"/>
<path d="M142.864 19.3367C143.837 18.6261 144.58 18.3469 145.348 18.3469C146.373 18.3469 147.244 18.9814 147.244 20.3773V24.3875H148.499V25.6311H145.809V20.9357C145.809 20.022 145.553 19.6159 144.964 19.6159C144.375 19.6159 143.606 19.9459 142.864 20.5296V24.3875H144.119V25.6311H140.2V24.3875H141.455V19.6921H140.174V18.4484H142.864V19.3367ZM146.603 15.3266C146.603 16.5703 146.117 17.3824 145.246 17.3824C144.324 17.3824 143.504 16.4434 142.941 16.4434C142.582 16.4434 142.505 16.7479 142.505 17.2555H141.634C141.634 15.8342 142.275 15.2505 142.992 15.2505C143.811 15.2505 144.734 16.1642 145.22 16.1642C145.579 16.1642 145.732 15.885 145.758 15.3013H146.603V15.3266Z" fill="white"/>
<path d="M152.93 18.2708C155.107 18.2708 156.747 19.8951 156.747 22.0778C156.747 24.2605 155.107 25.8849 152.93 25.8849C150.753 25.8849 149.114 24.2605 149.114 22.0778C149.114 19.8951 150.727 18.2708 152.93 18.2708ZM152.93 24.489C154.236 24.489 155.21 23.4484 155.21 22.0524C155.21 20.6565 154.236 19.6159 152.93 19.6159C151.649 19.6159 150.65 20.6565 150.65 22.0524C150.65 23.4737 151.624 24.489 152.93 24.489Z" fill="white"/>
<path d="M171.193 20.1997V21.4687H170.091C169.835 22.4331 169.477 23.1692 169.067 23.6768L169.63 24.3874H171.218V25.6818H168.836L168.145 24.7681C167.197 25.5042 166.326 25.8595 165.378 25.8595C163.252 25.8595 161.639 24.3621 161.639 22.3824C161.639 21.0118 162.433 19.9712 163.995 19.286C163.509 18.6514 163.278 18.0931 163.278 17.4839C163.278 16.2149 164.379 15.1997 165.814 15.1997C167.223 15.1997 168.298 16.1642 168.298 17.4078C168.298 18.423 167.735 19.1844 166.121 19.7682L168.247 22.6108C168.606 21.9763 168.913 21.1387 169.067 20.225H171.193V20.1997ZM164.789 20.1997C163.739 20.6819 163.227 21.3672 163.227 22.2809C163.227 23.5245 164.277 24.5397 165.532 24.5397C166.172 24.5397 166.813 24.2605 167.325 23.7275L164.789 20.1997ZM166.915 17.3317C166.915 16.7225 166.48 16.3926 165.865 16.3926C165.225 16.3926 164.764 16.7479 164.764 17.3824C164.764 17.7124 164.943 18.0677 165.404 18.7276C166.505 18.2707 166.915 17.89 166.915 17.3317Z" fill="white"/>
<path d="M108.413 30.7326V29.4382H113.305C117.352 29.4382 118.607 32.027 118.607 34.5143C118.607 37.8392 116.891 39.7681 113.151 39.7681H108.387V38.4737H109.796V30.7326H108.413ZM111.41 38.4991H113.254C116.148 38.4991 117.045 36.7478 117.045 34.5651C117.045 32.357 115.943 30.758 113.279 30.758H111.41V38.4991Z" fill="white"/>
<path d="M121.553 36.5447C121.758 37.9407 122.68 38.7528 124.037 38.7528C124.985 38.7528 125.856 38.3467 126.394 37.5853L127.649 38.1437C126.855 39.3366 125.549 40.0219 124.012 40.0219C121.655 40.0219 119.965 38.4483 119.965 36.2148C119.965 33.8798 121.886 32.4077 123.781 32.4077C125.805 32.4077 127.649 33.9305 127.649 36.5701H121.553V36.5447ZM126.189 35.5041C125.958 34.362 124.934 33.5245 123.807 33.5245C122.68 33.5245 121.809 34.3112 121.604 35.5041H126.189Z" fill="white"/>
<path d="M128.853 37.3062H130.133V37.56C130.262 38.2706 130.927 38.7275 131.875 38.7275C132.772 38.7275 133.361 38.3722 133.361 37.8392C133.361 36.494 130.825 37.3569 129.442 35.9864C129.109 35.6565 128.878 35.1488 128.878 34.6159C128.878 33.3722 129.954 32.5093 131.414 32.5093C132.08 32.5093 132.695 32.6616 133.182 32.9154V32.6362H134.437V35.0219H133.182V34.5905C132.772 33.9813 132.234 33.7022 131.491 33.7022C130.723 33.7022 130.21 34.0575 130.21 34.5905C130.21 35.7834 133.002 35.0981 134.206 36.291C134.642 36.7224 134.821 37.2808 134.821 37.7884C134.821 39.1082 133.694 39.9711 132.054 39.9711C131.26 39.9711 130.671 39.7935 130.159 39.4635V39.8696H128.878V37.3062H128.853Z" fill="white"/>
<path d="M143.222 39.7934H140.712V38.9051C139.816 39.6411 139.175 39.9203 138.381 39.9203C136.998 39.9203 135.922 38.9051 135.922 37.6361C135.922 36.3163 137.075 35.3011 138.56 35.3011C139.201 35.3011 139.969 35.5295 140.533 35.9102V34.9711C140.533 33.9559 139.79 33.5752 138.919 33.5752C138.228 33.5752 137.69 33.8544 137.357 34.4382L135.999 34.0828C136.614 32.9661 137.664 32.4077 139.124 32.4077C141.25 32.4077 141.967 33.4483 141.967 34.6158V38.5498H143.222V39.7934ZM140.533 37.1031C139.918 36.6209 139.278 36.3924 138.663 36.3924C137.869 36.3924 137.28 36.9001 137.28 37.6361C137.28 38.3467 137.818 38.829 138.586 38.829C139.226 38.829 139.944 38.499 140.533 37.966V37.1031Z" fill="white"/>
<path d="M145.195 33.8544H143.735V32.6108H146.322V34.2351H146.347C146.808 33.0423 147.73 32.5093 148.627 32.5093H149.575V33.9306H148.806C147.141 33.9306 146.629 34.8697 146.629 36.494V38.5498H148.191V39.7935H143.76V38.5498H145.195V33.8544Z" fill="white"/>
<path d="M151.829 33.8544H150.369V32.6108H152.956V34.2351H152.981C153.442 33.0423 154.364 32.5093 155.261 32.5093H156.209V33.9306H155.44C153.775 33.9306 153.263 34.8697 153.263 36.494V38.5498H154.825V39.7935H150.394V38.5498H151.829V33.8544Z" fill="white"/>
<path d="M160.23 32.3823C162.407 32.3823 164.047 34.0067 164.047 36.1894C164.047 38.3721 162.407 39.9965 160.23 39.9965C158.053 39.9965 156.414 38.3721 156.414 36.1894C156.414 34.0067 158.027 32.3823 160.23 32.3823ZM160.204 38.6259C161.511 38.6259 162.484 37.5853 162.484 36.1894C162.484 34.7935 161.511 33.7529 160.204 33.7529C158.924 33.7529 157.925 34.7935 157.925 36.1894C157.95 37.5853 158.924 38.6259 160.204 38.6259Z" fill="white"/>
<path d="M166.301 30.7073H165.02V29.4636H167.761V38.5498H168.888V39.7935H164.994V38.5498H166.326V30.7073H166.301Z" fill="white"/>
<path d="M170.783 30.7073H169.502V29.4636H172.243V38.5498H173.37V39.7935H169.477V38.5498H170.809V30.7073H170.783Z" fill="white"/>
<path d="M177.981 32.3823C180.158 32.3823 181.797 34.0067 181.797 36.1894C181.797 38.3721 180.158 39.9965 177.981 39.9965C175.803 39.9965 174.164 38.3721 174.164 36.1894C174.164 34.0067 175.803 32.3823 177.981 32.3823ZM177.981 38.6259C179.287 38.6259 180.26 37.5853 180.26 36.1894C180.26 34.7935 179.287 33.7529 177.981 33.7529C176.7 33.7529 175.701 34.7935 175.701 36.1894C175.701 37.5853 176.674 38.6259 177.981 38.6259Z" fill="white"/>
<path d="M109.821 44.8694H108.694V43.575H112.537V44.8694H111.41V52.6104H112.537V53.9048H108.694V52.6104H109.821V44.8694Z" fill="white"/>
<path d="M116.148 47.5851C117.122 46.8744 117.864 46.5952 118.633 46.5952C119.657 46.5952 120.528 47.2297 120.528 48.6256V52.6358H121.783V53.8794H119.094V49.184C119.094 48.2703 118.838 47.8642 118.249 47.8642C117.659 47.8642 116.891 48.1942 116.148 48.7779V52.6358H117.403V53.8794H113.484V52.6358H114.739V47.9404H113.459V46.6967H116.174V47.5851H116.148Z" fill="white"/>
<path d="M122.296 46.7222H123.243V45.6054L124.678 44.311V46.7222H126.01V47.9658H124.678V52.1282C124.678 52.8389 125.318 52.7881 126.01 52.5597V53.8287C125.677 53.9302 125.292 54.0318 124.959 54.0318C123.935 54.0318 123.243 53.5749 123.243 52.3313V47.9912H122.296V46.7222Z" fill="white"/>
<path d="M128.597 50.6563C128.802 52.0522 129.724 52.8644 131.081 52.8644C132.029 52.8644 132.9 52.4583 133.438 51.6969L134.693 52.2553C133.899 53.4482 132.592 54.1334 131.056 54.1334C128.699 54.1334 127.009 52.5598 127.009 50.3264C127.009 47.9914 128.93 46.5193 130.825 46.5193C132.849 46.5193 134.693 48.0421 134.693 50.6817H128.597V50.6563ZM133.233 49.6411C133.002 48.499 131.978 47.6614 130.851 47.6614C129.724 47.6614 128.853 48.4482 128.648 49.6411H133.233Z" fill="white"/>
<path d="M137.049 47.9658H135.589V46.7221H138.176V48.3465H138.202C138.663 47.1536 139.585 46.6206 140.482 46.6206H141.429V48.0419H140.661C138.996 48.0419 138.484 48.981 138.484 50.6053V52.6612H140.046V53.9048H135.615V52.6612H137.049V47.9658Z" fill="white"/>
<path d="M149.267 53.905H146.757V53.0167C145.861 53.7527 145.22 54.0319 144.426 54.0319C143.043 54.0319 141.967 53.0167 141.967 51.7477C141.967 50.4279 143.12 49.4127 144.605 49.4127C145.246 49.4127 146.014 49.6411 146.578 50.0218V49.0827C146.578 48.0675 145.835 47.6868 144.964 47.6868C144.272 47.6868 143.735 47.966 143.402 48.5497L142.044 48.1944C142.659 47.0777 143.709 46.5193 145.169 46.5193C147.295 46.5193 148.012 47.5599 148.012 48.7274V52.6614H149.267V53.905ZM146.578 51.24C145.963 50.7578 145.323 50.5294 144.708 50.5294C143.914 50.5294 143.325 51.037 143.325 51.773C143.325 52.4837 143.863 52.9659 144.631 52.9659C145.271 52.9659 145.989 52.636 146.578 52.103V51.24Z" fill="white"/>
<path d="M156.875 49.4378H155.594C155.517 48.9302 155.312 48.5241 154.954 48.2449C154.621 47.9657 154.185 47.8135 153.673 47.8135C152.392 47.8135 151.521 48.8033 151.521 50.25C151.521 51.7982 152.418 52.8388 153.724 52.8388C154.697 52.8388 155.466 52.3312 155.901 51.4175L157.079 51.9759C156.439 53.3972 155.261 54.1332 153.673 54.1332C151.163 54.1332 149.984 52.1028 149.984 50.2754C149.984 48.1942 151.572 46.5444 153.545 46.5444C154.339 46.5444 155.056 46.7982 155.594 47.2551V46.7729H156.875V49.4378Z" fill="white"/>
<path d="M157.899 46.7222H158.847V45.6054L160.281 44.311V46.7222H161.613V47.9658H160.281V52.1282C160.281 52.8389 160.922 52.7881 161.613 52.5597V53.8287C161.28 53.9302 160.896 54.0318 160.563 54.0318C159.538 54.0318 158.847 53.5749 158.847 52.3313V47.9912H157.899V46.7222Z" fill="white"/>
<path d="M163.585 47.966H162.433V46.7223H165.02V52.6613H166.172V53.905H162.433V52.6613H163.585V47.966ZM165.148 44.2858C165.148 44.768 164.764 45.1487 164.277 45.1487C163.79 45.1487 163.406 44.768 163.406 44.2858C163.406 43.8036 163.79 43.4229 164.277 43.4229C164.764 43.4229 165.148 43.8036 165.148 44.2858Z" fill="white"/>
<path d="M167.479 47.9658H166.198V46.7222H169.861V47.9658H168.913L170.476 52.0521L172.038 47.9658H171.014V46.7222H174.574V47.9658H173.447L171.116 54.0317H169.835L167.479 47.9658Z" fill="white"/>
<path d="M178.442 46.5193C180.619 46.5193 182.258 48.1436 182.258 50.3264C182.258 52.5091 180.619 54.1334 178.442 54.1334C176.264 54.1334 174.625 52.5091 174.625 50.3264C174.625 48.1436 176.239 46.5193 178.442 46.5193ZM178.416 52.7629C179.722 52.7629 180.696 51.7223 180.696 50.3264C180.696 48.9304 179.722 47.8898 178.416 47.8898C177.135 47.8898 176.136 48.9304 176.136 50.3264C176.136 51.7223 177.135 52.7629 178.416 52.7629Z" fill="white"/>
<path d="M108.413 59.0063V57.7119H113.305C117.352 57.7119 118.607 60.3007 118.607 62.788C118.607 66.1128 116.891 68.0418 113.151 68.0418H108.387V66.7474H109.796V59.0063H108.413ZM111.41 66.7474H113.254C116.148 66.7474 117.045 64.9961 117.045 62.8134C117.045 60.6053 115.943 59.0063 113.279 59.0063H111.41V66.7474Z" fill="white"/>
<path d="M120.938 62.1027H119.785V60.859H122.372V66.798H123.525V68.0417H119.785V66.798H120.938V62.1027ZM122.475 58.3971C122.475 58.8793 122.091 59.26 121.604 59.26C121.117 59.26 120.733 58.8793 120.733 58.3971C120.733 57.9149 121.117 57.5342 121.604 57.5342C122.091 57.5596 122.475 57.9403 122.475 58.3971Z" fill="white"/>
<path d="M133.335 62.1027H132.029V68.0925C132.029 70.6559 129.775 71.4173 128.136 71.4173C127.034 71.4173 126.24 71.1635 125.292 70.4529L126.215 69.4123C126.855 69.9199 127.546 70.1483 128.264 70.1483C129.16 70.1483 130.595 69.6915 130.595 68.1179V67.0265H130.569C130.005 67.7372 128.981 68.2194 127.982 68.2194C125.933 68.2194 124.447 66.6458 124.447 64.5139C124.447 62.3565 126.01 60.7068 128.033 60.7068C129.006 60.7068 129.852 61.0875 130.595 61.8489V60.8337H133.335V62.1027ZM128.238 67.0011C129.596 67.0011 130.595 65.9352 130.595 64.5139C130.595 63.1179 129.596 62.052 128.264 62.052C126.932 62.052 125.958 63.0926 125.958 64.5139C125.958 65.9859 126.906 67.0011 128.238 67.0011Z" fill="white"/>
<path d="M135.026 62.1027H133.873V60.859H136.46V66.798H137.613V68.0417H133.873V66.798H135.026V62.1027ZM136.563 58.3971C136.563 58.8793 136.178 59.26 135.692 59.26C135.205 59.26 134.821 58.8793 134.821 58.3971C134.821 57.9149 135.205 57.5342 135.692 57.5342C136.178 57.5342 136.563 57.9403 136.563 58.3971Z" fill="white"/>
<path d="M138.432 60.8591H139.38V59.7424L140.815 58.448V60.8591H142.146V62.1028H140.815V66.2652C140.815 66.9758 141.455 66.9251 142.146 66.6966V67.9657C141.813 68.0672 141.429 68.1687 141.096 68.1687C140.072 68.1687 139.38 67.7119 139.38 66.4682V62.1282H138.432V60.8591Z" fill="white"/>
<path d="M150.599 68.0417H148.089V67.1534C147.192 67.8894 146.552 68.1686 145.758 68.1686C144.375 68.1686 143.299 67.1534 143.299 65.8844C143.299 64.5646 144.452 63.5494 145.937 63.5494C146.578 63.5494 147.346 63.7778 147.91 64.1585V63.2194C147.91 62.2042 147.167 61.8235 146.296 61.8235C145.604 61.8235 145.066 62.1027 144.733 62.6864L143.376 62.3311C143.991 61.2144 145.041 60.656 146.501 60.656C148.627 60.656 149.344 61.6966 149.344 62.8641V66.7981H150.599V68.0417ZM147.91 65.3514C147.295 64.8692 146.655 64.6407 146.04 64.6407C145.246 64.6407 144.657 65.1483 144.657 65.8844C144.657 66.595 145.195 67.0773 145.963 67.0773C146.603 67.0773 147.32 66.7473 147.91 66.2143V65.3514Z" fill="white"/>
<path d="M152.469 58.9556H151.188V57.7119H153.929V66.7981H155.056V68.0418H151.163V66.7981H152.495V58.9556H152.469Z" fill="white"/>
<path d="M99.166 5.93579H98.0646V73.3209H99.166V5.93579Z" fill="white"/>
</svg>
