<?xml version="1.0" encoding="utf-8"?>
<!-- Generator: Adobe Illustrator 27.8.1, SVG Export Plug-In . SVG Version: 6.00 Build 0)  -->
<svg version="1.1" id="Capa_2_00000044856204604324737620000010821377141992750498_"
	 xmlns="http://www.w3.org/2000/svg" xmlns:xlink="http://www.w3.org/1999/xlink" x="0px" y="0px" viewBox="0 0 173.1 39.5"
	 style="enable-background:new 0 0 173.1 39.5;" width="173.1" height="39.5" xml:space="preserve">
<style type="text/css">
	.st0{fill:#EF7D00;}
	.st1{fill:#ffffff;}
	.st2{fill:none;stroke:#ffffff;stroke-width:0.6353;}
</style>
<g>
	<polygon class="st0" points="48.1,38.4 63.9,-0.2 79.7,38.4 76.2,38.4 63.9,7.9 51.6,38.4 	"/>
	<polygon class="st1" points="0,38.4 0,1 18.5,1 18.5,4.2 3.5,4.2 3.5,15.9 18.5,15.9 18.5,19.1 3.5,19.1 3.5,35.2 18.5,35.2 
		18.5,38.4 	"/>
	<path class="st1" d="M24,32.1l2.9-1.5c0.5,1.8,1.4,3.3,2.8,4.3c1.3,1,2.9,1.5,4.8,1.5c2.3,0,4.2-0.7,5.5-2.1c1.3-1.4,2-3.3,2-5.8
		c0-1.8-0.4-3.3-1.3-4.5c-0.9-1.2-2.8-2.6-5.7-4.1c-3.8-2-6.3-3.8-7.5-5.3s-1.9-3.3-1.9-5.5c0-2.6,0.9-4.8,2.7-6.5
		c1.8-1.6,4.1-2.5,7-2.5c1.8,0,3.5,0.4,4.9,1.2c1.4,0.7,2.5,1.9,3.4,3.5L41,6.4c-0.5-1.1-1.3-1.9-2.3-2.4c-1-0.6-2.2-0.8-3.5-0.8
		c-1.8,0-3.3,0.5-4.4,1.6s-1.6,2.5-1.6,4.4c0,2.6,2.1,5.1,6.5,7.3c0.8,0.4,1.4,0.7,1.8,0.9c3.2,1.8,5.3,3.4,6.4,5
		c1,1.6,1.6,3.6,1.6,6.1c0,3.3-0.9,6-2.9,8c-1.9,2-4.6,3-8,3c-2.5,0-4.6-0.6-6.3-1.8C26.4,36.3,25,34.5,24,32.1z"/>
	<polygon class="st1" points="86.9,38.4 86.9,4.2 76.6,4.2 76.6,1 100.6,1 100.6,4.2 90.3,4.2 90.3,38.4 	"/>
</g>
<g>
	<path class="st1" d="M123.1,1.2h2.8v0.6h-2.2v1.6h2.1V4h-2.1v2h2.2v0.6h-2.8V1.2z"/>
	<path class="st1" d="M129.7,2.3c-0.2-0.4-0.5-0.6-0.9-0.6c-0.5,0-0.9,0.3-0.9,0.8s0.5,0.7,0.8,0.8l0.4,0.2c0.7,0.3,1.3,0.7,1.3,1.5
		c0,0.9-0.7,1.6-1.7,1.6c-0.9,0-1.5-0.6-1.7-1.4l0.6-0.2c0.1,0.5,0.5,1,1.1,1c0.6,0,1.1-0.4,1.1-1s-0.5-0.8-1-1.1l-0.3-0.1
		c-0.6-0.3-1.2-0.6-1.2-1.4S128,1,128.8,1c0.6,0,1.1,0.3,1.4,0.8L129.7,2.3z"/>
	<path class="st1" d="M135.6,2.4c-0.4-0.4-1-0.7-1.6-0.7c-1.2,0-2.2,1-2.2,2.2s1,2.2,2.2,2.2c0.6,0,1.2-0.3,1.6-0.7v0.7
		c-0.5,0.3-1,0.5-1.6,0.5c-1.5,0-2.8-1.2-2.8-2.7s1.3-2.8,2.8-2.8c0.6,0,1.1,0.2,1.6,0.5V2.4z"/>
	<path class="st1" d="M137.6,4.4c0,0.4,0,0.8,0.2,1.2c0.2,0.3,0.7,0.5,1.1,0.5c0.4,0,0.8-0.2,1-0.5c0.3-0.3,0.3-0.8,0.3-1.2V1.2h0.6
		v3.3c0,0.6,0,1-0.5,1.5c-0.4,0.4-0.9,0.6-1.4,0.6s-1-0.2-1.4-0.5C137,5.7,137,5.2,137,4.6V1.2h0.6V4.4z"/>
	<path class="st1" d="M142.2,1.2h2.8v0.6h-2.2v1.6h2.1V4h-2.1v2h2.2v0.6h-2.8V1.2z"/>
	<path class="st1" d="M146.9,6h1.5v0.6h-2.1V1.2h0.6V6z"/>
	<path class="st1" d="M150.1,5l-0.6,1.5h-0.7l2.5-5.6l2.4,5.6H153L152.4,5H150.1z M151.3,2.3l-0.9,2.1h1.8L151.3,2.3z"/>
	<path class="st1" d="M125.5,12.9c-0.2-0.4-0.5-0.6-0.9-0.6c-0.5,0-0.9,0.3-0.9,0.8s0.5,0.7,0.8,0.8l0.4,0.2
		c0.7,0.3,1.3,0.7,1.3,1.5c0,0.9-0.7,1.6-1.7,1.6c-0.9,0-1.5-0.6-1.7-1.4l0.6-0.2c0.1,0.5,0.5,1,1.1,1s1.1-0.4,1.1-1s-0.5-0.8-1-1.1
		l-0.3-0.1c-0.6-0.3-1.2-0.6-1.2-1.4c0-0.8,0.7-1.4,1.5-1.4c0.6,0,1.1,0.3,1.4,0.8L125.5,12.9z"/>
	<path class="st1" d="M128,15c0,0.4,0,0.8,0.2,1.2c0.2,0.3,0.7,0.5,1.1,0.5c0.4,0,0.8-0.2,1-0.5c0.3-0.3,0.3-0.8,0.3-1.2v-3.2h0.6
		v3.3c0,0.6,0,1-0.5,1.5c-0.4,0.4-0.9,0.6-1.4,0.6s-1-0.2-1.4-0.5c-0.5-0.4-0.5-0.9-0.5-1.5v-3.3h0.6L128,15L128,15z"/>
	<path class="st1" d="M133.2,17.2h-0.6v-5.3h0.9c0.5,0,0.9,0,1.3,0.3c0.4,0.3,0.6,0.7,0.6,1.2c0,0.4-0.2,0.9-0.5,1.1
		c-0.4,0.3-0.8,0.4-1.3,0.4h-0.4V17.2z M133.2,14.3h0.4c0.7,0,1.2-0.2,1.2-1c0-0.9-0.7-0.9-1.4-0.9h-0.2V14.3z"/>
	<path class="st1" d="M136.5,11.8h2.8v0.6h-2.2V14h2.1v0.6h-2.1v2.1h2.2v0.6h-2.8V11.8z"/>
	<path class="st1" d="M141.3,17.2h-0.6v-5.3h0.8c1,0,2,0.3,2,1.5c0,0.8-0.5,1.4-1.3,1.5l1.7,2.4H143l-1.6-2.3h-0.2v2.2H141.3z
		 M141.3,14.3h0.2c0.7,0,1.4-0.1,1.4-1s-0.6-1-1.4-1h-0.2V14.3z"/>
	<path class="st1" d="M145.5,17.2h-0.6v-5.3h0.6V17.2z"/>
	<path class="st1" d="M152.2,14.5c0,1.5-1.3,2.8-2.8,2.8s-2.8-1.2-2.8-2.8c0-1.5,1.3-2.8,2.8-2.8C150.9,11.7,152.2,13,152.2,14.5z
		 M147.2,14.5c0,1.2,1,2.2,2.2,2.2s2.2-1,2.2-2.2s-1-2.2-2.2-2.2S147.2,13.3,147.2,14.5z"/>
	<path class="st1" d="M154,17.2h-0.6v-5.3h0.8c1,0,2,0.3,2,1.5c0,0.8-0.5,1.4-1.3,1.5l1.7,2.4h-0.7l-1.6-2.3H154V17.2z M154,14.3
		h0.2c0.7,0,1.4-0.1,1.4-1s-0.6-1-1.4-1H154V14.3z"/>
	<path class="st1" d="M160.1,11.8h1c0.8,0,1.5,0.1,2.1,0.6s0.9,1.2,0.9,2s-0.3,1.5-0.9,2c-0.6,0.6-1.3,0.7-2.1,0.7h-1V11.8z
		 M161.1,16.6c0.7,0,1.2-0.1,1.7-0.6c0.4-0.4,0.7-1,0.7-1.6s-0.2-1.2-0.7-1.6c-0.5-0.4-1-0.5-1.7-0.5h-0.4v4.2h0.4V16.6z"/>
	<path class="st1" d="M165.2,11.8h2.8v0.6h-2.2V14h2.1v0.6h-2.1v2.1h2.2v0.6h-2.8V11.8z"/>
	<path class="st1" d="M123.9,26.3l-0.6,1.5h-0.7l2.5-5.6l2.4,5.6h-0.7l-0.6-1.5H123.9z M125,23.6l-0.9,2.1h1.8L125,23.6z"/>
	<path class="st1" d="M129,27.8h-0.6v-5.3h0.8c1,0,2,0.3,2,1.5c0,0.8-0.5,1.4-1.3,1.5l1.7,2.4h-0.7l-1.6-2.3H129V27.8z M129,24.9
		h0.2c0.7,0,1.4-0.1,1.4-1s-0.6-1-1.4-1H129V24.9z"/>
	<path class="st1" d="M133.9,27.8h-0.6V23H132v-0.6h3.2V23h-1.3V27.8z"/>
	<path class="st1" d="M136.1,22.5h2.8V23h-2.2v1.6h2.1v0.6h-2.1v2.1h2.2v0.6h-2.8V22.5z"/>
	<path class="st1" d="M142.3,22.5h0.7l1.4,2.4l1.4-2.4h0.7l-1.8,3v2.3h-0.6v-2.3L142.3,22.5z"/>
	<path class="st1" d="M124.5,38.4h-0.6v-4.8h-1.3V33h3.2v0.6h-1.3C124.5,33.6,124.5,38.4,124.5,38.4z"/>
	<path class="st1" d="M126.8,33.1h2.8v0.6h-2.2v1.6h2.1v0.6h-2.1V38h2.2v0.6h-2.8L126.8,33.1L126.8,33.1z"/>
	<path class="st1" d="M135,34.3c-0.4-0.4-1-0.7-1.6-0.7c-1.2,0-2.2,1-2.2,2.2s1,2.2,2.2,2.2c0.6,0,1.2-0.3,1.6-0.7V38
		c-0.5,0.3-1,0.5-1.6,0.5c-1.5,0-2.8-1.2-2.8-2.7s1.3-2.8,2.8-2.8c0.6,0,1.1,0.2,1.6,0.5V34.3z"/>
	<path class="st1" d="M136.4,32.9l4.2,4.4v-4.1h0.6v5.6l-4.2-4.4v4.1h-0.6V32.9z"/>
	<path class="st1" d="M147.9,35.8c0,1.5-1.3,2.8-2.8,2.8s-2.8-1.2-2.8-2.8c0-1.5,1.3-2.8,2.8-2.8C146.6,33,147.9,34.2,147.9,35.8z
		 M142.9,35.8c0,1.2,1,2.2,2.2,2.2s2.2-1,2.2-2.2s-1-2.2-2.2-2.2C143.9,33.5,142.9,34.5,142.9,35.8z"/>
	<path class="st1" d="M149.7,37.9h1.5v0.6h-2.1v-5.3h0.6V37.9z"/>
	<path class="st1" d="M157.4,35.8c0,1.5-1.3,2.8-2.8,2.8s-2.8-1.2-2.8-2.8c0-1.5,1.3-2.8,2.8-2.8C156.1,33,157.4,34.2,157.4,35.8z
		 M152.4,35.8c0,1.2,1,2.2,2.2,2.2s2.2-1,2.2-2.2s-1-2.2-2.2-2.2C153.4,33.5,152.4,34.5,152.4,35.8z"/>
	<path class="st1" d="M163.5,35.7c0,0.7-0.1,1.3-0.6,1.9c-0.5,0.6-1.2,0.9-2,0.9c-1.5,0-2.7-1.2-2.7-2.7s1.2-2.8,2.8-2.8
		c0.9,0,1.7,0.4,2.3,1.2l-0.4,0.4c-0.4-0.6-1-1-1.8-1c-1.2,0-2.2,1-2.2,2.2c0,0.6,0.2,1.1,0.6,1.5c0.4,0.4,1,0.7,1.5,0.7
		c0.9,0,1.9-0.7,1.9-1.7h-1.6v-0.6C161.3,35.7,163.5,35.7,163.5,35.7z"/>
	<path class="st1" d="M165.9,31.6l-1.1,1.1l-0.4-0.2l0.8-1.2L165.9,31.6z M165.3,38.4h-0.6v-5.3h0.6V38.4z"/>
	<path class="st1" d="M167.5,36.9l-0.6,1.5h-0.7l2.5-5.6l2.4,5.6h-0.7l-0.6-1.5H167.5z M168.7,34.2l-0.9,2.1h1.8L168.7,34.2z"/>
</g>
<line class="st2" x1="111.6" y1="1" x2="111.6" y2="39.5"/>
</svg>
