<svg width="49" height="40" viewBox="0 0 49 40" fill="none" xmlns="http://www.w3.org/2000/svg">
<path d="M46.5 18H36.5C35.9696 18 35.4609 18.2107 35.0858 18.5858C34.7107 18.9609 34.5 19.4696 34.5 20V38C34.5 38.5304 34.7107 39.0391 35.0858 39.4142C35.4609 39.7893 35.9696 40 36.5 40H46.5C47.0304 40 47.5391 39.7893 47.9142 39.4142C48.2893 39.0391 48.5 38.5304 48.5 38V20C48.5 19.4696 48.2893 18.9609 47.9142 18.5858C47.5391 18.2107 47.0304 18 46.5 18ZM46.5 36H36.5V22H46.5V36ZM40.5 0H4.5C2.28 0 0.5 1.78 0.5 4V28C0.5 29.0609 0.921427 30.0783 1.67157 30.8284C2.42172 31.5786 3.43913 32 4.5 32H18.5V36H14.5V40H30.5V36H26.5V32H30.5V28H4.5V4H40.5V14H44.5V4C44.5 1.78 42.7 0 40.5 0Z" fill="#293133"/>
</svg>
